<svg xmlns="http://www.w3.org/2000/svg" viewBox="0 0 350.09 350"><defs><style>.cls-1{fill:#8a733e;}</style></defs><g id="Layer_1" data-name="Layer 1"><path class="cls-1" d="M39,77.11,49.84,89.39l3.92.12.29.24-4,5-.29-.23-1-3.79L35.6,75.85l-4-1.36,2-4.34L52.82,77.6l1.18.94L43.84,64.73l-3.13-1.58,2.15-4.52L65.24,70.1l3.7.39.29.24-5.44,6.82-.3-.24L62.15,74l-15-7.57,12.32,17-1,1.27Z"/><path class="cls-1" d="M66.57,54.2C61.3,47.15,63,38.86,69.75,33.82c7.08-5.29,15.62-4.59,20.87,2.44S94,51.73,87.36,56.66C80.36,61.88,71.77,61.17,66.57,54.2ZM86.93,40.42c-4.72-6.33-12.08-8.81-16.9-5.21-5.09,3.8-3.76,9.5,0,14.56,4.88,6.54,12.24,9.07,17.17,5.38S90.85,45.66,86.93,40.42Z"/><path class="cls-1" d="M129.58,35l-.69.29-6,.19-13-8.87-1.15.48,4.12,9.79,3.3,2,.15.35L107.58,43l-.15-.35.95-3.8-8-19.14-3.5-2-.13-.32,8-3.35c3-1.27,10.9-4.41,13.49,1.76,2.49,5.92-4.09,9.09-6.6,10.15l-.17.07,4.69-.33Zm-21.31-9.16,1.67-.71c4.15-1.74,5.39-4.23,3.84-7.93-1.35-3.2-4.27-3.73-8.56-1.93L104,15.8Z"/><path class="cls-1" d="M159.17,25.7c-1.35,1.63-3,2.47-9.73,3.71l-11.79,2.18-.07-.37,1.56-3.44L135.37,7.33l-3.28-2.59L132,4.37,150.94.88l2.45,5.74-.71.13-6-3.69-6.85,1.26,1.87,10.11,4.83-.89,2.63-2.41.45-.08,1.12,6.06-.41.07L146.79,15l-4.84.89,2.4,13,3.53-.65c4.09-.75,6-2.37,6.81-5.79Z"/><path class="cls-1" d="M187.65,13.24C189,4.66,196.55.15,204.28,1.38c5.79.92,10.11,4.56,11.18,9.36l-5.59,3.63c1.45-5.28-.94-10.95-6.21-11.79-5.63-.89-9.8,4.11-10.79,10.35-1.28,8,2,14,8.21,15,5.57.89,8.22-2.33,9.23-4.31l1.12.17L210.28,31l-.63-.1L207.77,29a13,13,0,0,1-7.77.94C189.18,28.19,186.63,19.63,187.65,13.24Z"/><path class="cls-1" d="M241.93,42.4l-.13.32-8.47-3.44.12-.32,2.91-2.24,0-6.75-7.75-3.14L224,31.69l.79,3.7-.15.35-6.13-2.49.14-.35L222.14,31l14-14.53V11.93l5.15.17-.09,26.56Zm-5.6-14.06-.05-9.61-6.57,6.93Z"/><path class="cls-1" d="M252.11,47.91l-2.48-.58-.44-.3,4.1-6.08,1,.68a7.63,7.63,0,0,0,2.9,9.7c3.17,2.14,6.07,2,7.7-.46,4.46-6.62-9.44-12.71-3.78-21.11,3.11-4.61,8.21-3.31,11.47-1.12,3.85,2.6,5.45,5.51,4.77,8.83h-5l-.47-.31a6.66,6.66,0,0,0,1.25-1.44c1.52-2.26,1-4.39-1.48-6.06s-4.69-1.3-6,.65c-4.44,6.58,9.64,12.47,3.7,21.28-2.68,4-8,4.3-12.94.94A12.62,12.62,0,0,1,252.11,47.91Z"/><path class="cls-1" d="M289.65,78.65c-2.11-.21-3.71-1.09-8.52-6l-8.37-8.57.27-.26,3.72-.63,14.87-14.54.32-4.16.27-.27L305.66,58l-3.4,5.23-.5-.52-.3-7.06-4.86-5-7.36,7.19,3.44,3.52,3.47.84.31.32-4.4,4.31-.3-.3-.16-4.12-3.44-3.51-9.43,9.22,2.51,2.57c2.9,3,5.3,3.64,8.6,2.43Z"/><path class="cls-1" d="M305.21,103.88l-1.85-1.74-.23-.48,6.59-3.2.53,1.09a7.62,7.62,0,0,0-2.36,9.84c1.67,3.44,4.28,4.74,6.89,3.47C322,109.37,313,97.13,322.1,92.7c5-2.43,8.76,1.25,10.48,4.79,2,4.18,2,7.49-.3,10L328,105l-.25-.51a6.5,6.5,0,0,0,1.8-.62c2.45-1.19,3.06-3.3,1.76-6s-3.41-3.47-5.52-2.45c-7.14,3.47,2.08,15.63-7.47,20.27-4.32,2.1-9-.27-11.67-5.68A12.67,12.67,0,0,1,305.21,103.88Z"/><path class="cls-1" d="M316.23,132.14l3.65,1.39L342,127.7l-.91-3.43-6.65-3.61-.13-.47,7-.4,5.23,19.89-6.3,3.1-.12-.48,4-6.41-.9-3.44-22.16,5.83-2.49,3-.33.09-2.41-9.14Z"/><path class="cls-1" d="M329.54,158l16.2-.69,3-1.87h.37l.37,8.46h-.38L346,162.18l-15.9.68c-4.95.21-7.06,3.14-6.91,6.5.15,3.59,2.74,5.86,6.67,5.7l16.66-.72,3-2.32h.37l.28,6.49-.38,0-3.15-2.1-16.39.7c-5.18.22-8.61-3-8.84-8.44C321.05,162,323.27,158.23,329.54,158Z"/><path class="cls-1" d="M330,216.78c-10.4-2-12.43-8.15-11.27-14.32.53-2.82,1.91-4.87,3.88-5.69l-2.2-.41,1.28-6.8.37.07,2.69,2.69,20.43,3.85,3.5-1.81.37.07-1.72,9.14C346.28,209.29,342.69,219.16,330,216.78Zm.55-5.36c8.88,1.67,14.09-.89,15.44-8.1l.37-1.93-21.37-4a6.36,6.36,0,0,0-4.59,5C319.6,206.74,322.39,209.88,330.57,211.42Z"/><path class="cls-1" d="M314,223.73l2.07,3.32,19.36,7.57,3.43-.24.35.13-2.86,7.33-.35-.14-2.36-2.5-19.36-7.57-3.78,1-.35-.14,3.5-8.94Z"/><path class="cls-1" d="M295.75,262.34c-.31-2.09.15-3.85,3.75-9.71l6.28-10.21.32.19,1.51,3.46L325.33,257l4.12-.7.32.19-10.08,16.4-5.9-2,.38-.61,6.78-2,3.64-5.93-8.76-5.39-2.58,4.19,0,3.57L313,265l-5.25-3.22.22-.36,4-1.16,2.57-4.19-11.24-6.91-1.88,3.06c-2.18,3.54-2.24,6-.26,8.94Z"/><path class="cls-1" d="M286.9,271.25l1-2.36.36-.39,5.39,5-.82.89a7.62,7.62,0,0,0-10,1.4c-2.59,2.8-2.85,5.7-.71,7.68,5.87,5.41,14-7.42,21.44-.55,4.08,3.77,2,8.61-.63,11.5-3.16,3.42-6.27,4.57-9.45,3.38l.77-4.95.38-.42a6.29,6.29,0,0,0,1.24,1.45c2,1.85,4.18,1.65,6.21-.54s2-4.45.26-6c-5.83-5.38-13.79,7.65-21.6.45-3.53-3.26-3-8.52,1-12.94A12.72,12.72,0,0,1,286.9,271.25Z"/><path class="cls-1" d="M260.85,311.31c4,7.7.68,15.81-6.26,19.44-5.19,2.71-10.83,2.38-14.56-.84l2.32-6.24c2,5.1,7.29,8.22,12,5.75,5.06-2.65,5.42-9.15,2.49-14.74-3.77-7.21-10-10.07-15.55-7.14-5,2.61-5.2,6.77-4.82,9l-1,.53-3.38-6.47.57-.29,2.66.44a13.09,13.09,0,0,1,5.67-5.4C250.7,300.23,257.85,305.58,260.85,311.31Z"/><path class="cls-1" d="M226,327.84c2,8.58-2.87,15.49-11.08,17.4-8.62,2-16.16-2.06-18.15-10.6S200,319.12,208,317.25C216.49,315.27,224.08,319.37,226,327.84Zm-24.18,4.46c1.78,7.69,7.54,12.92,13.39,11.55,6.19-1.44,7.26-7.19,5.83-13.34-1.85-8-7.58-13.22-13.58-11.83S200.37,325.93,201.86,332.3Z"/><path class="cls-1" d="M178.53,341.4l3.29-16-2.26-3.21v-.37l6.35.18v.37l-2.43,3.07-3.91,19.48,1.28,4-4.68,1-5.56-19.78,0-1.51L165.72,345l.62,3.46-4.9,1-4.29-24.78-1.92-3.19v-.38l8.73.25v.37l-1.87,3.09,3,16.53,6.16-20.05,1.63,0Z"/><path class="cls-1" d="M146.09,319.23l-3,2.52L138.41,342l.74,3.35-.08.37L131.41,344l.08-.37,2.14-2.69,4.68-20.25-1.57-3.59.08-.37,9.36,2.17Z"/><path class="cls-1" d="M114.29,332.81l7.45-17.12L121,312l.15-.34,5.85,2.54-.13.32-3.42,2-8.23,18.92.68,3.84-.15.35L109.91,337l-4.71-21.09.42-2.29-6.49,14.9.81,3.73-.15.35L94,330.08l.15-.35,3.25-2,9.79-22.5,1.11.49Z"/><path class="cls-1" d="M76.44,300.86l-8-6,7.8-10.41.52.39-.12,3.55c2.73-.6,6.27.4,9.24,2.63,8.83,6.62,7.29,15.29,3.41,20.47-5.21,7-13.7,7.87-20.32,2.9-4.57-3.42-6.78-8.67-5.66-13.5l6.5-.61c-3.63,3.85-3.94,10.18.23,13.31,4.69,3.52,10.55.68,14.11-4.07,4.92-6.57,4.57-13.35-.42-17.09-4.42-3.31-8.53-1.86-11,1.38l4,6.72Z"/><path class="cls-1" d="M55.41,262.27l2.08,1.47.29.44-6.08,4.09-.68-1a7.64,7.64,0,0,0,1-10.09c-2.13-3.16-4.89-4.09-7.31-2.46-6.62,4.45,4,15.32-4.44,21-4.61,3.1-8.85,0-11-3.28-2.6-3.86-3-7.15-1.1-10l4.64,1.89.32.47a6.75,6.75,0,0,0-1.7.86c-2.25,1.52-2.57,3.7-.91,6.17s3.86,3,5.81,1.66c6.59-4.43-4.24-15.19,4.57-21.12,4-2.68,9-1,12.35,4A12.65,12.65,0,0,1,55.41,262.27Z"/><path class="cls-1" d="M29.26,245.07c-8.24,3.09-15.74-.85-18.69-8.74C7.46,228,10.52,220,18.73,217s15.8,1.1,18.69,8.82C40.48,234,37.41,242,29.26,245.07ZM21.7,221.66c-7.4,2.77-11.83,9.15-9.72,14.78,2.23,5.95,8.08,6.26,14,4.05,7.65-2.87,12.13-9.23,10-15S27.83,219.36,21.7,221.66Z"/><path class="cls-1" d="M15.81,204.14c-8.77.81-15-5-15.73-13.36-.8-8.81,4.26-15.73,13-16.53S28,179.49,28.76,187.69C29.56,196.39,24.47,203.35,15.81,204.14ZM14.7,179.57c-7.87.72-13.83,5.71-13.28,11.69.58,6.33,6.14,8.17,12.43,7.59C22,198.11,28,193.16,27.41,187S21.21,179,14.7,179.57Z"/><path class="cls-1" d="M6.24,156.1,24.7,159l3.43-1.66.38.06-1,6.32-.33,0-2.78-2.81L4,157.67.47,159.3l-.37-.05,1-6.32L20.28,143l2.32-.18L6.53,140.34l-3.4,1.74L2.75,142l1-6.24.37.06,2.73,2.64,24.25,3.74-.18,1.19Z"/><path class="cls-1" d="M23.45,115l-3.16-7.42,7.55-2.73L31,112.21Z"/></g></svg>