<svg xmlns="http://www.w3.org/2000/svg" viewBox="0 0 104.08 95.59"><defs><style>.cls-1{fill:#8a733e;}</style></defs><g id="Layer_1" data-name="Layer 1"><path class="cls-1" d="M51.9,44.66,40.2,24.09,52.11,3.74,63.8,24.21ZM41.36,24.1,51.91,42.65,62.64,24.21,52.1,5.74Z"/><path class="cls-1" d="M81.18,45.39,57.41,45.3l11.9-20.49,23.47-.07Zm-22-1.09,21.45.09L91.07,25.74l-21.18.07Z"/><path class="cls-1" d="M46.22,45.3l-23.77-.15L11.06,24.38l23.47.32ZM23,44.16l21.45.13L33.94,25.69l-21.18-.28Z"/><path class="cls-1" d="M67.42,18.48,62.14,9.19,67.51,0l5.28,9.25ZM63.29,9.2l4.14,7.27,4.21-7.23L67.5,2Z"/><path class="cls-1" d="M15.88,45.39,5.14,45.33,0,36l10.59.14ZM5.74,44.33l8.41.05L10,37.09,1.71,37Z"/><path class="cls-1" d="M83.56,19.09l-10.73,0,5.38-9.24,10.59,0Zm-9-1,8.41,0,4.11-7.31-8.31,0Z"/><path class="cls-1" d="M98.85,45.39l-10.74,0,5.38-9.25,10.59,0Zm-9-1,8.41,0,4.11-7.32-8.31,0Z"/><path class="cls-1" d="M36.58,18.48,31.21,9.25,36.49,0l5.37,9.19ZM32.36,9.24l4.21,7.23L40.71,9.2,36.5,2Z"/><path class="cls-1" d="M20.44,19.09,15.2,9.77l10.6,0,5.37,9.24Zm-3.53-8.31L21,18.09l8.41,0L25.22,10.8Z"/><path class="cls-1" d="M52,91.85,40.28,71.37,52.19,50.93,63.88,71.5ZM41.44,71.38,52,89.85,62.72,71.49,52.18,52.94Z"/><path class="cls-1" d="M11.3,70.85,22.9,50.2l23.77.09L34.77,70.78ZM23.48,51.2,13,69.84l21.18-.06L44.93,51.29Z"/><path class="cls-1" d="M93,71.2l-23.47-.31L57.86,50.29l23.77.15ZM70.14,69.9l21.18.28L81,51.43,59.59,51.3Z"/><path class="cls-1" d="M36.57,95.59l-5.28-9.25,5.37-9.23,5.28,9.29Zm-4.13-9.24,4.14,7.24,4.21-7.2-4.14-7.27Z"/><path class="cls-1" d="M104.08,59.64l-10.6-.15-5.27-9.3,10.73.07Zm-10-1.14,8.3.11-4-7.35-8.41-.06Z"/><path class="cls-1" d="M15.28,85.81l5.24-9.32,10.73.05-5.37,9.24ZM21.1,77.5,17,84.81l8.31,0,4.21-7.25Z"/><path class="cls-1" d="M0,59.52,5.24,50.2l10.73,0-5.38,9.25ZM5.82,51.2,1.71,58.51l8.31,0,4.21-7.26Z"/><path class="cls-1" d="M67.59,95.59,62.22,86.4l5.28-9.29,5.37,9.23Zm-4.22-9.2,4.21,7.2,4.14-7.24-4.21-7.23Z"/><path class="cls-1" d="M88.88,85.81l-10.6,0-5.37-9.24,10.73-.05Zm-10-1,8.31,0L83.06,77.5l-8.41,0Z"/></g></svg>