<svg id="Capa_1" data-name="Capa 1" xmlns="http://www.w3.org/2000/svg" viewBox="0 0 511.96 511.96"><defs><style>.cls-1{fill:#998651;}</style></defs><path class="cls-1" d="M210.62,240.62c10.63-5.34,18.66-11.3,24.16-17.73,9.8-11.58,14.63-26.94,14.63-46,0-18.53-4.83-34.37-14.5-47.65Q210.72,96.82,152.9,96H0v312.1H142.56a222.59,222.59,0,0,0,44.7-4.2Q207.9,399.62,223,388.2a86.39,86.39,0,0,0,22.4-24.54q14.11-22,14.11-49.76,0-26.88-12.32-45.73T210.62,240.62ZM63.07,150.19h68.87q22.69,0,37.4,4.86c11.33,4.7,17,14.27,17,28.86,0,13.09-4.32,22.24-12.87,27.4s-19.77,7.74-33.47,7.74H63.07ZM172,348.43c-7.62,3.68-18.34,5.5-32.07,5.5H63.07V270.7H141c13.57.1,24.13,1.89,31.68,5.25,13.44,6.08,20.13,17.21,20.13,33.5C192.77,328.65,185.86,341.58,172,348.43Z"/><rect class="cls-1" x="327.17" y="110.54" width="135.58" height="38.85"/><path class="cls-1" d="M509.86,263.85q-4.23-27.12-18.69-47.71Q475.29,192.82,450.78,182t-55-10.82q-51.4,0-83.64,32t-32.23,92q0,64,35.75,92.39T398,416q56.58,0,88-33.63,20.11-21.23,22.65-41.73H446.24a50.44,50.44,0,0,1-12.61,15.87q-13,10.56-33.92,10.56c-13.21,0-24.41-2.91-33.76-8.7-15.42-9.28-23.49-25.54-24.51-48.67H511.9C512.16,289.74,511.52,274.41,509.86,263.85Zm-166.88,6q3.36-22.5,16.32-35.71c8.64-8.77,20.86-13.18,36.51-13.21,14.43,0,26.49,4.12,36.32,12.41s15.17,20.48,16.29,36.51Z"/></svg>