<svg id="Capa_1" data-name="Capa 1" xmlns="http://www.w3.org/2000/svg" viewBox="0 0 186.85 186.85"><defs><style>.cls-1{fill:#998651;}</style></defs><path class="cls-1" d="M93.42,0a93.43,93.43,0,1,0,93.43,93.42A93.53,93.53,0,0,0,93.42,0ZM154.3,44.06a78,78,0,0,1,17.48,47,132,132,0,0,0-52.55-.51c-2.81-6.57-5.72-12.84-8.66-18.76C127.49,64.48,142.21,55.17,154.3,44.06ZM143.78,33.37c-12,11-25.91,19.06-40.16,25.05A358.87,358.87,0,0,0,77.07,16.73a78.19,78.19,0,0,1,66.71,16.64ZM61.92,21.63A342.76,342.76,0,0,1,89.26,63.76C59.67,73.39,31,75,17.17,75.17A78.71,78.71,0,0,1,61.92,21.63ZM15.08,90.21h.44a271.15,271.15,0,0,0,47.56-4.39,231.06,231.06,0,0,0,33.29-8.59c2.72,5.42,5.42,11.13,8,17.12a141.12,141.12,0,0,0-36.7,18.19,165.2,165.2,0,0,0-34.1,31.52A78,78,0,0,1,15,93.42C15,92.35,15,91.28,15.08,90.21Zm29.34,64.37a150.74,150.74,0,0,1,32.23-30,126,126,0,0,1,33.44-16.44,291.39,291.39,0,0,1,15.75,56.64,78.12,78.12,0,0,1-81.42-10.22Zm95.22,2.15a310.82,310.82,0,0,0-14.74-52.12,118,118,0,0,1,45.9,1.55A78.54,78.54,0,0,1,139.64,156.73Z"/></svg>