<svg xmlns="http://www.w3.org/2000/svg" viewBox="0 0 1977.06 68.64"><defs><style>.cls-1{isolation:isolate;}.cls-2{fill:#8a733e;}</style></defs><g id="Layer_1" data-name="Layer 1"><g class="cls-1"><path class="cls-2" d="M17.64,4.5V29.07H28.89l7.2-4.23h1.08V38.52h-1l-7.29-5.85H17.64V59l5.94,7.47v.9H.36v-.9L5.94,59V9.63L0,2.16v-.9H45.18l3.24,14.49H46.8L34.2,4.5Z"/><path class="cls-2" d="M59.94,34.38C59.94,13.41,75,0,95,0,116.1,0,131.4,13.5,131.4,34.38c0,20.61-15.66,34.29-35.28,34.29C75.33,68.67,59.94,55.08,59.94,34.38Zm58.5,2.7c0-18.81-10.53-34-24.84-34-15.12,0-20.7,12.78-20.7,27.81C72.9,50.31,83.34,65.61,98,65.61,112.5,65.61,118.44,52.65,118.44,37.08Z"/><path class="cls-2" d="M147.24,66.6l5-7.47V9.9l-5.22-7.83V1.26H169.2v.81l-5.22,8V64h10.44c6.48,0,11-4,12.24-10.89l9.9,7.29c-1.71,3.33-5.94,7-21.24,7H147.24Z"/><path class="cls-2" d="M210.78,66.6l5-7.47V9.9L210.6,2.07V1.26h22.14v.81l-5.22,8V64H238c6.48,0,11-4,12.24-10.89l9.9,7.29c-1.71,3.33-5.94,7-21.24,7H210.78Z"/><path class="cls-2" d="M269.46,34.38c0-21,15-34.38,35.1-34.38,21.06,0,36.35,13.5,36.35,34.38,0,20.61-15.65,34.29-35.27,34.29C284.85,68.67,269.46,55.08,269.46,34.38Zm58.5,2.7c0-18.81-10.53-34-24.84-34-15.12,0-20.7,12.78-20.7,27.81,0,19.44,10.44,34.74,25.11,34.74C322,65.61,328,52.65,328,37.08Z"/><path class="cls-2" d="M354.6,9.36l-4.5-7.29V1.26h20.07v.81l-3.6,7.29L380,50l8.37-31L382.68,2.07V1.26h17.9v.81l-2.34,8.37,11,40.05L422.81,9.36,418,2.07V1.26h14.13v.81l-5,7.29L406.79,68.67h-4L390.69,25.83,379,68.67h-3.78Z"/><path class="cls-2" d="M493.82,20.61,487.07,59l5.58,7.47v.9H477.53v-.9L483.11,59l8-46.62-3.33-9.36L498.86.36l14.58,46.71v3.6l10.62-39.42-1.71-8.19L534,.36,545.84,59l4.77,7.47v.9H529.82v-.9L534.05,59l-8.19-39.15L512.54,68h-3.87Z"/><path class="cls-2" d="M619.46,62.91c-3.87,3.24-8,4.5-24.39,4.5H566.54v-.9l5.13-7.38V9.63L565.1,2.16v-.9h45.81l3.24,14.49h-1.71L599.93,4.5H583.37V29h11.7l7.2-4.5h1.08V39.15h-1l-7.29-6.57h-11.7V64h8.55c9.9,0,15-3,18.45-10.62Z"/></g><g class="cls-1"><path class="cls-2" d="M667.6,34.2l12.15-12.75,12,12.75L679.75,47Z"/></g><g class="cls-1"><path class="cls-2" d="M736.09,54.51a13.57,13.57,0,0,1,3.78-9.63l10.35,6.84a7.28,7.28,0,0,0-4.05,6.75c0,4.5,3.51,7.38,8.54,7.38,6.66,0,9.81-4.41,9.81-13.77V9.42l-9.81-7.29v-.9h26.1v.9l-4.59,7.38V50.28c0,8-5,18.36-22,18.36C749,68.64,736.09,66.75,736.09,54.51Z"/><path class="cls-2" d="M801.87,48V9.42l-4.14-7.29v-.9h20.16v.9l-4.32,7.29V47.31c0,11.79,6.75,17.1,14.76,17.1,8.55,0,14.22-5.94,14.22-15.3V9.42l-5.22-7.29v-.9h15.48v.9L847.5,9.42V48.48c0,12.33-8.1,20.16-21,20.16C810.69,68.64,801.87,63,801.87,48Z"/><path class="cls-2" d="M877.11,65.22l-5.67,2.16h-1.26V49.92h2.88c1.8,9.36,9,15.3,18.63,15.3,9.09,0,14.58-4.23,14.58-11.16,0-19-35.55-12.51-35.55-36.63C870.72,4.2,882.51,0,891.87,0,902.94,0,910,3.57,913,11l-9.9,6.66h-1.35a15.3,15.3,0,0,0,.54-4.5c0-6.48-3.87-10-11-10s-11,3.69-11,9.27c0,18.9,35.64,11.79,35.64,37.08,0,11.43-10,19.08-24.3,19.08A30.1,30.1,0,0,1,877.11,65.22Z"/><path class="cls-2" d="M943.17,66.57l5.4-7.56V4.47h-8.46L927.78,17.61h-1.17l3.33-16.38h49l3.33,16.38h-1.17L968.73,4.47h-8.46V59l5.4,7.56v.81h-22.5Z"/><path class="cls-2" d="M1030.47,34.35c0-21,15-34.38,35.1-34.38,21.06,0,36.36,13.5,36.36,34.38,0,20.61-15.66,34.29-35.28,34.29C1045.86,68.64,1030.47,55.05,1030.47,34.35Zm58.5,2.7c0-18.81-10.53-34-24.84-34-15.12,0-20.7,12.78-20.7,27.81,0,19.44,10.44,34.74,25.11,34.74C1083,65.58,1089,52.62,1089,37.05Z"/><path class="cls-2" d="M1128.75,14.55V59l5.13,7.47v.9h-15.21v-.81l5.58-7.56V9.87l-5.13-7.74v-.9h15.21l30.33,41.58,1.26,5.4V9.51l-5.31-7.38v-.9h15v.9l-5.22,7.38V67.92h-2.88Z"/><path class="cls-2" d="M1246.29,62.88c-3.87,3.24-8,4.5-24.39,4.5h-28.53v-.9l5.13-7.38V9.6l-6.57-7.47v-.9h45.81L1241,15.72h-1.71L1226.76,4.47H1210.2V29h11.7l7.2-4.5h1.08V39.12h-1l-7.29-6.57h-11.7V64h8.55c9.9,0,15-3,18.45-10.62Z"/><path class="cls-2" d="M1295.07,34.08c0-20.7,16-34.11,34.65-34.11,14,0,25.47,6.93,29.79,17.82l-11.79,10.62c1.44-13-6.3-25.38-19-25.38-13.59,0-21.51,13.32-21.51,28.35,0,19.35,9.9,32.22,24.93,32.22,13.41,0,18.45-8.55,20.07-13.59h2.7V67.38h-1.53l-5.13-3.87a31.13,31.13,0,0,1-17.91,5.13C1304.25,68.64,1295.07,49.47,1295.07,34.08Z"/><path class="cls-2" d="M1373.55,66.57l5-7.47V9.87L1373.37,2V1.23h22.14V2l-5.22,8V64h10.44c6.48,0,11-4,12.24-10.89l9.9,7.29c-1.71,3.33-5.94,7-21.24,7h-28.08Z"/><path class="cls-2" d="M1437.81,66.48l5.58-7.47V9.51l-3.51-7.38v-.9h18.72v.9l-3.51,7.38V59l5.58,7.47v.9h-22.86Z"/><path class="cls-2" d="M1476.33,34.08c0-20.7,16-34.11,34.65-34.11,14,0,25.46,6.93,29.78,17.82L1529,28.41c1.43-13-6.3-25.38-19-25.38-13.59,0-21.51,13.32-21.51,28.35,0,19.35,9.9,32.22,24.93,32.22,13.4,0,18.44-8.55,20.06-13.59h2.7V67.38h-1.53l-5.12-3.87a31.14,31.14,0,0,1-17.92,5.13C1485.51,68.64,1476.33,49.47,1476.33,34.08Z"/><path class="cls-2" d="M1610.69,70.35h-2.07l-14-5L1574,32.19l-2.25,2.07V59l5.4,7.47v.9h-22.5v-.9L1560,59V9.51l-4.86-7.38v-.9h21.6v.9l-5,7.38V28.86l21.32-19.53-4-7.2v-.9h19.08v.9l-9.09,7.38-21.86,19.8h8.09Z"/><path class="cls-2" d="M1714.73,66.57v.81H1693v-.81l4.41-7.56-6.12-14.85h-19.89L1665.5,59l5,7.47v.9H1654.8v-.9l6-7.47,17.82-44.55-4.05-9.9L1686.11.33,1709.69,59Zm-24.93-26-8.73-21.15-8.28,21.15Z"/><path class="cls-2" d="M1721.39,9.33,1716.89,2V1.23H1737V2l-3.6,7.29,13.41,40.59,8.37-31L1749.47,2V1.23h17.91V2L1765,10.41l11,40.05,13.59-41.13L1784.84,2V1.23H1799V2l-5,7.29-20.34,59.31h-4L1757.48,25.8l-11.7,42.84H1742Z"/><path class="cls-2" d="M1858.73,66.57v.81H1837v-.81l4.41-7.56-6.12-14.85h-19.89L1809.5,59l5,7.47v.9h-15.75v-.9l6-7.47,17.82-44.55-4.05-9.9L1830.11.33,1853.69,59Zm-24.93-26-8.73-21.15-8.28,21.15Z"/><path class="cls-2" d="M1883.75,66.48l5.49-7.47V36.24L1869.53,2V1.23h22.41V2l-4.86,7.38L1898.78,30l12.33-20.61L1906.16,2V1.23h14.49V2l-19.71,32.49V59l5.13,7.47v.9h-22.32Z"/></g><g class="cls-1"><path class="cls-2" d="M1952.91,34.2l12.15-12.75,12,12.75-12,12.75Z"/></g></g></svg>