<svg xmlns="http://www.w3.org/2000/svg" viewBox="0 0 428.83 63.34"><defs><style>.cls-1{fill:#8a733e;}</style></defs><g id="Layer_1" data-name="Layer 1"><path class="cls-1" d="M32,61.26H27.81L15.12,20.71,9.51,52.63l4.93,6.6V60.7H0V59.23l5-6.68,7.07-41.19L9,2.64,19.8,0,32.85,41.81l8.5-31.55-1.6-7.64L51.05,0,61.69,52.57,66,59.25V60.7H46.48V59.27l3.73-6.59-6.82-32.6Zm-3.45-1h2.69L43.53,15.84l7.74,37-3.79,6.69v.17H65v-.16l-4.23-6.68L50.27,1.2,40.93,3.37l1.44,6.92,0,.12L31.92,49.1V42.19l-12.8-41L10.28,3.35l2.82,7.92,0,.13L5.93,53,1,59.56v.14H13.44v-.14l-5-6.68,6.39-36.39Z"/><path class="cls-1" d="M103.4,60.7H82.56V59.23l4.88-6.64V32.65L69.92,2.25V.9H90.84V2.27L86.61,8.7,96.43,26,106.79,8.69l-4.31-6.42V.9h13.88V2.26l-.07.12L98.84,31.14V52.6l4.56,6.64Zm-19.84-1H102.4v-.15l-4.56-6.64v-22l.07-.12L115.36,2V1.9H103.48V2L108,8.66,96.41,28l-11-19.33L89.84,1.9H70.92V2l17.52,30.4V52.92l-4.88,6.64Z"/><path class="cls-1" d="M206.46,61.82H202.2L191.79,25.1l-10,36.72h-4.1l-18.42-53-4-6.55V.9H174V2.23l-3.16,6.4,11.33,34.31,7-25.77-5-15V.9h16.92l0,1.35-2,7.31,9.28,33.87L219.79,8.67l-4.19-6.4V.9h13.56V2.27l-4.53,6.55Zm-3.5-1h2.78l18-52.45,4.43-6.47H216.6V2l4.29,6.56L208.22,46.89,198,9.56l2.1-7.66H185.16V2l5.06,15.1,0,.15-7.87,29.13L169.8,8.56,173,1.9H156.2V2l4,6.45,18.2,52.39H181l10.77-39.45Z"/><path class="cls-1" d="M268.82,61.82c-19.23,0-32.66-12.74-32.66-31s13-31.06,31.7-31.06c19.32,0,32.82,12.77,32.82,31.06C300.68,48.79,287.28,61.82,268.82,61.82Zm-1-61c-18.08,0-30.7,12.36-30.7,30.06s13,30,31.66,30c17.88,0,30.86-12.61,30.86-30C299.68,12.86,286.89.78,267.86.78ZM270.5,59.1c-13,0-22.82-13.49-22.82-31.38,0-16,6.89-25.22,18.9-25.22,12.66,0,22.58,13.5,22.58,30.74C289.16,49.43,282.18,59.1,270.5,59.1ZM266.58,3.5c-6.69,0-17.9,3.14-17.9,24.22,0,17.32,9.38,30.38,21.82,30.38,5.31,0,17.66-2.42,17.66-24.86C288.16,16.56,278.68,3.5,266.58,3.5Z"/><path class="cls-1" d="M366.21,63.26l-2.69,0-12-4.61L333.58,30.78h-1.86V52.6l4.8,6.64V60.7H315.36V59.23l5-6.64V9l-5.2-6.72V.9h18.82c6.27,0,25.38,0,25.38,15,0,9-6.81,14.24-19.24,14.84l6.9,2.34Zm-2.42-1h.6L346.33,33.89l-12.15-4.11h3.44c17.11,0,20.7-7.56,20.7-13.9,0-14-18.35-14-24.38-14L316.12,2l5.2,6.72V52.92l-5,6.64v.14h19.16v-.14l-4.8-6.64V29.78h3.41l18.06,28ZM335.06,27.9h-4.34V3.78h3.22c10.36,0,15.62,3.8,15.62,11.3C349.56,23.82,345,27.9,335.06,27.9Zm-3.34-1h3.34c9.33,0,13.5-3.65,13.5-11.82,0-6.93-4.79-10.3-14.62-10.3h-2.22Z"/><path class="cls-1" d="M428.83,63.34l-2.9,0-12.65-4.54L395.19,29.69,393.8,31V52.6l4.8,6.64V60.7h-21V59.24l4.8-6.64V8.91l-4.32-6.56V.9h20.2V2.35L393.8,8.91V24.82L411.63,8.49l-3.39-6.16V.9h18V2.44l-8.27,6.71L399.47,25.86h6.18Zm-2.65-1H427L405.1,26.86h-8.22l20.4-18.47L425.2,1.9h-16v.17l3.64,6.63L392.8,27.09V8.6L397.28,2V1.9h-18.2v.15l4.32,6.56V52.92l-4.8,6.64v.14h19v-.14l-4.8-6.64V30.54l2.6-2.4L414,58Z"/></g></svg>