<?xml version="1.0" encoding="utf-8"?>
<!-- Generator: Adobe Illustrator 25.1.0, SVG Export Plug-In . SVG Version: 6.00 Build 0)  -->
<svg version="1.1" id="Layer_1" xmlns="http://www.w3.org/2000/svg" xmlns:xlink="http://www.w3.org/1999/xlink" x="0px" y="0px"
	 viewBox="0 0 511 511" style="enable-background:new 0 0 511 511;" xml:space="preserve">
<style type="text/css">
	.st0{fill:#8A733E;}
</style>
<path class="st0" d="M510.5,150.2c-1.2-27.2-5.6-45.8-11.9-62c-13.3-34.3-40.4-61.5-74.8-74.8c-16.3-6.3-34.9-10.7-62-11.9
	C334.5,0.3,325.8,0,256.5,0s-78.1,0.3-105.3,1.5s-45.8,5.6-62,11.9C72,19.8,56.6,29.9,43.8,42.9c-13,12.8-23,28.2-29.5,45.2
	c-6.3,16.3-10.7,34.8-11.9,62c-1.3,27.4-1.6,36-1.6,105.4s0.3,78.1,1.5,105.3s5.6,45.8,11.9,62c6.4,17.1,16.5,32.5,29.5,45.3
	c12.8,13,28.2,23,45.2,29.4c16.3,6.3,34.8,10.7,62,11.9s36,1.5,105.4,1.5s78.1-0.3,105.3-1.5s45.8-5.6,62-11.9
	c34.3-13.3,61.5-40.4,74.8-74.8c6.3-16.3,10.7-34.8,11.9-62s1.5-35.9,1.5-105.3S511.7,177.5,510.5,150.2z M464.5,358.9
	c-1.1,25-5.3,38.4-8.8,47.4c-8.6,22.3-26.2,39.9-48.5,48.5c-9,3.5-22.6,7.7-47.4,8.8c-27,1.2-35,1.5-103.2,1.5s-76.4-0.3-103.2-1.5
	c-25-1.1-38.4-5.3-47.4-8.8c-11.1-4.1-21.1-10.6-29.3-19.1c-8.5-8.2-15-18.3-19.1-29.3c-3.5-9-7.7-22.6-8.8-47.4
	c-1.2-27-1.5-35-1.5-103.2s0.3-76.4,1.5-103.2c1.1-25,5.3-38.4,8.8-47.4C61.6,94,68.1,84,76.7,75.8c8.2-8.5,18.3-15,29.3-19.1
	c9-3.5,22.6-7.7,47.4-8.8c26.9-1.2,35-1.5,103.2-1.5s76.4,0.3,103.2,1.5c25,1.1,38.4,5.3,47.4,8.8c11.1,4.1,21.1,10.6,29.4,19.1
	c8.5,8.2,15,18.3,19.1,29.4c3.5,9,7.7,22.5,8.8,47.4c1.2,26.9,1.5,35,1.5,103.2S465.7,331.9,464.5,358.9L464.5,358.9z"/>
<path class="st0" d="M256.5,124.3c-72.5,0-131.3,58.8-131.3,131.3S184,386.8,256.4,386.8S387.7,328,387.7,255.6l0,0
	C387.7,183.1,328.9,124.3,256.5,124.3z M256.5,340.7c-47,0-85.2-38.1-85.2-85.1s38.1-85.2,85.1-85.2s85.2,38.1,85.2,85.1v0
	C341.6,302.6,303.5,340.7,256.5,340.7z"/>
<path class="st0" d="M423.6,119.1c0,16.9-13.7,30.7-30.6,30.7c-16.9,0-30.7-13.7-30.7-30.6s13.7-30.7,30.6-30.7c0,0,0,0,0,0
	C409.8,88.5,423.5,102.2,423.6,119.1z"/>
</svg>
