<svg id="Layer_1" data-name="Layer 1" xmlns="http://www.w3.org/2000/svg" viewBox="0 0 511 511"><defs><style>.cls-1{fill:#998651;}</style></defs><path class="cls-1" d="M510.5,150.24c-1.2-27.16-5.59-45.82-11.88-62a130.86,130.86,0,0,0-74.77-74.76C407.58,7.19,389,2.8,361.86,1.6,334.51.3,325.83,0,256.45,0S178.39.3,151.13,1.5s-45.81,5.59-62,11.87A124.84,124.84,0,0,0,43.82,42.92,125.81,125.81,0,0,0,14.37,88.15C8.08,104.42,3.69,123,2.5,150.13,1.2,177.49.9,186.17.9,255.55s.3,78.06,1.49,105.31,5.6,45.82,11.89,62a125.86,125.86,0,0,0,29.54,45.32A125.75,125.75,0,0,0,89,497.62c16.28,6.29,34.84,10.68,62,11.88S187,511,256.35,511s78.06-.3,105.31-1.5,45.82-5.59,62-11.88a130.68,130.68,0,0,0,74.77-74.76c6.29-16.28,10.68-34.84,11.88-62s1.5-35.93,1.5-105.31S511.7,177.49,510.5,150.24Zm-46,208.63c-1.1,24.95-5.29,38.43-8.78,47.41a84.78,84.78,0,0,1-48.52,48.52c-9,3.49-22.56,7.69-47.41,8.78-27,1.2-35,1.5-103.22,1.5s-76.37-.3-103.22-1.5c-25-1.09-38.43-5.29-47.42-8.78a78.44,78.44,0,0,1-29.34-19.07A79.32,79.32,0,0,1,57.5,406.39c-3.5-9-7.69-22.57-8.78-47.42-1.21-27-1.5-35-1.5-103.22s.29-76.37,1.5-103.22c1.09-25,5.28-38.43,8.78-47.41A77.56,77.56,0,0,1,76.67,75.76,79.34,79.34,0,0,1,106,56.7c9-3.49,22.57-7.68,47.42-8.78,26.95-1.2,35-1.5,103.22-1.5s76.36.3,103.22,1.5c24.95,1.1,38.43,5.29,47.41,8.78a78.58,78.58,0,0,1,29.35,19.06,79.44,79.44,0,0,1,19.07,29.36c3.49,9,7.68,22.55,8.78,47.41,1.2,26.95,1.5,35,1.5,103.22S465.68,331.92,464.48,358.87Z"/><path class="cls-1" d="M256.45,124.28A131.27,131.27,0,1,0,387.72,255.55,131.31,131.31,0,0,0,256.45,124.28Zm0,216.42a85.15,85.15,0,1,1,85.15-85.15A85.16,85.16,0,0,1,256.45,340.7Z"/><path class="cls-1" d="M423.56,119.09a30.65,30.65,0,1,1-30.65-30.64A30.66,30.66,0,0,1,423.56,119.09Z"/></svg>