<svg xmlns="http://www.w3.org/2000/svg" viewBox="0 0 25 25"><defs><style>.cls-1{fill:#fff5df;}</style></defs><g id="Layer_1" data-name="Layer 1"><path class="cls-1" d="M19.66,18.81h-11L8.35,17.7H20.86L24.51,5.79H5L3.47.37H0v1.5H2.33L7.19,19.12a2.91,2.91,0,1,0,4.21,2.6A2.84,2.84,0,0,0,11,20.31h6.12a2.84,2.84,0,0,0-.39,1.41,2.92,2.92,0,1,0,2.92-2.91ZM7.93,16.2l-.57-2h13l-.62,2ZM6.41,10.81h15l-.57,1.87H6.93ZM22.48,7.29l-.62,2H6l-.57-2ZM9.9,21.72a1.42,1.42,0,1,1-1.42-1.41h0A1.42,1.42,0,0,1,9.9,21.72Zm9.76,1.41a1.41,1.41,0,1,1,0-2.82h0a1.41,1.41,0,1,1,0,2.82Z"/></g></svg>