<svg xmlns="http://www.w3.org/2000/svg" viewBox="0 0 100 90"><defs><style>.cls-1{fill:none;stroke:#998651;stroke-miterlimit:10;stroke-width:1.5px;}</style></defs><g id="Layer_1" data-name="Layer 1"><polyline class="cls-1" points="75.47 88.96 24.52 88.96 24.52 54.15"/><line class="cls-1" x1="75.48" y1="39.08" x2="75.48" y2="59.63"/><polyline class="cls-1" points="24.52 19.27 24.52 1.04 75.47 1.04 75.47 6.11"/><path class="cls-1" d="M29.53,19.26V6.11h5.76a1,1,0,0,1,1,1V9.17a1,1,0,0,0,1,1H65.07V6.11h5"/><polyline class="cls-1" points="51.11 83.11 29.53 83.11 29.53 58.13"/><line class="cls-1" x1="70.05" y1="43.38" x2="70.05" y2="59.63"/><polygon class="cls-1" points="1 19.27 1 53.65 23.9 53.65 35.61 62.96 35.61 53.65 41.46 53.65 41.46 19.27 1 19.27"/><polygon class="cls-1" points="98.97 6.11 98.97 35.44 80.05 35.44 70.07 43.38 70.07 35.44 65.07 35.44 65.07 6.11 98.97 6.11"/><path class="cls-1" d="M32.73,32.86a6.5,6.5,0,0,0-11.5-4.17,6.5,6.5,0,1,0-9.17,9.15L21.23,47l9.17-9.17A6.49,6.49,0,0,0,32.73,32.86Z"/><circle class="cls-1" cx="82.44" cy="16.1" r="5.48"/><path class="cls-1" d="M81.25,21.58h1.54a8.74,8.74,0,0,1,8.74,8.74v0a0,0,0,0,1,0,0h-19a0,0,0,0,1,0,0v0A8.74,8.74,0,0,1,81.25,21.58Z"/><polygon class="cls-1" points="85.62 88.96 85.62 59.63 66.09 59.63 56.11 51.69 56.11 59.63 51.11 59.63 51.11 88.96 85.62 88.96"/><rect class="cls-1" x="58.74" y="72.25" width="5.28" height="12.03"/><path class="cls-1" d="M70.93,70.88V65.65a2,2,0,0,0-2-2H66.57v4.89L64,72.24h0v12H75.87l2.92-13.39Z"/></g></svg>