<svg xmlns="http://www.w3.org/2000/svg" viewBox="0 0 100 90"><defs><style>.cls-1{fill:none;stroke:#998651;stroke-miterlimit:10;stroke-width:1.5px;}</style></defs><g id="Layer_1" data-name="Layer 1"><path class="cls-1" d="M75,60.44,50,16.67,25,60.44h0l1.67,1.49a20.72,20.72,0,0,1,7,15.5V89H66.32V77.43a20.72,20.72,0,0,1,7-15.5L75,60.44Z"/><line class="cls-1" x1="50" y1="16.67" x2="50" y2="53.04"/><circle class="cls-1" cx="50" cy="57.8" r="4.76"/><rect class="cls-1" x="33.68" y="77.43" width="32.65" height="11.53"/><path class="cls-1" d="M54.17,6a40.78,40.78,0,0,1,36.6,40.57"/><path class="cls-1" d="M9.23,46.58A40.79,40.79,0,0,1,45.54,6"/><rect class="cls-1" x="45.54" y="1.34" width="8.92" height="8.92"/><rect class="cls-1" x="4.76" y="46.58" width="8.92" height="8.92"/><rect class="cls-1" x="86.31" y="46.58" width="8.92" height="8.92"/><line class="cls-1" x1="54.46" y1="5.8" x2="89.47" y2="5.8"/><line class="cls-1" x1="10.53" y1="5.8" x2="45.54" y2="5.8"/><circle class="cls-1" cx="94.24" cy="5.8" r="4.76"/><circle class="cls-1" cx="5.76" cy="5.8" r="4.76"/></g></svg>