<svg xmlns="http://www.w3.org/2000/svg" width="889.229" height="457.38" viewBox="0 0 889.229 457.38">
  <g id="Group_1039" data-name="Group 1039" transform="translate(-8172.075 -7278)">
    <g id="Website_Logo_Desktop_1920" transform="translate(8063 7278.47)">
      <path id="Path_3595" data-name="Path 3595" d="M359.81,335.19,348,331.94l3.91-11.69,11.85,3.35Zm-10.14-4.14,9.31,2.56,3.12-9.13-9.34-2.64Z" fill="#7e844a"/>
      <path id="Path_3596" data-name="Path 3596" d="M374.73,381.55l-7.06-8.21.94-.81,3.88-.27,15.38-13.21,1.38-3.12.89-.76,5.93,6.91-.89.76-3.29.9L376.52,377l-.85,3.79Zm-5-7.8,4.89,5.69.71-3.2,15.93-13.68,2.84-.77-4-4.63-1.19,2.68L373,373.53Z" fill="#7e844a"/>
      <path id="Path_3597" data-name="Path 3597" d="M402.67,405.5c-2,0-4.47-1.32-7.61-4.09l-9.26-8.17.78-.89,3.64-1,13.32-15.09.52-3.88.79-.89,7.89,7-.78.89-3.84,1.06-14.31,16.22,2.78,2.45c1.8,1.59,3.93,1.58,6-.05l.82-.65,1.42,6.57-.51.2A4.31,4.31,0,0,1,402.67,405.5Zm-14.78-12.15,8,7.09c4,3.56,6.14,3.95,7.39,3.7l-.75-3.47a5.5,5.5,0,0,1-6.83-.57l-3.7-3.31,15.4-17.49,3.26-.9-5.44-4.8-.45,3.28-13.84,15.68Z" fill="#7e844a"/>
      <path id="Path_3598" data-name="Path 3598" d="M432.36,426.19c-1.89,0-4.26-.93-7.33-2.86l-10.47-6.56.63-1,3.43-1.52,10.68-17.06-.11-3.92.63-1,8.92,5.59-.62,1-3.62,1.68L423,418.86l3.14,2c2,1.28,4.14.92,5.91-1l.7-.77,2.47,6.24-.48.29a4.57,4.57,0,0,1-2.38.57Zm-15.72-9.64,9.08,5.68c4.57,2.86,6.7,2.9,7.89,2.45l-1.31-3.3a5.51,5.51,0,0,1-6.83.54l-4.24-2.65,12.37-19.76,3.07-1.42-6.15-3.86.09,3.31-11.1,17.73Z" fill="#7e844a"/>
      <path id="Path_3599" data-name="Path 3599" d="M462.48,441.57a11.089,11.089,0,0,1-4.18-.88c-6.81-2.78-9-6.93-6.63-12.68l6-14.75-.45-3.46.45-1.11,9,3.67-.45,1.11-2.82,2.13-5.9,14.46a7,7,0,0,0-.35,5.21,5.21,5.21,0,0,0,3,2.87c3,1.23,5.72,0,7.05-3.31l6.17-15.13-.86-3.63.46-1.14,7.18,2.92-.47,1.15-3.19,2-6.08,14.88C468.91,439.55,466,441.57,462.48,441.57Zm-9.6-13.07c-2.08,5.08-.25,8.47,5.91,11,4.62,1.88,8.61.3,10.42-4.12l6.23-15.28,2.69-1.66L474,416.75l.73,3.06-6.33,15.51c-1.58,3.89-5.1,5.51-8.74,4a6.48,6.48,0,0,1-3.72-3.59,8.31,8.31,0,0,1,.36-6.18l6-14.79,2.4-1.81-6.09-2.49.38,3Z" fill="#7e844a"/>
      <path id="Path_3600" data-name="Path 3600" d="M498.08,452.41a15.062,15.062,0,0,1-3.33-.38,13.37,13.37,0,0,1-5.69-2.65l-2.32.35-1.26-.28,1.84-8.38,2.34.51v.54a6.92,6.92,0,0,0,5.7,7.25,6.63,6.63,0,0,0,4.21-.21,3.44,3.44,0,0,0,1.95-2.53c.71-3.21-1.89-5.05-4.91-7.18-3.52-2.48-7.51-5.3-6.27-10.92a7.14,7.14,0,0,1,4.51-5.41,11.61,11.61,0,0,1,6.45-.29c4.77,1.05,7.5,3.38,8.11,6.92l.09.53-5.3,2.09-1.6-.37.4-.76a5.532,5.532,0,0,0,.56-1.62c.5-2.27-.53-3.71-3.08-4.28a4.46,4.46,0,0,0-3.09.24,2.93,2.93,0,0,0-1.43,2.06c-.7,3.14,1.86,4.93,4.82,7,3.59,2.51,7.67,5.36,6.35,11.3a7.79,7.79,0,0,1-4.35,5.47,10.9,10.9,0,0,1-4.7,1Zm-8.6-4.4.22.21a11.87,11.87,0,0,0,5.33,2.54,11.14,11.14,0,0,0,7.19-.51,6.48,6.48,0,0,0,3.65-4.58c1.12-5.09-2.41-7.56-5.83-9.95-3.07-2.14-6.23-4.35-5.35-8.34a4.24,4.24,0,0,1,2.07-2.92,5.7,5.7,0,0,1,4-.36c3.25.71,4.73,2.84,4.07,5.82a7.312,7.312,0,0,1-.23.88l3.4-1.34c-.69-2.72-3-4.48-7-5.37a10.39,10.39,0,0,0-5.7.25,5.8,5.8,0,0,0-3.71,4.47c-1,4.78,2.25,7.11,5.75,9.58,3.11,2.19,6.33,4.47,5.43,8.52a4.74,4.74,0,0,1-2.67,3.43,7.92,7.92,0,0,1-5,.3,8.22,8.22,0,0,1-6.72-8h0l-1.26,5.75Z" fill="#7e844a"/>
      <path id="Path_3601" data-name="Path 3601" d="M536.38,456.91l-10.66-.64.07-1.19,2.43-3,1.31-21.85-2.59-.15-5.46,5.16-1.56-.1,2.14-8,21.43,1.29,1.17,8.21-1.56-.09-4.81-5.78-2.59-.16-1.31,21.85,2.06,3.28Zm-8.92-1.84,7.33.44-1.72-2.74,1.41-23.55,4.45.27,4.1,4.93-.67-4.78L523,428.48l-1.24,4.66,4.66-4.4,4.45.26-1.41,23.56Z" fill="#7e844a"/>
      <path id="Path_3602" data-name="Path 3602" d="M559.5,456.82l-.14-1.24,1.95-3.36-2.29-20-2.79-2.85-.14-1.2,9.19-1.06c8.12-.93,12.52,1.08,13.09,6a6.54,6.54,0,0,1-3.61,6.83,13.909,13.909,0,0,1-3,1.17l1.59.34,11.14,13.75-2,.23-6.09-1.58-9.79-11.93h-.23l1.1,9.62,2.6,2.84.14,1.23ZM558,429.23l2.31,2.37,2.4,20.9L561,455.33l7.39-.84-2.19-2.4-1.28-11.17-.49-.1.47-.06h0l2.23-.26h0l1.4-.16a15.089,15.089,0,0,0,5.59-1.58,5.19,5.19,0,0,0,3-5.54c-.48-4.11-4.29-5.69-11.65-4.85Zm19.16,23.43,4.68,1.21-9.16-11.29-4.6-1Zm-12.21-12-1.38-12.07,1.91-.22c6.36-.73,8.05,2.21,8.35,4.8.49,4.3-1.62,6.66-6.44,7.21Zm.06-10.92,1.09,9.48,1.14-.13c4.12-.47,5.7-2.2,5.29-5.77-.34-2.95-2.59-4.15-6.9-3.66Z" fill="#7e844a"/>
      <path id="Path_3603" data-name="Path 3603" d="M597.89,451.15l-.36-1.2,1.56-3.83,1.74-19.56-3.06-3.79,5.13-3.85,16.81,21,3,2.49.34,1.14-9.94,3-.34-1.12.82-3.4-3.74-4.61-7.1,2.13-.49,5.85,2.79,2.29.36,1.17ZM599.63,423l2.54,3.15-1.84,20.37-1.18,2.9,4.35-1.31L600.92,446l.62-7.41,8.79-2.64,4.7,5.78-.76,3.14,6.85-2.05-2.38-2-16.06-20.1Zm1.94,15.37,1-12,7.66,9.4Zm2-8.67-.56,6.88,5-1.49Z" fill="#7e844a"/>
      <path id="Path_3604" data-name="Path 3604" d="M638.75,436.86l-.52-1.08.66-3.82-9.48-19.72-2.34,1.13-2.26,7.16-1.41.68-2-8,19.36-9.31,5,6.61-1.41.68-7-2.71L635,409.57l9.48,19.72,3.4,1.86.52,1.08ZM630,410.51l10.23,21.27-.56,3.18,6.62-3.18-2.84-1.55L633.25,409l4-1.93,6,2.31-2.92-3.84-17.44,8.38,1.18,4.68,1.93-6.12Z" fill="#7e844a"/>
      <path id="Path_3605" data-name="Path 3605" d="M670.88,416.22a14.33,14.33,0,0,1-11.66-6.17h0a14.62,14.62,0,0,1-3-11.39,15.58,15.58,0,0,1,6.36-9.74,16.48,16.48,0,0,1,11.52-3.44,14.45,14.45,0,0,1,10.1,6.12,14.68,14.68,0,0,1,2.87,11.4,15.7,15.7,0,0,1-6.32,9.75,16.61,16.61,0,0,1-9.87,3.47Zm-10.61-6.94c4.76,6.47,12.87,7.46,19.71,2.42l.1-.07c-5.1,3.2-12.44.73-17.38-6-3.9-5.29-4.45-10.1-1.69-13.57a13.48,13.48,0,0,0-3.46,6.79,13.32,13.32,0,0,0,2.72,10.39Zm8.05-19.4a7.71,7.71,0,0,0-4.65,1.47c-5.59,4.12-2.35,10.25.08,13.54,4.68,6.35,11.6,8.63,16.11,5.31,5.72-4.21,1.67-11-.34-13.72h0C676.4,392.26,672.12,389.88,668.32,389.88Zm12.24,5.83c3.85,5.21,4.54,10.08,2.07,13.53a13.68,13.68,0,0,0,3.16-6.48,14.11,14.11,0,0,0-11.78-16,15.17,15.17,0,0,0-10.57,3.15c5-3.12,12.36-.68,17.12,5.78Z" fill="#7e844a"/>
      <path id="Path_3606" data-name="Path 3606" d="M706,390.82l-.92-.83-.73-3.82-14.88-13.61-4-.32-.89-.82,6.23-6.82c5.52-6,10.16-7.41,13.81-4.08a6.54,6.54,0,0,1,1.76,7.52,13,13,0,0,1-1.49,2.85l1.43-.79,17.43,3.06-1.5,1.57-5.51,2.75-15.23-2.58-.16.18,7.15,6.53,3.82.44.91.83ZM686.72,371l3.3.27,15.54,14.2.61,3.21,5-5.49-3.22-.37-8.3-7.58-.44.24.32-.35h0l1.51-1.66h0l1-1a15.08,15.08,0,0,0,3.18-4.86,5.19,5.19,0,0,0-1.42-6.12c-3-2.78-7-1.48-12,4Zm15.72,2.71,14.12,2.39,4.33-2.16-14.32-2.51Zm-2.93,1.38-9-8.19,1.3-1.42a9.92,9.92,0,0,1,4.81-3.26,5,5,0,0,1,4.63,1.4,6.08,6.08,0,0,1,2.37,4.64c0,1.59-.85,3.23-2.49,5Zm-7.13-8.27,7,6.44.77-.85a6.75,6.75,0,0,0,2.15-4.18,4.91,4.91,0,0,0-1.94-3.65,3.71,3.71,0,0,0-3.47-1.09,8.71,8.71,0,0,0-4.14,2.87Z" fill="#7e844a"/>
      <path id="Path_3607" data-name="Path 3607" d="M729.29,335.49l-3.91-11.68,11.81-3.25,4,11.59Zm-2.24-10.79,3.08,9.21,9.35-2.64-3.13-9.13Z" fill="#7e844a"/>
      <path id="Path_3608" data-name="Path 3608" d="M350.61,152.65a16.09,16.09,0,0,1-6.73-1.53,14.52,14.52,0,0,1-7.3-20c2.49-5.35,7.43-8.73,12.56-8.64h.47l2.57,8.29-1.47-.9a9.48,9.48,0,0,0-7.55-1.06,7,7,0,0,0-4.4,3.72c-2.36,5.07,1.73,9.78,6.53,12,6.87,3.2,13.16,1.76,15.65-3.59,2.15-4.63,0-7.79-2.88-9.3l-5.71,5.24-1.39-.65L355.72,126l12.88,6-.68,1.47-3,.54a13.16,13.16,0,0,1-1,9.28c-2.17,4.64-5.47,7.7-9.56,8.84a13.919,13.919,0,0,1-3.75.52Zm-13.61-19a13.08,13.08,0,0,0,7.43,16.33,14.18,14.18,0,0,0,9.59.95c3.71-1,6.73-3.85,8.73-8.14,1.47-3.17,1.72-6.61.65-9l-.34-.77,3.36-.59-10.07-4.69-3,6.48,4.49-4.13.4.19c3.46,1.61,6.55,5.51,3.89,11.22-2.81,6.05-9.79,7.75-17.37,4.22-4.89-2.26-9.06-6.89-7.76-12.11Zm11.65-9.84c-4.37.12-8.54,3.06-10.77,7.63a8.3,8.3,0,0,1,4.91-3.83A10.72,10.72,0,0,1,350,128Z" fill="#7e844a"/>
      <path id="Path_3609" data-name="Path 3609" d="M373.26,124.26l-1-.71L371,119.87,354.42,108.4l-4,.21-1-.69,5.26-7.6a23.34,23.34,0,0,1,4.91-5.44c2.82-2.07,5.66-2.23,8.22-.46a6.53,6.53,0,0,1,2.76,7.21,13.193,13.193,0,0,1-1.09,3l1.3-1,17.68.68-1.27,1.76-5.09,3.47-15.43-.5s-2.1-1.235-.13.19,8,5.51,8,5.51l3.84-.08,1,.7Zm-18.47-17.18,17.31,12,1,3.11,4.23-6.12-3.24.07-9.25-6.4-.38.29.25-.38h0l1.27-1.84h0l.79-1.16a15.1,15.1,0,0,0,2.5-5.25,5.18,5.18,0,0,0-2.23-5.87c-2.12-1.46-4.31-1.32-6.71.43a22.32,22.32,0,0,0-4.61,5.14l-4.28,6.19Zm12.64.73,14.31.47,4-2.72L371.21,105Zm-2.72,1.77-10-6.91,1.09-1.58a10,10,0,0,1,4.33-3.88,5,5,0,0,1,4.78.76,6,6,0,0,1,3,4.28c.18,1.58-.4,3.32-1.78,5.32Zm-8.18-7.24,7.85,5.43.65-.94c1.19-1.73,1.7-3.18,1.56-4.43a4.9,4.9,0,0,0-2.41-3.4,3.72,3.72,0,0,0-3.59-.61,8.8,8.8,0,0,0-3.71,3.4Z" fill="#7e844a"/>
      <path id="Path_3610" data-name="Path 3610" d="M390.77,99.69l-.91-.87-.53-4.1-8.12-17.89-4.53-1.78,2.57-5.88,25,10,3.85.69.86.82-7.18,7.49-.84-.81L400,84l-5.53-2.17-5.13,5.36,2.45,5.33,3.56.61.89.85ZM378.41,74.33l3.77,1.49,8.43,18.64.4,3.09,3.14-3.27-3.28-.57L387.76,87l6.34-6.62,6.9,2.67.89,3.11L406.88,81l-3.06-.56-23.88-9.59Zm9.26,12.42-5.05-10.92,11.29,4.41Zm-2.52-8.53,2.9,6.26,3.58-3.73Z" fill="#7e844a"/>
      <path id="Path_3611" data-name="Path 3611" d="M414.56,75.94l-.74-1-.09-3.85L401.54,55.05l-3.79-1L397,53l8.29-6.29c8.09-6.13,12.41-4,14.6-1.07h0c4.67,6.16-2.12,11.8-3.53,12.87a11.62,11.62,0,0,1-3.13,1.69l5.42,7.15,3.8,1,.75,1ZM399.12,53l3.19.87L415,70.66l.07,3.25,6-4.53-3.19-.87-6.86-9,1-.23a10.22,10.22,0,0,0,3.57-1.75c1.74-1.32,7.11-6,3.29-11-2.68-3.53-7-3.08-12.78,1.32ZM411,59.38l-7.34-9.68,2.2-1.7c4.05-3.07,7.44-2.88,10.06.58h0c3.63,4.78.48,8-1,9.14a8.15,8.15,0,0,1-3.54,1.6ZM405.43,50l6.07,8a7,7,0,0,0,2.59-1.28c1.84-1.39,3.47-3.79.8-7.31h0c-2.16-2.85-4.78-3-8.24-.33Z" fill="#7e844a"/>
      <path id="Path_3612" data-name="Path 3612" d="M439.17,57.93l-.58-1.09.53-3.83-9.42-18-3-1.81-.56-1.07,8.76-4.59.56,1.07-.26,3.53,3.9,7.43,8.68-4.56-3.9-7.43-3.06-1.78-.56-1.08L449,20.18l.56,1.07-.2,3.5,9.42,18,3.46,1.74.57,1.09-9.32,4.9-.57-1.09.4-3.76-4.23-8.06-8.68,4.56,4.23,8L447.92,52l.57,1.08ZM428.11,32.59l2.57,1.53,9.79,18.65L440,56l6.44-3.38-2.83-1.54-5-9.56,11-5.76,5,9.55-.33,3.21,6.43-3.38-2.92-1.48L448,25l.17-3-5.93,3.11,2.59,1.51,4.68,8.91-11,5.77-4.68-8.92.23-3Z" fill="#7e844a"/>
      <path id="Path_3613" data-name="Path 3613" d="M471.43,42.35,471,41.18l1.14-3.72-6.83-19.09L462.9,16l-.39-1.11,8.57-3.06.4,1.1-.34,3.39L478,35.38l3.24,2.15.42,1.17Zm-7.07-26.77,2.08,2.08,7.08,19.77-1,3.13,7.1-2.56-2.73-1.81-7.08-19.78.3-2.92Z" fill="#7e844a"/>
      <path id="Path_3614" data-name="Path 3614" d="M500.32,33.74c-8,0-12.79-5.63-14.14-12h0c-1.77-8.29,3.24-15.9,11.66-17.7,6-1.27,11.48.62,14.37,4.95l.25.38-5.15,7.1-.17-1.7a9.87,9.87,0,0,0-3.73-6.95A6.67,6.67,0,0,0,498,6.69c-5.34,1.14-7,7.23-5.8,12.66,1.62,7.59,6.41,11.7,12.2,10.47,5.36-1.15,6.32-5.08,6.49-6.72v-.47l2.2-.47,1.79,8.35-1.48.32-2.21-1a13.62,13.62,0,0,1-6.86,3.51,19.44,19.44,0,0,1-4.01.4ZM487.45,21.51c1.32,6.21,6.47,12.69,16.62,10.52a12.39,12.39,0,0,0,6.53-3.47l.32-.33,2.39,1.11L512.1,23.7h0c-.33,2.12-1.72,6.16-7.45,7.39-6.46,1.38-12-3.23-13.74-11.47C489.73,14.17,491.17,8.11,496,6a13.28,13.28,0,0,0-8.51,15.53Zm12-16.28a8,8,0,0,1,4.73,1.58,10.9,10.9,0,0,1,4,6.3l2.7-3.72c-2.6-3.56-7.33-5.11-12.51-4.09A8.08,8.08,0,0,1,499.45,5.23Z" fill="#7e844a"/>
      <path id="Path_3615" data-name="Path 3615" d="M555.78,29.62h-.93a8.77,8.77,0,0,1-5.53-2l-.06,1.19-8.15-.4.06-1.23,2.29-3,1-20.18L542.21.78l.06-1.25,9.87.49c6.24.31,16.6,2.79,15.94,15.94h0c-.25,5-1.71,8.73-4.36,11a11.78,11.78,0,0,1-7.94,2.66Zm-7.56-5.92,1.1,1.87c1,1.62,2.95,2.59,5.59,2.72a10.93,10.93,0,0,0,8-2.3c2.37-2,3.68-5.44,3.92-10.1.31-6.3-2-13.94-14.71-14.57L543.9.91l1.88,2.68-1,21-1.94,2.55,5.23.26ZM555,28h-.47a6.93,6.93,0,0,1-6.11-4.21l-.07-.15,1.11-22.36,2.6.13c7.54.37,11.13,5.34,10.66,14.78h0C562.35,24.1,559.82,28,555,28Zm-5.33-4.64a5.64,5.64,0,0,0,4.93,3.33c2.69.14,6.34-.81,6.82-10.58C561.87,7.39,558.79,3,552,2.66l-1.3-.06Z" fill="#7e844a"/>
      <path id="Path_3616" data-name="Path 3616" d="M594.92,34.68a37.33,37.33,0,0,1-7.27-1.09l-12.26-2.66.26-1.2,2.74-2.55,4.27-19.73-2-3.62.27-1.24,19.81,4.29V14.4L599,14l-4.11-5.68-5.86-1.28-1.89,8.71,4,.85,3.33-1.19,1.26.27-1.57,7.24-1.28-.27-2.39-3.32-3.89-.85L584.09,30l2.85.62c3.77.81,5.88.15,7.79-2.45l.58-.78L599,33.53l-.61.32a6.86,6.86,0,0,1-3.47.83ZM577.26,30l10.66,2.31c5.9,1.28,7.8,1.26,9.26.67l-2-3.27c-2.09,2.4-4.63,3-8.52,2.2L582.55,31l3-14.07,5.65,1.22,2,2.79.87-4-2.9,1-5.59-1.21,2.44-11.24,7.63,1.65,3.76,5.21V7.9L582.34,4.2l1.68,3-4.47,20.6Z" fill="#7e844a"/>
      <path id="Path_3617" data-name="Path 3617" d="M619.73,43.29a14.15,14.15,0,0,1-5-1,13.24,13.24,0,0,1-5.23-3.46h-2.46l-1.1-.42,3.07-8,2.23.85-.1.53a6.93,6.93,0,0,0,4.56,8,6.78,6.78,0,0,0,4.2.42,3.44,3.44,0,0,0,2.3-2.22c1.18-3.07-1.12-5.27-3.79-7.83-3.11-3-6.64-6.35-4.58-11.73a7.17,7.17,0,0,1,5.26-4.68,11.57,11.57,0,0,1,6.42.67c4.56,1.74,6.91,4.46,7,8V23l-5.56,1.28-1.5-.58.5-.68a5.83,5.83,0,0,0,.8-1.52,3.39,3.39,0,0,0,0-2.79,4.311,4.311,0,0,0-2.44-1.9c-2.33-.89-4.09-.31-4.82,1.6-1.15,3,1.12,5.15,3.74,7.63,3.18,3,6.78,6.43,4.6,12.12C626.56,41.45,623.5,43.29,619.73,43.29Zm-12.12-5.77h2.46l.19.24a11.8,11.8,0,0,0,4.89,3.31c5.3,2,9.91.65,11.47-3.43,1.87-4.87-1.26-7.84-4.29-10.71-2.71-2.56-5.51-5.22-4.05-9,1-2.6,3.48-3.5,6.5-2.34a5.55,5.55,0,0,1,3.14,2.53,4.59,4.59,0,0,1,0,3.83,6.381,6.381,0,0,1-.36.84l3.57-.82c-.28-2.8-2.3-4.88-6.14-6.35a10.4,10.4,0,0,0-5.67-.61A5.81,5.81,0,0,0,615,18.86c-1.76,4.57,1.16,7.36,4.26,10.32,2.75,2.64,5.6,5.36,4.11,9.24a4.74,4.74,0,0,1-3.15,3,7.92,7.92,0,0,1-5-.45A8.24,8.24,0,0,1,609.74,32h0Z" fill="#7e844a"/>
      <path id="Path_3618" data-name="Path 3618" d="M642.49,54.75l-9.55-5.1.58-1.09L637,46.91,646.58,29l.16-3.41.55-1,8,4.28-.55,1-2.74,2-9.54,17.89.59,3.85ZM635,49.29l6.62,3.53-.5-3.24L651,31.05l2.37-1.75L648,26.43l-.13,2.94L638,47.9Z" fill="#7e844a"/>
      <path id="Path_3619" data-name="Path 3619" d="M672.4,75l-1.32-1V70.92a13.14,13.14,0,0,1-8.93-2.71c-8.69-6.31-8.2-15.18-3.85-21.17,5.12-7.06,14-8.47,21-3.35,4.78,3.46,7.17,9,6.09,14l-.1.46-8.63.94,1.17-1.27a9.47,9.47,0,0,0,2.47-7.21,7,7,0,0,0-2.81-5,7.12,7.12,0,0,0-6.84-.86,13.78,13.78,0,0,0-6.19,5,14.73,14.73,0,0,0-3.21,9.18A8.75,8.75,0,0,0,665,65.8a7.12,7.12,0,0,0,5.69,1.54,6.86,6.86,0,0,0,4-2.59l-4.06-6.6.9-1.25,9.14,6.63Zm.05-5.64-.05,3.42,6.52-9-5.78-4.2,3.19,5.2-.26.35a7.85,7.85,0,0,1-11.76,1.68A10.06,10.06,0,0,1,660,59a16,16,0,0,1,3.45-10,15.11,15.11,0,0,1,6.81-5.43,8.35,8.35,0,0,1,6.68.21c-6.19-3.46-13.2-1.9-17.57,4.11C655.73,52.91,654.45,61,663,67.2c2.83,2,6.15,3,8.67,2.35Zm6.4-24.4a8.28,8.28,0,0,1,2.82,5.55,10.7,10.7,0,0,1-1.82,7l4.43-.48C685,52.66,682.91,48,678.85,45Z" fill="#7e844a"/>
      <path id="Path_3620" data-name="Path 3620" d="M694.57,97.3l-1.51-1.57,4.46-25.44L685.78,81.64l-.75,3.7-.89.86-5.31-5.49.87-.84,3.88-.52,14.43-14,.83-3.78.88-.85L704.81,66l-3.54,20.4,8.91-8.62.67-3.73.89-.86L717,78.63l-.88.86-3.73.57-6.739,6.519Zm-.12-2,.15.15,17.19-16.62,3.14-.48-3-3.08-.56,3.15-15.79,15.3,4.24-6.58,3.59-20.69-3.51-3.62-.71,3.22-15,14.53-3.23.44,3,3.1.63-3.13L699.5,66.57Z" fill="#7e844a"/>
      <path id="Path_3621" data-name="Path 3621" d="M717.19,123.55l-.67-.18c-2.25-.62-3.75-1.85-7.7-7.55l-7.14-10.31,1-.7h3.75L723,93.32l1-4,1.05-.73,11.54,16.67-5.1,5.53-1-1.46.89-7L728,97.41l-7.32,5.07,2.3,3.33,3.25,1.4.73,1.05-6.09,4.23-.75-1.08.52-4.06-2.27-3.27-9.69,6.72,1.66,2.39c2.19,3.17,4.19,4.13,7.36,3.54l1-.18Zm-13.51-17.44,6.21,9c3.44,5,4.84,6.25,6.31,6.82l.78-3.76c-3.18.33-5.47-.94-7.73-4.21l-2.4-3.46,11.83-8.2L722,107l-.43,3.41,3.4-2.36-2.84-1.22-3.25-4.69,9.46-6.56,4.44,6.42-.81,6.38,3-3.28L725,90.76l-.83,3.35-17.34,12Z" fill="#7e844a"/>
      <path id="Path_3622" data-name="Path 3622" d="M728.66,154.71l-.9-2-.49-6.14,8.09-13.15-.1-.22-8.73,4.19-1.84,3.37-1.11.54-4.65-9.7,1.12-.54,3.81.75,18.19-8.71,1.79-3.56,1.09-.52,4,8.34c3.53,7.37,3.06,12.19-1.39,14.32-3.6,1.72-7,.43-9.71-3.63l.19,1.62Zm-.06-7.79.38,4.81,7.69-12.33-.57-4.68Zm8.24-13.4.61,1.27c1.83,3.83,5,7.93,9.52,5.75,3.73-1.79,4-5.91.78-12.59l-3.26-6.79-1.48,3-19,9.09-3.21-.63,3.21,6.71,1.55-2.85,10.14-4.86-.06-.5.21.43h0Zm5.8,4.75a4.87,4.87,0,0,1-1.93-.4c-1.47-.63-2.69-2-3.73-4.18l-1.06-2.21,11-5.25.83,1.74a10,10,0,0,1,1.22,5.68,5,5,0,0,1-3,3.77,7.67,7.67,0,0,1-3.33.85Zm-5-6.18.5,1a6.72,6.72,0,0,0,3.07,3.55,4.87,4.87,0,0,0,4.11-.43,3.74,3.74,0,0,0,2.31-2.81,8.73,8.73,0,0,0-1.11-4.91l-.27-.56Z" fill="#7e844a"/>
      <path id="Path_3623" data-name="Path 3623" d="M536.86,84.81l-16.84,29.13,16.84,29.25,16.83-29.25Z" fill="none" stroke="#7e844a" stroke-miterlimit="10" stroke-width="1.3"/>
      <path id="Path_3624" data-name="Path 3624" d="M563.28,115.54l-16.84,29.32,33.92-.04,16.4-29.56Z" fill="none" stroke="#7e844a" stroke-miterlimit="10" stroke-width="1.3"/>
      <path id="Path_3625" data-name="Path 3625" d="M476.72,115.26l16.41,29.56,33.92.04-16.84-29.32Z" fill="none" stroke="#7e844a" stroke-miterlimit="10" stroke-width="1.3"/>
      <path id="Path_3626" data-name="Path 3626" d="M560.81,80.08l-7.13,12.33,7.13,12.39,7.13-12.39Z" fill="none" stroke="#7e844a" stroke-miterlimit="10" stroke-width="1.3"/>
      <path id="Path_3627" data-name="Path 3627" d="M577.86,93.09l-7.13,12.41,14.37-.01,6.94-12.52Z" fill="none" stroke="#7e844a" stroke-miterlimit="10" stroke-width="1.3"/>
      <path id="Path_3628" data-name="Path 3628" d="M599.17,133.13l-7.13,12.42,14.36-.02,6.95-12.51Z" fill="none" stroke="#7e844a" stroke-miterlimit="10" stroke-width="1.3"/>
      <path id="Path_3629" data-name="Path 3629" d="M512.9,80.08l7.12,12.33L512.9,104.8l-7.13-12.39Z" fill="none" stroke="#7e844a" stroke-miterlimit="10" stroke-width="1.3"/>
      <path id="Path_3630" data-name="Path 3630" d="M495.85,93.09l7.12,12.41-14.36-.01-6.94-12.52Z" fill="none" stroke="#7e844a" stroke-miterlimit="10" stroke-width="1.3"/>
      <path id="Path_3631" data-name="Path 3631" d="M474.54,133.13l7.13,12.42-14.36-.02-6.95-12.51Z" fill="none" stroke="#7e844a" stroke-miterlimit="10" stroke-width="1.3"/>
      <path id="Path_3632" data-name="Path 3632" d="M577.86,93.09l-7.13,12.41,14.37-.01,6.94-12.52Z" fill="none" stroke="#7e844a" stroke-miterlimit="10" stroke-width="1.3"/>
      <path id="Path_3633" data-name="Path 3633" d="M599.17,133.13l-7.13,12.42,14.36-.02,6.95-12.51Z" fill="none" stroke="#7e844a" stroke-miterlimit="10" stroke-width="1.3"/>
      <path id="Path_3634" data-name="Path 3634" d="M536.82,372.92l16.84-29.12-16.84-29.26L519.99,343.8Z" fill="none" stroke="#7e844a" stroke-miterlimit="10" stroke-width="1.3"/>
      <path id="Path_3635" data-name="Path 3635" d="M510.41,342.19l16.83-29.32-33.92.04-16.4,29.56Z" fill="none" stroke="#7e844a" stroke-miterlimit="10" stroke-width="1.3"/>
      <path id="Path_3636" data-name="Path 3636" d="M596.96,342.47l-16.4-29.56-33.92-.04,16.83,29.32Z" fill="none" stroke="#7e844a" stroke-miterlimit="10" stroke-width="1.3"/>
      <path id="Path_3637" data-name="Path 3637" d="M512.87,377.65,520,365.32l-7.13-12.39-7.12,12.39Z" fill="none" stroke="#7e844a" stroke-miterlimit="10" stroke-width="1.3"/>
      <path id="Path_3638" data-name="Path 3638" d="M495.82,364.64l7.13-12.41-14.36.02-6.95,12.51Z" fill="none" stroke="#7e844a" stroke-miterlimit="10" stroke-width="1.3"/>
      <path id="Path_3639" data-name="Path 3639" d="M474.51,324.6l7.13-12.42-14.36.02-6.94,12.52Z" fill="none" stroke="#7e844a" stroke-miterlimit="10" stroke-width="1.3"/>
      <path id="Path_3640" data-name="Path 3640" d="M560.78,377.65l-7.12-12.33,7.12-12.39,7.13,12.39Z" fill="none" stroke="#7e844a" stroke-miterlimit="10" stroke-width="1.3"/>
      <path id="Path_3641" data-name="Path 3641" d="M577.84,364.64l-7.13-12.41,14.36.02,6.94,12.51Z" fill="none" stroke="#7e844a" stroke-miterlimit="10" stroke-width="1.3"/>
      <path id="Path_3642" data-name="Path 3642" d="M599.14,324.6l-7.13-12.42,14.37.02,6.94,12.52Z" fill="none" stroke="#7e844a" stroke-miterlimit="10" stroke-width="1.3"/>
      <path id="Path_3643" data-name="Path 3643" d="M495.82,364.64l7.13-12.41-14.36.02-6.95,12.51Z" fill="none" stroke="#7e844a" stroke-miterlimit="10" stroke-width="1.3"/>
      <path id="Path_3644" data-name="Path 3644" d="M474.51,324.6l7.13-12.42-14.36.02-6.94,12.52Z" fill="none" stroke="#7e844a" stroke-miterlimit="10" stroke-width="1.3"/>
      <path id="Yu_fullname_logo" d="M121.5,566.45a2.213,2.213,0,0,1-2.1-1.05,4.462,4.462,0,0,1-.6-2.25q.15-2.55,1.2-2.85a9.387,9.387,0,0,1,2.55-.3q4.8,0,6.75-1.65a7.574,7.574,0,0,0,2.4-4.35,25.507,25.507,0,0,0,.6-5.55V529.7a17.223,17.223,0,0,0-1.65-4.8q-1.5-3.9-4.05-9-2.4-5.1-5.1-10.5t-5.1-9.75q-2.25-4.5-3.6-6.9-3.15-5.7-6.9-8.1a24.255,24.255,0,0,0-8.55-3.6q-2.1-.45-3-.75-.75-.3-.75-2.7,0-2.55,1.8-2.7a25.846,25.846,0,0,1,4.2-.3q10.65,0,17.1,3.3,6.6,3.3,11.7,12.3,4.35,8.1,7.8,15.75,3.6,7.65,7.95,15.6h.45l16.65-32.85q2.55-5.1.6-6.15-1.95-1.2-7.2-1.2a9.387,9.387,0,0,1-2.55-.3q-1.05-.3-1.2-2.85a4.462,4.462,0,0,1,.6-2.25,2.074,2.074,0,0,1,1.95-1.05q4.8.15,8.25.3,3.6.15,8.1.15t7.35-.15q3-.15,7.8-.3a2.213,2.213,0,0,1,2.1,1.05,4.462,4.462,0,0,1,.6,2.25q-.15,2.55-1.2,2.85a8.435,8.435,0,0,1-2.55.3,15.729,15.729,0,0,0-9.3,2.55,20.925,20.925,0,0,0-6.45,7.65L151.2,519.5q-1.35,2.85-2.25,4.8a19.27,19.27,0,0,0-1.35,4.05,27.488,27.488,0,0,0-.45,5.55v14.55a49.6,49.6,0,0,0,.6,5.55,7.574,7.574,0,0,0,2.4,4.35q2.1,1.65,6.75,1.65a8.435,8.435,0,0,1,2.55.3q1.05.3,1.2,2.85a4.462,4.462,0,0,1-.6,2.25,2.074,2.074,0,0,1-1.95,1.05q-4.8-.3-9.15-.45H140.1Q131.25,566,121.5,566.45Zm89.824,1.35q-10.2,0-16.2-6.15t-6-16.2V517.7a37.612,37.612,0,0,0-.3-4.95,5.255,5.255,0,0,0-1.65-3.75q-1.5-1.5-5.7-1.5a10.484,10.484,0,0,1-2.55-.3q-1.05-.45-1.05-2.7a2.554,2.554,0,0,1,2.4-2.7,86.648,86.648,0,0,0,10.5-2.1q3.75-1.05,5.7-1.8a13.579,13.579,0,0,1,3.45-.9,2.5,2.5,0,0,1,1.95.45,2.7,2.7,0,0,1,.9,2.4V545.3a14.331,14.331,0,0,0,2.1,8.1,13.756,13.756,0,0,0,5.55,4.65,16.156,16.156,0,0,0,6.75,1.5,21.65,21.65,0,0,0,9.15-1.8,24.027,24.027,0,0,0,6.3-4.35,17.3,17.3,0,0,0,3.15-4.2V517.7a37.612,37.612,0,0,0-.3-4.95,5.255,5.255,0,0,0-1.65-3.75q-1.5-1.5-5.7-1.5a10.484,10.484,0,0,1-2.55-.3q-1.05-.45-1.05-2.7a2.554,2.554,0,0,1,2.4-2.7,86.646,86.646,0,0,0,10.5-2.1q3.75-1.05,5.7-1.8a13.579,13.579,0,0,1,3.45-.9,2.5,2.5,0,0,1,1.95.45,2.7,2.7,0,0,1,.9,2.4v51.9q0,8.85,11.85,8.85,1.65,0,2.1.9a4.3,4.3,0,0,1,.45,1.95q0,2.1-2.55,2.55l-24.15,1.65a1.048,1.048,0,0,1-1.2-.9,12.922,12.922,0,0,1-.15-2.1v-8.4h-.3q-2.85,2.7-6.15,5.4a25.053,25.053,0,0,1-7.5,4.35A26.741,26.741,0,0,1,211.324,567.8Zm113.6-1.35a2.213,2.213,0,0,1-2.1-1.05,4.462,4.462,0,0,1-.6-2.25q.15-2.55,1.2-2.85a9.387,9.387,0,0,1,2.55-.3q4.8,0,6.75-1.65a7.574,7.574,0,0,0,2.4-4.35,25.506,25.506,0,0,0,.6-5.55V476.9h-10.35q-5.1.15-7.95,2.25a11.374,11.374,0,0,0-4.2,6.3,74.121,74.121,0,0,0-2.4,10.95q-.15,1.35-1.95,2.1a9.6,9.6,0,0,1-3.3.6,5.075,5.075,0,0,1-2.4-.75,2.479,2.479,0,0,1-1.2-2.25l.45-21.15a3.1,3.1,0,0,1,1.2-2.85,5.267,5.267,0,0,1,2.85-.75h73.35a4.537,4.537,0,0,1,2.7.75,3.1,3.1,0,0,1,1.2,2.85l.6,21.15a2.423,2.423,0,0,1-1.35,2.25,4.5,4.5,0,0,1-2.4.75,9.214,9.214,0,0,1-3.15-.6,3.1,3.1,0,0,1-1.95-2.1,61.6,61.6,0,0,0-2.55-10.95,11.374,11.374,0,0,0-4.2-6.3q-2.7-2.1-7.95-2.25h-10.2v71.55a49.593,49.593,0,0,0,.6,5.55,7.574,7.574,0,0,0,2.4,4.35q2.1,1.65,6.75,1.65a9.387,9.387,0,0,1,2.55.3q1.05.3,1.2,2.85a4.462,4.462,0,0,1-.6,2.25,2.213,2.213,0,0,1-2.1,1.05q-4.8-.3-9.15-.45h-8.55Q334.678,566,324.928,566.45Zm67.184,0a2.019,2.019,0,0,1-1.8-.9,4.2,4.2,0,0,1-.6-2.1q.15-2.25,1.05-2.4a8.75,8.75,0,0,1,2.4-.3q4.2,0,5.7-1.35a5.519,5.519,0,0,0,1.8-3.9,39.884,39.884,0,0,0,.3-4.95v-73.2a37.608,37.608,0,0,0-.3-4.95,5.255,5.255,0,0,0-1.65-3.75q-1.5-1.5-5.7-1.5a10.484,10.484,0,0,1-2.55-.3q-1.05-.45-1.05-2.7a2.554,2.554,0,0,1,2.4-2.7,86.651,86.651,0,0,0,10.5-2.1q3.75-1.05,5.7-1.8a8.418,8.418,0,0,1,3.45-.9,3.026,3.026,0,0,1,1.95.6q.9.45.9,2.25v48.3h.3q3-2.85,6.15-5.4a25.525,25.525,0,0,1,7.35-4.35,27.889,27.889,0,0,1,10.65-1.8q10.2,0,16.2,6.15t6,16.2v31.95q0,2.55.15,4.95a6.465,6.465,0,0,0,1.8,3.9q1.65,1.35,5.7,1.35a7.8,7.8,0,0,1,2.4.3q.9.15,1.05,2.4a4.2,4.2,0,0,1-.6,2.1,1.676,1.676,0,0,1-1.65.9q-4.35-.3-8.1-.45h-15.3q-3.6.15-7.95.45a2.019,2.019,0,0,1-1.8-.9,4.2,4.2,0,0,1-.6-2.1q.15-2.25,1.05-2.4a7.8,7.8,0,0,1,2.4-.3q4.2,0,5.7-1.35a5.52,5.52,0,0,0,1.8-3.9q.15-2.4.15-4.95v-31.8q0-7.5-4.5-10.8a15.7,15.7,0,0,0-9.75-3.45,19.869,19.869,0,0,0-9,1.95,21.62,21.62,0,0,0-6.3,4.2,17.442,17.442,0,0,0-3.3,4.2v35.7q0,2.55.15,4.95a6.465,6.465,0,0,0,1.8,3.9q1.65,1.35,5.7,1.35a7.8,7.8,0,0,1,2.4.3q.9.15,1.05,2.4a4.2,4.2,0,0,1-.6,2.1,1.676,1.676,0,0,1-1.65.9q-4.35-.3-8.1-.45h-15.3Q396.462,566.15,392.112,566.45Zm107.68,1.35q-9.15,0-14.7-5.25a16.949,16.949,0,0,1-5.4-12.6q0-7.65,3.9-12a24.294,24.294,0,0,1,10.5-6.45,69.17,69.17,0,0,1,14.25-2.85q7.8-.75,15.15-1.2V515.6q0-7.05-3.6-10.95-3.45-4.05-11.85-4.05a13.377,13.377,0,0,0-7.95,2.7,9.155,9.155,0,0,0-3.6,7.8,6.7,6.7,0,0,0,1.2,4.05,11.922,11.922,0,0,0,2.4,2.55q1.2.9,1.2,1.2,0,.6-1.8,2.25a6.667,6.667,0,0,1-4.65,1.5,8.429,8.429,0,0,1-7.2-3.45,12.571,12.571,0,0,1-2.55-7.65q0-5.7,3.45-9a21.628,21.628,0,0,1,9.15-4.8,42.936,42.936,0,0,1,11.25-1.5,51.3,51.3,0,0,1,13.05,1.65,20.159,20.159,0,0,1,10.5,6.3q4.2,4.65,4.2,13.95V553.1a21.106,21.106,0,0,0,.75,3.6,8.587,8.587,0,0,0,2.25,3.75,7.257,7.257,0,0,0,4.8,1.5,2.694,2.694,0,0,1,1.65.45q.6.3.6,1.95a2.308,2.308,0,0,1-1.5,2.1,11.631,11.631,0,0,1-3.45,1.05,22.288,22.288,0,0,1-3.3.3,16.455,16.455,0,0,1-9.9-3.15,12.936,12.936,0,0,1-5.1-9,21.506,21.506,0,0,1-9.9,9.15A32.322,32.322,0,0,1,499.792,567.8Zm4.8-8.1a17.575,17.575,0,0,0,9.3-2.55,19.5,19.5,0,0,0,9.6-16.8V531.8q-15.45,1.05-22.05,4.95t-6.6,12.75Q494.842,559.7,504.592,559.7Zm51.764,6.75a2.271,2.271,0,0,1-1.8-.9,4.2,4.2,0,0,1-.6-2.1q.3-2.25,1.2-2.4a7.8,7.8,0,0,1,2.4-.3q4.2,0,5.7-1.35a5.818,5.818,0,0,0,1.65-3.9,39.884,39.884,0,0,0,.3-4.95V516.2a37.609,37.609,0,0,0-.3-4.95,5.255,5.255,0,0,0-1.65-3.75q-1.5-1.5-5.7-1.5a10.484,10.484,0,0,1-2.55-.3q-1.05-.45-1.05-2.7a2.554,2.554,0,0,1,2.4-2.7,86.649,86.649,0,0,0,10.5-2.1,52.373,52.373,0,0,0,5.55-1.8,13.579,13.579,0,0,1,3.45-.9,2.5,2.5,0,0,1,1.95.45,2.7,2.7,0,0,1,.9,2.4v9.3h.45a54.814,54.814,0,0,1,10.5-8.1q5.4-3.3,9.9-3.3a9.048,9.048,0,0,1,7.95,3.9,13.754,13.754,0,0,1,2.85,8.25,13.112,13.112,0,0,1-2.4,7.35,8.189,8.189,0,0,1-7.2,3.45,7.5,7.5,0,0,1-3.9-.9,4.889,4.889,0,0,1-1.5-1.5,6.005,6.005,0,0,1,1.35-1.8,5.088,5.088,0,0,0,1.5-3.75,6.217,6.217,0,0,0-1.5-4.35,4.578,4.578,0,0,0-3.75-1.65q-2.55,0-6.6,2.55a47.033,47.033,0,0,0-7.5,6.15v36.6q0,2.55.15,4.95a6.465,6.465,0,0,0,1.8,3.9q1.65,1.35,5.85,1.35a7.207,7.207,0,0,1,2.25.3q1.05.15,1.2,2.4a4.2,4.2,0,0,1-.6,2.1,2.019,2.019,0,0,1-1.8.9q-4.35-.3-8.1-.45h-15.3Q560.706,566.15,556.356,566.45Zm81.571,1.35q-9.15,0-14.7-5.25a16.949,16.949,0,0,1-5.4-12.6q0-7.65,3.9-12a24.294,24.294,0,0,1,10.5-6.45,69.171,69.171,0,0,1,14.25-2.85q7.8-.75,15.15-1.2V515.6q0-7.05-3.6-10.95-3.45-4.05-11.85-4.05a13.377,13.377,0,0,0-7.95,2.7,9.156,9.156,0,0,0-3.6,7.8,6.7,6.7,0,0,0,1.2,4.05,11.922,11.922,0,0,0,2.4,2.55q1.2.9,1.2,1.2,0,.6-1.8,2.25a6.667,6.667,0,0,1-4.65,1.5,8.429,8.429,0,0,1-7.2-3.45,12.572,12.572,0,0,1-2.55-7.65q0-5.7,3.45-9a21.628,21.628,0,0,1,9.15-4.8,42.935,42.935,0,0,1,11.25-1.5,51.3,51.3,0,0,1,13.05,1.65,20.159,20.159,0,0,1,10.5,6.3q4.2,4.65,4.2,13.95V553.1a21.106,21.106,0,0,0,.75,3.6,8.587,8.587,0,0,0,2.25,3.75,7.257,7.257,0,0,0,4.8,1.5,2.694,2.694,0,0,1,1.65.45q.6.3.6,1.95a2.308,2.308,0,0,1-1.5,2.1,11.631,11.631,0,0,1-3.45,1.05,22.289,22.289,0,0,1-3.3.3,16.455,16.455,0,0,1-9.9-3.15,12.936,12.936,0,0,1-5.1-9,21.506,21.506,0,0,1-9.9,9.15A32.322,32.322,0,0,1,637.927,567.8Zm4.8-8.1a17.574,17.574,0,0,0,9.3-2.55,19.5,19.5,0,0,0,9.6-16.8V531.8q-15.45,1.05-22.05,4.95t-6.6,12.75Q632.977,559.7,642.727,559.7Zm50.264,37.5a2.177,2.177,0,0,1-1.8-1.05,3.447,3.447,0,0,1-.6-1.95q.15-2.25,1.05-2.55a17.12,17.12,0,0,1,2.4-.15q4.05,0,5.55-1.5a5.514,5.514,0,0,0,1.95-3.75,39.884,39.884,0,0,0,.3-4.95V516.2a37.609,37.609,0,0,0-.3-4.95,5.256,5.256,0,0,0-1.65-3.75q-1.5-1.5-5.7-1.5a10.484,10.484,0,0,1-2.55-.3q-1.05-.45-1.05-2.7a2.554,2.554,0,0,1,2.4-2.7,86.649,86.649,0,0,0,10.5-2.1,52.373,52.373,0,0,0,5.55-1.8,13.579,13.579,0,0,1,3.45-.9,2.5,2.5,0,0,1,1.95.45,2.7,2.7,0,0,1,.9,2.4v7.2h.45a38.072,38.072,0,0,1,10.05-6.6,26.813,26.813,0,0,1,11.25-2.7,29.454,29.454,0,0,1,16.2,4.5,31.011,31.011,0,0,1,11.1,12.6,40.463,40.463,0,0,1,4.05,18.6,35.425,35.425,0,0,1-17.7,31.5,33.655,33.655,0,0,1-16.65,4.35,33.2,33.2,0,0,1-10.95-1.5,35.541,35.541,0,0,1-7.05-3.15h-.6V581.3a39.884,39.884,0,0,0,.3,4.95,5.514,5.514,0,0,0,1.95,3.75q1.65,1.5,5.55,1.5a14.041,14.041,0,0,1,2.25.15q1.05.3,1.2,2.55a3.447,3.447,0,0,1-.6,1.95,1.947,1.947,0,0,1-1.8,1.05q-4.35-.3-8.1-.45h-15.3Q697.341,596.9,692.991,597.2Zm39.9-34.5a16.085,16.085,0,0,0,9.75-2.85,21.4,21.4,0,0,0,6.15-7.5,33.962,33.962,0,0,0,3.3-9.9,52.854,52.854,0,0,0,1.05-10.05,40.69,40.69,0,0,0-2.25-13.5,23.456,23.456,0,0,0-6.9-10.8q-4.65-4.35-12.3-4.35a17.217,17.217,0,0,0-9.45,2.4,32.044,32.044,0,0,0-6.75,5.4v40.2a20.267,20.267,0,0,0,6,7.5A18.2,18.2,0,0,0,732.891,562.7Zm46.525,3.75a2.019,2.019,0,0,1-1.8-.9,4.2,4.2,0,0,1-.6-2.1q.15-2.25,1.05-2.4a8.751,8.751,0,0,1,2.4-.3q4.2,0,5.7-1.35a5.52,5.52,0,0,0,1.8-3.9,39.884,39.884,0,0,0,.3-4.95v-73.2a37.609,37.609,0,0,0-.3-4.95,5.255,5.255,0,0,0-1.65-3.75q-1.5-1.5-5.7-1.5a10.484,10.484,0,0,1-2.55-.3q-1.05-.45-1.05-2.7a2.554,2.554,0,0,1,2.4-2.7,86.654,86.654,0,0,0,10.5-2.1q3.75-1.05,5.7-1.8a8.418,8.418,0,0,1,3.45-.9,3.026,3.026,0,0,1,1.95.6q.9.45.9,2.25v48.3h.3q3-2.85,6.15-5.4a25.525,25.525,0,0,1,7.35-4.35,27.889,27.889,0,0,1,10.65-1.8q10.2,0,16.2,6.15t6,16.2v31.95q0,2.55.15,4.95a6.465,6.465,0,0,0,1.8,3.9q1.65,1.35,5.7,1.35a7.8,7.8,0,0,1,2.4.3q.9.15,1.05,2.4a4.2,4.2,0,0,1-.6,2.1,1.676,1.676,0,0,1-1.65.9q-4.35-.3-8.1-.45h-15.3q-3.6.15-7.95.45a2.019,2.019,0,0,1-1.8-.9,4.2,4.2,0,0,1-.6-2.1q.15-2.25,1.05-2.4a7.8,7.8,0,0,1,2.4-.3q4.2,0,5.7-1.35a5.52,5.52,0,0,0,1.8-3.9q.15-2.4.15-4.95v-31.8q0-7.5-4.5-10.8a15.7,15.7,0,0,0-9.75-3.45,19.869,19.869,0,0,0-9,1.95,21.62,21.62,0,0,0-6.3,4.2,17.441,17.441,0,0,0-3.3,4.2v35.7q0,2.55.15,4.95a6.465,6.465,0,0,0,1.8,3.9q1.65,1.35,5.7,1.35a7.8,7.8,0,0,1,2.4.3q.9.15,1.05,2.4a4.2,4.2,0,0,1-.6,2.1,1.676,1.676,0,0,1-1.65.9q-4.35-.3-8.1-.45h-15.3Q783.766,566.15,779.416,566.45Zm93.951,32.25a18.2,18.2,0,0,1-8.25-1.95,16.108,16.108,0,0,1-6-5.25,11.617,11.617,0,0,1-2.25-6.9,11.218,11.218,0,0,1,1.8-6.3,8.834,8.834,0,0,1,3.45-3,13.787,13.787,0,0,1,3.3-.9q1.35-.15,1.05-.15a7.552,7.552,0,0,1,4.35,1.05q1.5,1.2,1.5,1.95,0,.3-1.2,1.35a6.709,6.709,0,0,0-1.2,4.05,8.174,8.174,0,0,0,1.65,5.25,6.331,6.331,0,0,0,5.55,2.55,11.091,11.091,0,0,0,7.65-3.15,30.875,30.875,0,0,0,6.15-7.5,93.531,93.531,0,0,0,4.65-8.7,10.892,10.892,0,0,0-.15-6.9q-3.6-8.1-7.05-17.25t-6.75-17.7a162.272,162.272,0,0,0-6.3-15q-2.4-5.55-4.65-7.8a10.9,10.9,0,0,0-6.75-3,14.073,14.073,0,0,1-2.7-.6q-.6-.3-.75-2.25-.15-2.55,1.35-2.7a35.217,35.217,0,0,1,3.9-.45q9.3-.45,14.55,2.7t8.55,10.65q2.1,4.65,4.65,11.55t5.4,13.95q2.85,7.05,5.55,12.75h.45l14.7-39.3q1.5-4.35.15-5.4t-5.85-1.05a14.044,14.044,0,0,1-2.25-.15q-.9-.3-1.05-2.55a4.979,4.979,0,0,1,.45-1.95,1.834,1.834,0,0,1,1.65-1.05q4.35.15,7.5.3t7.05.15h4.35q1.65-.15,3.45-.15,1.8-.15,4.65-.3a1.645,1.645,0,0,1,1.65,1.05,3.975,3.975,0,0,1,.6,1.95q-.15,2.25-1.2,2.55a12.921,12.921,0,0,1-2.1.15,15.345,15.345,0,0,0-7.95,1.8q-2.85,1.8-4.95,7.05l-1.65,3.9q-1.5,3.9-4.05,10.2t-5.4,13.35q-2.85,6.9-5.4,13.2t-4.2,10.35q-1.65,4.05-1.8,4.35-1.95,4.65-4.8,10.05a53.38,53.38,0,0,1-6.45,10.2,32,32,0,0,1-8.25,7.8A18.046,18.046,0,0,1,873.367,598.7Zm75.713-32.25a2.271,2.271,0,0,1-1.8-.9,4.2,4.2,0,0,1-.6-2.1q.3-2.25,1.2-2.4a7.8,7.8,0,0,1,2.4-.3q4.2,0,5.7-1.35a5.818,5.818,0,0,0,1.65-3.9,39.884,39.884,0,0,0,.3-4.95V516.2a37.609,37.609,0,0,0-.3-4.95,5.255,5.255,0,0,0-1.65-3.75q-1.5-1.5-5.7-1.5a10.484,10.484,0,0,1-2.55-.3q-1.05-.45-1.05-2.7a2.554,2.554,0,0,1,2.4-2.7,86.649,86.649,0,0,0,10.5-2.1q3.75-1.05,5.7-1.8a13.578,13.578,0,0,1,3.45-.9,2.5,2.5,0,0,1,1.95.45,2.7,2.7,0,0,1,.9,2.4v52.2q0,2.55.15,4.95a6.465,6.465,0,0,0,1.8,3.9q1.65,1.35,5.85,1.35a7.207,7.207,0,0,1,2.25.3q1.05.15,1.2,2.4a4.2,4.2,0,0,1-.6,2.1,2.019,2.019,0,0,1-1.8.9q-4.35-.3-8.1-.45h-15.3Q953.43,566.15,949.08,566.45Zm14.85-87.6a10.186,10.186,0,0,1-7.05-2.55,8.743,8.743,0,0,1-2.85-6.6q0-3.45,3.45-6.15a12.326,12.326,0,0,1,7.8-2.7,7.857,7.857,0,0,1,6.15,2.7,9.24,9.24,0,0,1,2.4,6.6,7.964,7.964,0,0,1-2.85,6.15A10.186,10.186,0,0,1,963.93,478.85Z" transform="translate(15.475 -303.26)" fill="#7e844a"/>
    </g>
  </g>
</svg>
