<svg xmlns="http://www.w3.org/2000/svg" width="1773.151" height="1523.955" viewBox="0 0 1773.151 1523.955">
  <g id="Group_1041" data-name="Group 1041" transform="translate(-8890.004 -7835.952)">
    <g id="Layer_1" data-name="Layer 1" transform="translate(8645 7835.65)">
      <path id="Path_3655" data-name="Path 3655" d="M548,1086.66l-29.78-9.27L529.19,1048l29.9,9.51Zm-27.17-10.56,26,8.09,9.64-25.43-26.07-8.29Z" fill="#7E844A" stroke="#7E844A" stroke-miterlimit="10" stroke-width="2"/>
      <path id="Path_3656" data-name="Path 3656" d="M620,1293.16l-23.47-25.32,1.91-1.78,13.2-1.4,51.24-47.51,4.3-10.8,1.84-1.71,19.47,21-1.84,1.7-11.1,3.48-51.23,47.51-2.4,13.05ZM599.38,1268l20.71,22.33,2.38-13,.24-.23,51.82-48,11.13-3.52-16.75-18.06h0l-4.3,10.8-.17.15-51.89,48.12Z" fill="#7E844A" stroke="#7E844A" stroke-miterlimit="10" stroke-width="2"/>
      <path id="Path_3657" data-name="Path 3657" d="M714.57,1368.84c-5.15,0-12.9-2.64-25.21-12.73l-31.67-26,1.56-1.9,12.28-3.67,44-53.7,1.32-13.32,1.56-1.9,25.91,21.24-1.56,1.89-13,4.11L682,1341.2l10.71,8.79c6.76,5.54,14.79,5.2,22-.93l1.22-1,4.92,19.33-.78.34a13.569,13.569,0,0,1-5.5,1.11Zm-54-38.91,30,24.63c16,13.08,23.55,13.15,27.88,11.6l-3.72-14.59c-7.7,5.85-16.14,5.86-23.34,0l-12.26-10,49.46-60.32,12.8-4.05-22.66-18.58-1.31,13.14-.19.24-44.6,54.4Z" fill="#7E844A" stroke="#7E844A" stroke-miterlimit="10" stroke-width="2"/>
      <path id="Path_3658" data-name="Path 3658" d="M813.78,1432.88c-5.13,0-12.67-2.05-24.21-8.75l-35.42-20.56,1.23-2.13,11.54-5.59,34.87-60-.83-13.37,1.23-2.12,29,16.82-1.23,2.12-12.15,6.13-37.87,65.21,12,7c7.56,4.39,15.42,2.77,21.58-4.44l1-1.22,8,18.29-.72.46a14,14,0,0,1-8.02,2.15Zm-56.81-30,33.6,19.51c17.84,10.36,25.36,9.21,29.38,7l-6-13.81c-6.67,7-15,8.37-23.05,3.7l-13.71-8,39.17-67.46,12-6L803,1323.09l.82,13.19-.15.26-35.33,60.84Z" fill="#7E844A" stroke="#7E844A" stroke-miterlimit="10" stroke-width="2"/>
      <path id="Path_3659" data-name="Path 3659" d="M912.49,1479.72a37,37,0,0,1-12.89-2.48c-11.23-4.19-18.6-9.35-22.51-15.78-4.23-6.92-4.45-15.18-.69-25.25L895.52,1385l-1.89-11.77.89-2.39,28.75,10.73-.9,2.4-9.38,7.56-18.76,50.26c-4,10.57-3.24,23.69,10.58,28.85,11,4.09,20.87-.91,25.28-12.73l19.64-52.61L946.4,1393l.91-2.43,22.51,8.4-.91,2.44-10.71,7.08-19.32,51.76C934.18,1472.8,924.42,1479.72,912.49,1479.72Zm-35.15-43.16.93.35c-3.53,9.46-3.36,17.15.52,23.51,3.68,6,10.72,10.91,21.51,14.95,16.67,6.21,30.73.14,36.7-15.86l19.55-52.37,10.66-7.05-18.7-7,3.32,12.27L932,1458.59c-4.83,13-15.77,18.42-27.85,13.91-10-3.72-18.29-13.93-11.76-31.43l19-50.77,9.38-7.57-25-9.34h0l1.89,11.78-.09.25-19.22,51.47Z" fill="#7E844A" stroke="#7E844A" stroke-miterlimit="10" stroke-width="2"/>
      <path id="Path_3660" data-name="Path 3660" d="M1029.27,1511.8a52.324,52.324,0,0,1-9.91-1c-10.59-2-17-6.49-19.55-8.62l-8.22,1.44-2.92-.57,5.08-26.35,5.82,1.12v.83c0,13.16,8.07,22.9,21.09,25.41,12.13,2.34,20.44-1.72,22.21-10.87,2.28-11.82-7.55-18.37-17.95-25.3-11.91-8-25.42-17-21.84-35.46,1.66-8.6,6.55-14.81,14.16-18,8.08-3.34,16.79-2.39,21.26-1.53,16.07,3.1,25,10.28,27.36,22l.16.8-16.66,7.08-3.47-.68.58-1.17a20.8,20.8,0,0,0,1.88-5.89c.81-4.22.22-7.7-1.76-10.35s-5.4-4.49-10.09-5.4-8.49-.45-11.39,1.24a11.28,11.28,0,0,0-5.28,8c-2.24,11.59,7,17.66,17.62,24.69,12.17,8,26,17.12,22.17,36.73a25.11,25.11,0,0,1-13.73,18.18A36.3,36.3,0,0,1,1029.27,1511.8Zm-28.87-11.74.35.31c4.5,3.88,11.59,7.05,19,8.48,9.62,1.86,18.36,1,25.24-2.53a23.2,23.2,0,0,0,12.68-16.78c3.53-18.3-9.1-26.63-21.31-34.68-10.79-7.12-21-13.84-18.49-26.74a13.271,13.271,0,0,1,6.24-9.31c3.32-1.93,7.74-2.44,12.77-1.47,5.2,1,9,3.08,11.32,6.17s3,7.13,2.12,11.92a24.739,24.739,0,0,1-1.5,5.21l.33.07,14.58-6.2c-2.41-10.32-10.8-16.73-25.6-19.59-4.25-.82-12.52-1.73-20.12,1.41-7,2.92-11.41,8.46-13,16.49-3.32,17.2,9,25.44,21,33.41,11,7.32,21.33,14.23,18.8,27.35-2,10.22-11.38,15-24.55,12.46-13.53-2.62-22.37-13-22.7-26.56l-2.24-.43L991,1501.48l.6.12Z" fill="#7E844A" stroke="#7E844A" stroke-miterlimit="10" stroke-width="2"/>
      <path id="Path_3661" data-name="Path 3661" d="M1155.26,1523.22l-34-1.22.09-2.47,8.07-10.47,2.72-76.24-10.6-.38-18.2,18.06-3.32-.12,6-25.1,71.25,2.54,4.24,25.48-3.32-.12-16.87-19.31-10.59-.38-2.73,76.23,7.29,11Zm-31.81-3.14,29.76,1.06-7.18-10.85V1510l2.81-78.55,13.46.48,16.87,19.31-3.56-21.45-68-2.43-5.09,21.14h0l18.2-18.06,13.46.48-2.82,78.88Z" fill="#7E844A" stroke="#7E844A" stroke-miterlimit="10" stroke-width="2"/>
      <path id="Path_3662" data-name="Path 3662" d="M1230.63,1521.27l-.35-2.58,6.43-11.61-9.41-69-9.71-9.53-.33-2.47,30-4.1c10-1.37,40.45-5.52,43.72,18.43,1.32,9.7-2.45,17.22-11.21,22.34a49.527,49.527,0,0,1-15.23,5.4l10.51,2,37.3,44.06-4.52.62-20.27-4.79-.21-.24-34.24-40-2.65.37,4.68,34.34,9,9.49.36,2.58Zm-11-93.49,9.53,9.36v.34l9.55,70-6.4,11.55,29.92-4.09-9-9.45-5-37,5.71-.78h0l5.42-.74c8-1.09,14.5-3.1,19.41-6,8-4.67,11.44-11.51,10.24-20.34-3-22-32-18-41.47-16.72Zm69,80.51,19.26,4.55.55-.08L1274,1472l-19.64-3.8Zm-40.81-42.36-5.27-38.65,5.31-.72c16.56-2.27,25.8,2.69,27.44,14.71,1.91,14-4.57,21.53-20.4,23.69Zm-3-36.94,4.74,34.69,5.1-.7c14.67-2,20.43-8.61,18.68-21.44-1.49-10.86-9.73-15.11-25.19-13Z" fill="#7E844A" stroke="#7E844A" stroke-miterlimit="10" stroke-width="2"/>
      <path id="Path_3663" data-name="Path 3663" d="M1355.37,1500.34l-.8-2.51,5-12.93,4.74-67.55-10.19-12.14,15.35-12,58,69.92,10.27,8.18.75,2.34-31.41,10.07-.74-2.3,2.64-11.94-14-16.57-25.67,8.23-1.39,21.46,9.9,7.79.79,2.46Zm1.6-94.82,9.38,11.16-4.87,68.8-4.76,12.33,19.36-6.21-10.22-8,1.55-23.87,28.23-9.06,15.5,18.35-2.71,12.25,27.44-8.81-9.88-7.89L1369.16,1396Zm10.69,50.8,2.27-36.2,23.59,27.9Zm4-31.11-1.78,28.31,20.22-6.49Z" fill="#7E844A" stroke="#7E844A" stroke-miterlimit="10" stroke-width="2"/>
      <path id="Path_3664" data-name="Path 3664" d="M1488.85,1451l-1.11-2.21,2.06-13.06-34.11-68.23-9.48,4.74-7.33,24.57-3,1.48-6.71-24.93,63.77-31.88,15.92,20.33-3,1.49-24.05-8.88-9.49,4.74,34.11,68.23,11.69,6.19,1.1,2.21Zm-32.26-86.19,35.29,70.6-2,12.85,26.63-13.31-11.5-6.09-35.29-70.59,12-6,24,8.88h0L1492.4,1344l-60.85,30.41,5.65,21h0l7.33-24.57Z" fill="#7E844A" stroke="#7E844A" stroke-miterlimit="10" stroke-width="2"/>
      <path id="Path_3665" data-name="Path 3665" d="M1593.07,1381.09c-14.86,0-28.9-7-38.89-20.63h0c-17.39-23.7-12.64-52.64,11.53-70.39,12-8.82,25.69-12.87,38.5-11.4,13.25,1.52,24.85,8.59,33.55,20.45,17.07,23.26,12.1,52.88-11.82,70.43C1615.39,1377.29,1604,1381.09,1593.07,1381.09Zm-37.28-21.82c16.65,22.69,45,26.25,69,8.66,23-16.86,27.77-45.31,11.39-67.63-8.36-11.39-19.48-18.19-32.17-19.64-12.29-1.41-25.47,2.5-37.08,11-23.26,17.08-27.83,44.87-11.14,67.61Zm51.67,11a38.491,38.491,0,0,1-12-2c-10.8-3.58-21.22-11.65-29.34-22.71-15.25-20.78-15-39.27.55-50.72,16.43-12.06,42.14-4,58.53,18.32h0c7,9.6,11.06,19.15,11.63,27.61.65,9.77-3.14,17.75-11.26,23.71a30.12,30.12,0,0,1-18.11,5.78Zm-23.14-79.07a27.5,27.5,0,0,0-16.5,5.22c-8.56,6.29-20,20.87-.12,47.93,7.88,10.73,18,18.54,28.36,22s20.5,2.22,28.29-3.5c7.54-5.53,11.06-12.92,10.45-22-.54-8.09-4.43-17.28-11.24-26.56-10.85-14.77-25.87-23.1-39.24-23.1Z" fill="#7E844A" stroke="#7E844A" stroke-miterlimit="10" stroke-width="2"/>
      <path id="Path_3666" data-name="Path 3666" d="M1705.8,1298.49l-1.94-1.75-2.61-13-51.83-46.51-13.56-1-1.86-1.66,20.26-22.57c3.06-3.41,10.23-11.41,18.64-16.08,10.08-5.58,19-5,26.62,1.84,7.28,6.54,9.27,14.71,5.9,24.28a49.423,49.423,0,0,1-8.11,14l9.32-5.25,57,9.45-3,3.4-18.55,9.47-52.29-8.37-1.79,2,25.8,23.15,13,1.38,1.94,1.74Zm-68.87-64.17,13.32,1,.25.23,52.58,47.17,2.59,13,20.17-22.48-13-1.38-27.76-24.91,3.85-4.3h0l3.66-4.07c5.37-6,9.05-11.75,10.94-17.11,3.07-8.74,1.27-16.19-5.36-22.13-6.88-6.18-15.06-6.71-24.31-1.58-8.12,4.51-15.13,12.33-18.12,15.66Zm52.64,8.35,52.09,8.34,17.64-9,.37-.41-52.67-8.74Zm-6.43,2.45-29-26,3.58-4c11.17-12.45,21.41-14.65,30.44-6.55,10.52,9.44,10.45,19.38-.21,31.27Zm-26.2-26.2,26,23.38,3.44-3.83c9.89-11,10-19.79.36-28.44-8.15-7.32-17.19-5.23-27.62,6.39Z" fill="#7E844A" stroke="#7E844A" stroke-miterlimit="10" stroke-width="2"/>
      <path id="Path_3667" data-name="Path 3667" d="M1802,1084.23,1790.52,1055l29.61-9.79,11.56,29Zm-8.82-28,10,25.46,25.92-8.74-10.1-25.23Z" fill="#7E844A" stroke="#7E844A" stroke-miterlimit="10" stroke-width="2"/>
      <path id="Path_3668" data-name="Path 3668" d="M509.62,531.39A53.8,53.8,0,0,1,488.53,527c-13.19-5.66-23-15.43-27.75-27.53-4.61-11.87-4.12-25.5,1.39-38.35,7.74-18.06,23.76-29.85,40.83-30h.72l8.3,24.11-2.31-1.32a33.51,33.51,0,0,0-26.84-2.89,25,25,0,0,0-15.36,13.83c-3.5,8.16-2.67,16.64,2.4,24.52,4.59,7.14,12.32,13.3,21.76,17.34,12.22,5.24,23.89,6.55,33.75,3.82a31.13,31.13,0,0,0,20.85-18.35c3.3-7.7,3.59-15,.84-21.09-2.35-5.2-7-9.54-13-12.28L515.18,477.3l-2.96-1.3,14.21-33.15,42.33,18.14-1.46,3.39-11.07,2.33c3.73,8.69,3.09,20.86-1.75,32.15-6.74,15.74-17.43,26.29-30.91,30.5a46.941,46.941,0,0,1-13.95,2.03Zm-7.32-98.34c-16,.51-31,11.74-38.29,28.81-5.3,12.38-5.79,25.46-1.36,36.85,4.56,11.76,13.79,20.89,26.67,26.41,11,4.7,23.24,5.53,33.65,2.28,12.91-4,23.17-14.19,29.67-29.37,4.84-11.29,5.32-23.41,1.26-31.65l-.56-1.16,12.54-2.63.25-.6-38.65-16.57L515,474.6l18.68-18.25.62.26c6.82,2.92,12,7.74,14.65,13.56,3,6.62,2.7,14.47-.82,22.71A33,33,0,0,1,526,512.36c-10.31,2.86-22.44,1.51-35.08-3.9-9.8-4.2-17.85-10.63-22.65-18.1-5.44-8.46-6.33-17.59-2.56-26.39A27,27,0,0,1,482.23,449a35.45,35.45,0,0,1,26.21,1.87Z" fill="#7E844A" stroke="#7E844A" stroke-miterlimit="10" stroke-width="2"/>
      <path id="Path_3669" data-name="Path 3669" d="M585.13,431.77l-2.19-1.43-4.56-12.46-58.31-38.06-13.55,1.09-2.09-1.37L521,354.15c5.52-8.46,22.31-34.18,42.56-21,8.2,5.35,11.4,13.12,9.54,23.1a49.261,49.261,0,0,1-5.9,15l8.42-6.61,57.73.66-2.49,3.83L614,381.38l-53-.3-1.46,2.24,29,18.95,13.1-.62,2.18,1.42Zm-64.53-54,59.4,38.8,4.54,12.4,16.51-25.29L588,404.3l-31.24-20.4,6.15-9.41c4.39-6.74,7.15-13,8.2-18.58,1.71-9.1-1.21-16.19-8.66-21.05-18.57-12.13-34.55,12.34-39.8,20.38l-15.4,23.6Zm40,1.31,52.76.3,16-11.58.31-.47-53.39-.61Zm-6,3.4-32.66-21.33,2.93-4.48c9.14-14,18.93-17.74,29.09-11.11,6,3.9,9.23,8.31,10,13.47s-1,10.79-5.41,17.46Zm-29.89-21.91L554,379.71l2.82-4.31c4.08-6.25,5.74-11.51,5.1-16.09s-3.61-8.51-9.08-12.07c-9.18-6-17.78-2.55-26.32,10.52Z" fill="#7E844A" stroke="#7E844A" stroke-miterlimit="10" stroke-width="2"/>
      <path id="Path_3670" data-name="Path 3670" d="M642.93,346.34,641,344.56l-2.07-13.71-29.35-61-14.88-5.49,7.41-18,85,32,13,2,1.81,1.66-22.29,24.32-1.79-1.64L674.21,293l-20.37-7.45L635.63,305.4l9.42,19.33,12.47,1.86,1.9,1.75Zm-45.6-83.16L611,268.23l.17.37,29.66,61.65,2,13.22,13.74-15-12.87-1.93-10.48-21.49,20-21.86,22.56,8.26,3.71,12L699,282.19l-12.49-2L603.2,248.85ZM631.79,302l-16-32.57L650.14,282Zm-12-29,12.51,25.5,14.35-15.66Z" fill="#7E844A" stroke="#7E844A" stroke-miterlimit="10" stroke-width="2"/>
      <path id="Path_3671" data-name="Path 3671" d="M722.61,263.61,721,261.56l-.54-13.1-43.1-54.7-13-3.28-1.62-2.06,26.93-21.22c8.49-6.69,16-10.84,22.86-12.71,10.36-2.8,18.84-.14,25.19,7.92h0c6.49,8.25,7.21,17.66,2.09,27.24-4,7.55-10.54,13.13-13.15,15.18a38.39,38.39,0,0,1-11.82,6.35l20.27,25.73,13,3.27,1.63,2.06Zm-57.05-74.88L678.5,192l43.92,55.75.54,13,23.92-18.84-12.94-3.26-22.56-28.63,1.48-.38a35.82,35.82,0,0,0,12.55-6.41c2.5-2,8.74-7.34,12.61-14.56,4.79-8.94,4.16-17.37-1.89-25h0c-5.81-7.37-13.58-9.8-23.1-7.23-6.63,1.79-13.87,5.83-22.14,12.35Zm44,19-24.46-31,6.62-5.22c6.62-5.21,12.49-7.65,17.95-7.46s10.36,3.08,14.71,8.6c5,6.37,6.74,12.59,5.13,18.47-1.41,5.12-5.08,8.85-7.91,11.08a26.761,26.761,0,0,1-11.45,5.45ZM687.89,177l22.46,28.51a25.29,25.29,0,0,0,10-4.94c2.59-2,5.94-5.44,7.21-10,1.44-5.24-.17-10.86-4.77-16.7h0c-4-5.11-8.34-7.67-13.21-7.84s-10.5,2.19-16.64,7Z" fill="#7E844A" stroke="#7E844A" stroke-miterlimit="10" stroke-width="2"/>
      <path id="Path_3672" data-name="Path 3672" d="M805.77,200.72l-1.24-2.29,1.62-13.12-33.37-61.48-10.4-6-1.23-2.25,27.53-14.94,1.23,2.25-.74,12.06,14.41,26.56,31.56-17.13L820.72,97.81l-10.51-6L809,89.61l27.4-14.89L837.62,77l-.52,11.94,33.38,61.48,11.89,5.79,1.24,2.28-29.44,16-1.24-2.27,1.17-12.88-15.56-28.67L807,147.76l15.57,28.67,11.43,6,1.24,2.28Zm-41.9-84.34,10.4,6,.13.25,33.82,62.29L806.6,198l25.89-14.05-11.41-6-16.81-31,35.07-19,16.81,31L855,171.73l25.89-14.06L869,151.91l-.15-.28-33.8-62.26.52-11.93h0l-23.89,13,10.51,5.94,15.64,28.82-35.07,19-15.64-28.82.73-12Z" fill="#7E844A" stroke="#7E844A" stroke-miterlimit="10" stroke-width="2"/>
      <path id="Path_3673" data-name="Path 3673" d="M915.33,146.2l-.91-2.45L918.18,131,893.93,65.49l-8.33-8.11L884.73,55l26.86-9.94.87,2.35-1,11.58,24.25,65.54,11.13,7.21.91,2.45Zm-28-89.94,8.33,8.12.08.21L920.28,131l-3.74,12.66,28.56-10.57L934,125.87,909.39,59.29l1-11.58v-.05L887.3,56.21Z" fill="#7E844A" stroke="#7E844A" stroke-miterlimit="10" stroke-width="2"/>
      <path id="Path_3674" data-name="Path 3674" d="M1012.38,116.29c-10.88,0-20.58-3.15-28.54-9.35-9-7-15.65-18-18.35-30.18h0c-3.06-13.82-.61-27.47,6.89-38.44a51.16,51.16,0,0,1,31.53-20.79c19.88-4.4,38.24,1.74,47.91,16l.39.57-15,21.09-.28-2.62c-1.08-10.08-6.09-19.23-13.4-24.48A23.89,23.89,0,0,0,1003.91,24c-19,4.2-24.64,25.72-20.42,44.81,2.88,13,8.52,23.3,16.34,29.81a30.48,30.48,0,0,0,27,6.53c19.05-4.21,22.38-18.3,22.93-24.16l.07-.73,5.44-1.2,5.77,26.09-3.43.75-8-3.64c-6.32,6.34-13.75,10.29-23.31,12.4a64.37,64.37,0,0,1-13.92,1.63Zm-44.94-40c2.6,11.75,9,22.33,17.63,29,10.73,8.35,24.84,10.9,40.82,7.37,9.41-2.08,16.66-6,22.8-12.35l.49-.51,8.66,4,.82-.18-4.91-22.19-2.07.46c-.79,6.67-4.82,20.88-24.41,25.21a32.46,32.46,0,0,1-28.73-7c-8.15-6.81-14-17.5-17-30.92-4.44-20.06,1.67-42.71,21.93-47.19a25.89,25.89,0,0,1,21.18,4.4c7.14,5.14,12.22,13.75,13.87,23.38l11.25-15.76c-9.3-13.18-26.64-18.78-45.43-14.62a49.21,49.21,0,0,0-30.31,20c-7.19,10.5-9.53,23.6-6.59,36.88Z" fill="#7E844A" stroke="#7E844A" stroke-miterlimit="10" stroke-width="2"/>
      <path id="Path_3675" data-name="Path 3675" d="M1201.92,101.49c-1,0-2.07,0-3.09-.08C1190,101,1183,98,1178.84,93l-.28,5.65-25.41-1.25.13-2.59,7.82-10.25,3.43-69.69-7.67-10.9.13-2.62,32.46,1.6c20.82,1,55.42,9.29,53.26,53.12h0C1240.88,93.12,1220.19,101.49,1201.92,101.49Zm-24.77-14.85,1.69,2.87c3.5,5.92,10.63,9.43,20.09,9.9,32.69,1.61,40.76-22.75,41.78-43.48.93-18.72-5-32.56-17.52-41.15-10.68-7.31-24.3-9.4-33.83-9.87l-30.42-1.5,7.62,10.83v.34l-3.49,70.66-7.79,10.22,21.39,1.06Zm22.1,9.24h-1.43c-8.83-.44-15.68-5.17-19.82-13.68l-.11-.23,3.69-74.8,7.65.38c12.59.62,21.94,5.15,27.79,13.47,5.71,8.13,8.22,20.13,7.46,35.68h0c-.69,14-3.28,24-7.9,30.47C1212.46,93,1206.63,95.88,1199.25,95.88Zm-19.34-14.36c3.81,7.67,10,11.93,18,12.33,7.44.36,13-2.21,17-7.87,4.33-6.1,6.87-16,7.53-29.41.74-15.09-1.65-26.67-7.1-34.43s-14.31-12-26.25-12.62l-5.65-.28Z" fill="#7E844A" stroke="#7E844A" stroke-miterlimit="10" stroke-width="2"/>
      <path id="Path_3676" data-name="Path 3676" d="M1335.66,119.11c-5.36,0-12.8-1.15-24.69-3.79l-40.62-9,.56-2.53,9.39-8.68L1295.36,27l-6.83-12.39.57-2.6,65.41,14.46V49.65l-4-.88L1336.59,29.3,1315,24.54l-7.09,32.06,15,3.32,11.39-4,2.76.61-4.94,22.33-2.73-.6-8.11-11.37-14.9-3.3-9.22,41.69,10.9,2.41c13.42,3,21,.61,27.88-8.7l.89-1.2,11,18.23-.95.5A22.471,22.471,0,0,1,1335.66,119.11Zm-62.9-14.28,38.64,8.54c21,4.65,27.63,4.62,33.63,1.8l-8.38-13.86c-7.16,9-15.43,11.3-29,8.29l-12.86-2.84,10.09-45.59,17.6,3.89,8.14,11.38L1334.68,58l-.24-.06-11.39,4-17.51-3.87,8-36,24.36,5.38L1351.78,47l.78.17V28.09l-61.8-13.66,6.77,12.28-.08.37-15.28,69.08Z" fill="#7E844A" stroke="#7E844A" stroke-miterlimit="10" stroke-width="2"/>
      <path id="Path_3677" data-name="Path 3677" d="M1420.3,149.11a47.14,47.14,0,0,1-17.11-3.49c-10-3.94-15.52-9.49-17.65-12l-8.35-.09-2.77-1.08,9.8-25,5.52,2.16-.15.81c-2.41,12.94,3.76,24,16.11,28.84,11.51,4.51,20.41,2,23.81-6.64,4.4-11.21-4.07-19.44-13-28.16-10.27-10-21.9-21.29-15-38.84,3.2-8.16,9.15-13.37,17.2-15.08,8.55-1.81,16.95.72,21.19,2.38,15.23,6,22.72,14.67,22.89,26.57v.82l-17.67,3.92-3.29-1.3.78-1.05a20.9,20.9,0,0,0,2.92-5.44c3.16-8,.12-14.15-8.78-17.65-4.32-1.69-8.27-2-11.42-.86a11.29,11.29,0,0,0-6.65,6.87c-4.31,11,3.63,18.63,12.83,27.48,10.5,10.11,22.4,21.57,15.11,40.16a25.15,25.15,0,0,1-16.82,15.38,33.339,33.339,0,0,1-9.5,1.29Zm-42.72-17.61,8.92.08.3.38c3.71,4.63,10.11,9,17.12,11.8,9.13,3.58,17.87,4.31,25.28,2.11a23.21,23.21,0,0,0,15.53-14.19c6.8-17.35-4.1-27.84-14.64-38-9.31-9-18.1-17.42-13.3-29.65a13.23,13.23,0,0,1,7.83-8c3.62-1.3,8.06-1,12.83.88,10,3.92,13.5,11.1,9.92,20.24a25.064,25.064,0,0,1-2.43,4.85l.31.12,15.47-3.43c-.49-10.59-7.57-18.42-21.6-23.93-4-1.58-12-4-20-2.28-7.46,1.58-12.76,6.24-15.75,13.85-6.4,16.31,4.25,26.67,14.55,36.68,9.46,9.19,18.39,17.87,13.51,30.32-3.81,9.69-13.93,12.67-26.42,7.77-12.83-5-19.62-16.85-17.48-30.25l-2.12-.83L1377,131.27Z" fill="#7E844A" stroke="#7E844A" stroke-miterlimit="10" stroke-width="2"/>
      <path id="Path_3678" data-name="Path 3678" d="M1496.69,188.48l-30.3-16.56,1.26-2.3,12.06-5.51,33.53-61.31.66-11.61,1.2-2.2,25.13,13.74-1.21,2.2-9.42,6.81-33.52,61.31,1.86,13.14Zm-27.55-17.34,26.72,14.61L1494,172.68l.16-.29,33.9-62,9.45-6.87L1515.89,91.7h0l-.66,11.61-34.06,62.29Z" fill="#7E844A" stroke="#7E844A" stroke-miterlimit="10" stroke-width="2"/>
      <path id="Path_3679" data-name="Path 3679" d="M1598,258.81l-3-2.22.34-11.3c-9.33,1.58-21-1.9-30.85-9.26-13.71-10.25-21.45-23.12-22.38-37.21-.75-11.52,3-23.42,10.52-33.5,8.59-11.5,20.41-18.78,33.27-20.51,12.62-1.69,25.75,2,36.95,10.36,15.74,11.76,23.43,30.11,19.61,46.74l-.16.7L1616.93,205l1.83-1.94a33.48,33.48,0,0,0,9.11-25.41A24.91,24.91,0,0,0,1618,159.5c-11.17-8.36-30.45-7.65-46.37,13.65s-15.39,44,1.31,56.48c15,11.22,28,5.38,35.3-4l-13.54-22.74,1.92-2.57,28.89,21.59Zm-.93-3.19.52.39,25.18-33.68-25.43-19,13.36,22.45-.4.54c-4.44,5.94-10.35,9.87-16.63,11.05-7.13,1.36-14.7-.77-21.87-6.13-17.66-13.2-18.34-37-1.71-59.28,6.39-8.54,14.53-14.85,22.91-17.77,9.51-3.3,18.59-2,26.26,3.71a27,27,0,0,1,10.63,19.61,35.42,35.42,0,0,1-8,25l18.79-1.78c3.27-15.67-4.14-32.87-19-44-10.79-8.05-23.39-11.6-35.5-10-12.5,1.67-23.54,8.49-31.93,19.72-7.15,9.56-10.83,21.29-10.12,32.17.89,13.49,8.35,25.85,21.58,35.74,9.83,7.35,21.51,10.67,30.47,8.66l1.25-.28Z" fill="#7E844A" stroke="#7E844A" stroke-miterlimit="10" stroke-width="2"/>
      <path id="Path_3680" data-name="Path 3680" d="M1672.58,336.38l-3.82-4.1,17.51-89.62-43.83,40.79L1639.63,296l-1.9,1.77-16.1-17.31,1.81-1.69,13.29-1.52,50.73-47.2,3.09-12.84,1.89-1.76,15.77,17-14,72.37,34-31.64,2.55-12.69,1.9-1.77,15.93,17.12-1.9,1.77-12.75,1.72Zm-1.66-4.72,1.77,1.9L1733,277.41l12.7-1.71-13.17-14.15L1730,274.18l-.24.22-46.67,43.43,9.14-13.59,13.78-71.19-13.7-14.74-3.09,12.83-.22.2-51.43,47.85-13.07,1.49L1637.82,295l2.8-12.55,48.8-45.39Z" fill="#7E844A" stroke="#7E844A" stroke-miterlimit="10" stroke-width="2"/>
      <path id="Path_3681" data-name="Path 3681" d="M1746.72,427.86l-1-.31c-7.31-2.19-12.19-6.43-25-25.86L1697.83,367l2.17-1.43,12.78.32L1771,327.48l3.73-13.65,2.22-1.46,36.84,55.94L1797.72,385l-2.24-3.4,3.58-23.67-12.2-18.52-27.42,18.06,8.45,12.83,11,5,1.55,2.36-19.1,12.58-1.53-2.33,2.1-13.8-8.4-12.75-35.65,23.48,6.14,9.33c7.56,11.47,14.63,15,26.06,13.17l1.47-.24Zm-46.1-60.32,21.76,33c11.83,18,16.61,22.56,22.87,24.72l3.65-15.78c-11.4,1.45-18.94-2.65-26.59-14.26l-7.24-11,39-25.68,9.92,15.06-2.1,13.8h0l15.76-10.38-.13-.21-11-5-9.86-15,30.76-20.26,13.72,20.83-3.58,23.67.44.67,13.26-13.71-34.81-52.86-3.7,13.53-.32.2-59.08,38.92Z" fill="#7E844A" stroke="#7E844A" stroke-miterlimit="10" stroke-width="2"/>
      <path id="Path_3682" data-name="Path 3682" d="M1784.07,534.19l-1.86-4.17-1.08-20.8,29-44.33-1.09-2.45-31.65,14.12-6.58,11.34-2.38,1.06-14-31.3,2.39-1.06,12.94,2.92,63.59-28.36,6.44-12,2.27-1,12.36,27.69c4.11,9.23,16.62,37.29-5.46,47.14a22.781,22.781,0,0,1-9.35,2.13c-9.39,0-17.89-6.75-24.68-19.75l1,10.66Zm.12-4.65.22.51,29.46-44.53L1812,465.6l-28.86,44.17Zm27.67-65.6,2.73,6.13c11.09,24.86,24.37,25.19,33.56,21.09,20.25-9,8.35-35.72,4.44-44.49l-11.48-25.74-6.32,11.78L1770,461.62l-12.87-2.91,12.3,27.58,6.55-11.3L1810,459.8l1.85,4.14Zm21.73,16.74a15.41,15.41,0,0,1-6.54-1.41c-4.66-2.15-8.5-6.73-11.74-14l-2.91-6.53,35.6-15.9,2.18,4.89c6.81,15.28,4.64,25.53-6.44,30.47a25.112,25.112,0,0,1-10.15,2.48ZM1815,459.74l2.09,4.7c3,6.82,6.56,11.08,10.76,13S1837,479,1843,476.37c10-4.46,11.78-13.56,5.42-27.82l-1.37-3.07Z" fill="#7E844A" stroke="#7E844A" stroke-miterlimit="10" stroke-width="2"/>
      <path id="Path_3683" data-name="Path 3683" d="M1162.66,521.94l-57.44-99.82.29-.5,57.15-98.87,57.43,99.37-.28.5Zm-55.13-99.82,55.13,95.81,55.12-95.81-55.12-95.37Z" fill="#7E844A" stroke="#7E844A" stroke-miterlimit="10" stroke-width="2"/>
      <path id="Path_3684" data-name="Path 3684" d="M1193,526.51l57.43-100,114.25-.94-56,100.85Zm58.6-98.05-55.14,96,111.08-.12,53.72-96.82Z" fill="#7E844A" stroke="#7E844A" stroke-miterlimit="10" stroke-width="2"/>
      <path id="Path_3685" data-name="Path 3685" d="M1131.58,526.51l-115.72-.13-56-100.85,114.24.94.29.5ZM1017,524.38l111.09.12-55.14-96-109.67-.9Z" fill="#7E844A" stroke="#7E844A" stroke-miterlimit="10" stroke-width="2"/>
      <path id="Path_3686" data-name="Path 3686" d="M1242.73,393.57l-25-43.41,25-43.22,25,43.22Zm-22.67-43.41,22.67,39.4,22.67-39.4-22.67-39.23Z" fill="#7E844A" stroke="#7E844A" stroke-miterlimit="10" stroke-width="2"/>
      <path id="Path_3687" data-name="Path 3687" d="M1274.18,394.93l25-43.5,49.69-.41-24.33,43.85Zm26.14-41.51-22.69,39.5,45.7-.05,22.1-39.82Z" fill="#7E844A" stroke="#7E844A" stroke-miterlimit="10" stroke-width="2"/>
      <path id="Path_3688" data-name="Path 3688" d="M1345.4,528.8l25-43.5,49.69-.41-24.34,43.86Zm26.14-41.51-22.68,39.51h45.69l22.1-39.83Z" fill="#7E844A" stroke="#7E844A" stroke-miterlimit="10" stroke-width="2"/>
      <path id="Path_3689" data-name="Path 3689" d="M1082.55,393.57l-25-43.41,25-43.22,25,43.22Zm-22.67-43.41,22.67,39.4,22.67-39.4-22.67-39.23Z" fill="#7E844A" stroke="#7E844A" stroke-miterlimit="10" stroke-width="2"/>
      <path id="Path_3690" data-name="Path 3690" d="M1051.1,394.93l-50.32-.06L976.44,351l49.69.41Zm-49.1-2.06,45.7.05-22.7-39.5-45.11-.37Z" fill="#7E844A" stroke="#7E844A" stroke-miterlimit="10" stroke-width="2"/>
      <path id="Path_3691" data-name="Path 3691" d="M979.88,528.8H929.55l-24.33-43.86,49.68.41Zm-49.15-2h45.69l-22.68-39.51-45.11-.37Z" fill="#7E844A" stroke="#7E844A" stroke-miterlimit="10" stroke-width="2"/>
      <path id="Path_3692" data-name="Path 3692" d="M1274.18,394.93l25-43.5,49.69-.41-24.33,43.85Zm26.14-41.51-22.69,39.5,45.7-.05,22.1-39.82Z" fill="#7E844A" stroke="#7E844A" stroke-miterlimit="10" stroke-width="2"/>
      <path id="Path_3693" data-name="Path 3693" d="M1345.4,528.8l25-43.5,49.69-.41-24.34,43.86Zm26.14-41.51-22.68,39.51h45.69l22.1-39.83Z" fill="#7E844A" stroke="#7E844A" stroke-miterlimit="10" stroke-width="2"/>
      <path id="Path_3694" data-name="Path 3694" d="M1162.63,1199.47l-57.44-99.37.29-.5,57.15-99.32,57.43,99.82-.29.5Zm-55.13-99.37,55.13,95.38,55.12-95.38-55.12-95.81Z" fill="#7E844A" stroke="#7E844A" stroke-miterlimit="10" stroke-width="2"/>
      <path id="Path_3695" data-name="Path 3695" d="M960.65,1096.69l56-100.84,115.72-.14-57.43,100Zm57.13-98.85-53.72,96.82,109.67-.9,55.13-96Z" fill="#7E844A" stroke="#7E844A" stroke-miterlimit="10" stroke-width="2"/>
      <path id="Path_3696" data-name="Path 3696" d="M1365.37,1096.69l-114.24-.94-.29-.5-57.14-99.54,115.72.14Zm-113.08-2.93,109.67.9-53.72-96.82-111.08-.12Z" fill="#7E844A" stroke="#7E844A" stroke-miterlimit="10" stroke-width="2"/>
      <path id="Path_3697" data-name="Path 3697" d="M1082.55,1215.29l-25-43.22,25-43.42,25,43.42Zm-22.67-43.23,22.67,39.23,22.67-39.23-22.67-39.4Z" fill="#7E844A" stroke="#7E844A" stroke-miterlimit="10" stroke-width="2"/>
      <path id="Path_3698" data-name="Path 3698" d="M976.44,1171.21l24.34-43.86,50.32-.06-25,43.51Zm25.51-41.86-22.1,39.83,45.11-.37,22.69-39.51Z" fill="#7E844A" stroke="#7E844A" stroke-miterlimit="10" stroke-width="2"/>
      <path id="Path_3699" data-name="Path 3699" d="M905.22,1037.33l24.33-43.85,50.33-.06-25,43.5Zm25.51-41.85-22.1,39.82,45.11-.37,22.68-39.51Z" fill="#7E844A" stroke="#7E844A" stroke-miterlimit="10" stroke-width="2"/>
      <path id="Path_3700" data-name="Path 3700" d="M1242.73,1215.29l-25-43.22,25-43.42,25,43.42Zm-22.67-43.23,22.67,39.23,22.67-39.23-22.67-39.4Z" fill="#7E844A" stroke="#7E844A" stroke-miterlimit="10" stroke-width="2"/>
      <path id="Path_3701" data-name="Path 3701" d="M1348.84,1171.21l-49.69-.41-25-43.51,50.33.06Zm-48.52-2.4,45.11.37-22.1-39.83h-45.7Z" fill="#7E844A" stroke="#7E844A" stroke-miterlimit="10" stroke-width="2"/>
      <path id="Path_3702" data-name="Path 3702" d="M1420.07,1037.33l-49.69-.41-25-43.5,50.33.06Zm-48.53-2.4,45.11.37-22.1-39.82-45.69-.06Z" fill="#7E844A" stroke="#7E844A" stroke-miterlimit="10" stroke-width="2"/>
      <path id="Path_3703" data-name="Path 3703" d="M976.44,1171.21l24.34-43.86,50.32-.06-25,43.51Zm25.51-41.86-22.1,39.83,45.11-.37,22.69-39.51Z" fill="#7E844A" stroke="#7E844A" stroke-miterlimit="10" stroke-width="2"/>
      <path id="Path_3704" data-name="Path 3704" d="M905.22,1037.33l24.33-43.85,50.33-.06-25,43.5Zm25.51-41.85-22.1,39.82,45.11-.37,22.68-39.51Z" fill="#7E844A" stroke="#7E844A" stroke-miterlimit="10" stroke-width="2"/>
      <path id="Yu_fullname_logo" d="M149.233,678.2a4.4,4.4,0,0,1-4.187-2.119,9.086,9.086,0,0,1-1.2-4.54q.3-5.145,2.393-5.751a18.51,18.51,0,0,1,5.085-.605q9.571,0,13.46-3.329a15.332,15.332,0,0,0,4.786-8.777,52.055,52.055,0,0,0,1.2-11.2V604.048q0-2.119-3.29-9.685-2.991-7.869-8.076-18.16-4.786-10.291-10.17-21.187t-10.17-19.673q-4.487-9.08-7.178-13.923-6.281-11.5-13.759-16.344a48.063,48.063,0,0,0-17.049-7.264Q96.89,496.9,95.1,496.3q-1.5-.605-1.5-5.448,0-5.145,3.589-5.448a50.944,50.944,0,0,1,8.375-.605q21.236,0,34.1,6.659,13.161,6.659,23.33,24.819,8.674,16.344,15.553,31.78,7.179,15.436,15.853,31.477h.9l33.2-66.284q5.085-10.291,1.2-12.409-3.888-2.421-14.357-2.421a18.51,18.51,0,0,1-5.085-.605q-2.094-.605-2.393-5.751a9.086,9.086,0,0,1,1.2-4.54,4.124,4.124,0,0,1,3.888-2.119q9.571.3,16.451.605,7.179.3,16.152.3t14.656-.3q5.982-.3,15.553-.605a4.4,4.4,0,0,1,4.187,2.119,9.085,9.085,0,0,1,1.2,4.54q-.3,5.145-2.393,5.751a16.634,16.634,0,0,1-5.085.605q-11.366,0-18.544,5.145-7.179,4.843-12.862,15.436l-33.8,64.468q-2.692,5.751-4.487,9.685a39.2,39.2,0,0,0-2.692,8.172,56.108,56.108,0,0,0-.9,11.2v29.359a101.221,101.221,0,0,0,1.2,11.2,15.332,15.332,0,0,0,4.786,8.777q4.187,3.33,13.46,3.329a16.634,16.634,0,0,1,5.085.605q2.094.605,2.393,5.751a9.086,9.086,0,0,1-1.2,4.54,4.125,4.125,0,0,1-3.888,2.119q-9.571-.605-18.245-.908H186.322Q168.675,677.294,149.233,678.2Zm179.112,2.724q-20.339,0-32.3-12.409t-11.964-32.688V579.835a76.786,76.786,0,0,0-.6-9.988,10.661,10.661,0,0,0-3.29-7.567q-2.991-3.027-11.366-3.027a20.675,20.675,0,0,1-5.085-.605q-2.094-.908-2.094-5.448t4.786-5.448a171,171,0,0,0,20.937-4.237q7.478-2.119,11.366-3.632a26.823,26.823,0,0,1,6.879-1.816,4.942,4.942,0,0,1,3.888.908q1.795,1.211,1.795,4.843v91.708q0,9.988,4.187,16.344a27.51,27.51,0,0,0,11.067,9.383,31.9,31.9,0,0,0,13.46,3.027,42.733,42.733,0,0,0,18.245-3.632,47.909,47.909,0,0,0,12.562-8.777q4.786-5.145,6.281-8.475v-63.56a76.775,76.775,0,0,0-.6-9.988,10.661,10.661,0,0,0-3.29-7.567q-2.991-3.027-11.366-3.027a20.675,20.675,0,0,1-5.085-.605q-2.094-.908-2.094-5.448t4.786-5.448a170.992,170.992,0,0,0,20.937-4.237q7.478-2.119,11.366-3.632a26.824,26.824,0,0,1,6.879-1.816,4.942,4.942,0,0,1,3.888.908q1.795,1.211,1.795,4.843V648.54q0,17.857,23.629,17.857,3.29,0,4.187,1.816a8.759,8.759,0,0,1,.9,3.935q0,4.237-5.085,5.145l-48.156,3.329a2.1,2.1,0,0,1-2.393-1.816,26.378,26.378,0,0,1-.3-4.237V657.62h-.6q-5.683,5.448-12.263,10.9a49.821,49.821,0,0,1-14.955,8.777Q340.908,680.926,328.345,680.926Zm226.53-2.724a4.4,4.4,0,0,1-4.187-2.119,9.087,9.087,0,0,1-1.2-4.54q.3-5.145,2.393-5.751a18.511,18.511,0,0,1,5.085-.605q9.572,0,13.46-3.329a15.332,15.332,0,0,0,4.786-8.777,52.057,52.057,0,0,0,1.2-11.2V497.51H555.772q-10.17.3-15.853,4.54-5.683,3.935-8.375,12.712a151.08,151.08,0,0,0-4.786,22.095q-.3,2.724-3.888,4.237a18.942,18.942,0,0,1-6.58,1.211,10.033,10.033,0,0,1-4.786-1.513,5.017,5.017,0,0,1-2.393-4.54l.9-42.676q0-4.237,2.393-5.751a10.409,10.409,0,0,1,5.683-1.513H664.347a8.968,8.968,0,0,1,5.384,1.513q2.393,1.513,2.393,5.751l1.2,42.676a4.9,4.9,0,0,1-2.692,4.54,8.893,8.893,0,0,1-4.786,1.513,18.182,18.182,0,0,1-6.281-1.211q-3.29-1.513-3.888-4.237a125.52,125.52,0,0,0-5.085-22.095q-2.692-8.777-8.375-12.712-5.384-4.237-15.852-4.54H606.022V641.882a101.221,101.221,0,0,0,1.2,11.2A15.331,15.331,0,0,0,612,661.858q4.188,3.33,13.46,3.329a18.511,18.511,0,0,1,5.085.605q2.094.605,2.393,5.751a9.085,9.085,0,0,1-1.2,4.54,4.4,4.4,0,0,1-4.187,2.119q-9.571-.605-18.245-.908H592.263Q574.317,677.294,554.875,678.2Zm133.967,0a4.012,4.012,0,0,1-3.589-1.816,8.551,8.551,0,0,1-1.2-4.237q.3-4.54,2.094-4.843a17.254,17.254,0,0,1,4.786-.605q8.375,0,11.366-2.724a11.193,11.193,0,0,0,3.589-7.869,81.455,81.455,0,0,0,.6-9.988v-147.7a76.8,76.8,0,0,0-.6-9.988,10.661,10.661,0,0,0-3.29-7.567q-2.991-3.027-11.366-3.027a20.67,20.67,0,0,1-5.085-.605q-2.094-.908-2.094-5.448t4.786-5.448a170.992,170.992,0,0,0,20.937-4.237q7.478-2.119,11.366-3.632a16.628,16.628,0,0,1,6.879-1.816,5.985,5.985,0,0,1,3.888,1.211q1.795.908,1.795,4.54v97.458h.6q5.982-5.751,12.263-10.9a50.773,50.773,0,0,1,14.656-8.777q8.674-3.632,21.236-3.632,20.339,0,32.3,12.409t11.964,32.688v64.468q0,5.145.3,9.988a13.113,13.113,0,0,0,3.589,7.869q3.29,2.724,11.366,2.724a15.39,15.39,0,0,1,4.786.605q1.795.3,2.094,4.843a8.551,8.551,0,0,1-1.2,4.237,3.334,3.334,0,0,1-3.29,1.816q-8.674-.605-16.152-.908H797.716q-7.178.3-15.853.908a4.011,4.011,0,0,1-3.589-1.816,8.55,8.55,0,0,1-1.2-4.237q.3-4.54,2.094-4.843a15.39,15.39,0,0,1,4.786-.605q8.375,0,11.366-2.724a11.193,11.193,0,0,0,3.589-7.869q.3-4.843.3-9.988V581.954q0-15.133-8.973-21.792A31.077,31.077,0,0,0,770.8,553.2a39.229,39.229,0,0,0-17.946,3.935,43.085,43.085,0,0,0-12.562,8.475,35.144,35.144,0,0,0-6.58,8.475v72.034q0,5.145.3,9.988a13.113,13.113,0,0,0,3.589,7.869q3.29,2.724,11.366,2.724a15.387,15.387,0,0,1,4.786.605q1.795.3,2.094,4.843a8.552,8.552,0,0,1-1.2,4.237,3.334,3.334,0,0,1-3.29,1.816q-8.674-.605-16.152-.908H704.694Q697.516,677.6,688.842,678.2Zm214.717,2.724q-18.246,0-29.312-10.593a34.4,34.4,0,0,1-10.768-25.424q0-15.436,7.777-24.213a48.358,48.358,0,0,1,20.937-13.015,136.507,136.507,0,0,1,28.415-5.751q15.553-1.513,30.209-2.421V575.6q0-14.225-7.178-22.095-6.879-8.172-23.629-8.172a26.469,26.469,0,0,0-15.853,5.448q-7.178,5.448-7.179,15.739a13.634,13.634,0,0,0,2.393,8.172,23.939,23.939,0,0,0,4.786,5.145q2.393,1.816,2.393,2.421,0,1.211-3.589,4.54-3.29,3.027-9.272,3.027-9.272,0-14.357-6.961a25.565,25.565,0,0,1-5.085-15.436q0-11.5,6.879-18.16a42.962,42.962,0,0,1,18.245-9.685,84.667,84.667,0,0,1,22.433-3.027,101.148,101.148,0,0,1,26.022,3.329A40.116,40.116,0,0,1,968.764,552.6q8.375,9.383,8.375,28.148v70.521a43.021,43.021,0,0,0,1.5,7.264,17.368,17.368,0,0,0,4.486,7.567q3.589,3.027,9.571,3.027a5.327,5.327,0,0,1,3.29.908q1.2.605,1.2,3.935,0,2.724-2.991,4.237a22.988,22.988,0,0,1-6.879,2.119,43.934,43.934,0,0,1-6.58.605,32.548,32.548,0,0,1-19.741-6.356,26.172,26.172,0,0,1-10.17-18.16,43.088,43.088,0,0,1-19.741,18.463A63.813,63.813,0,0,1,903.559,680.926Zm9.571-16.344a34.734,34.734,0,0,0,18.544-5.145,39.436,39.436,0,0,0,19.143-33.9V608.286q-30.808,2.119-43.968,9.988T893.688,644Q893.688,664.582,913.13,664.582Zm103.219,13.62a4.511,4.511,0,0,1-3.589-1.816,8.55,8.55,0,0,1-1.2-4.237q.6-4.54,2.393-4.843a15.389,15.389,0,0,1,4.786-.605q8.375,0,11.366-2.724a11.808,11.808,0,0,0,3.29-7.869,81.406,81.406,0,0,0,.6-9.988v-69.31a76.761,76.761,0,0,0-.6-9.988,10.661,10.661,0,0,0-3.29-7.567q-2.991-3.027-11.366-3.027a20.669,20.669,0,0,1-5.085-.605q-2.094-.908-2.094-5.448t4.786-5.448a170.993,170.993,0,0,0,20.937-4.237,103.569,103.569,0,0,0,11.067-3.632,26.812,26.812,0,0,1,6.88-1.816,4.942,4.942,0,0,1,3.888.908q1.795,1.211,1.795,4.843v18.765h.9a109.461,109.461,0,0,1,20.937-16.344q10.768-6.659,19.741-6.659,10.469,0,15.852,7.869a27.965,27.965,0,0,1,5.683,16.647,26.671,26.671,0,0,1-4.786,14.831q-4.785,6.961-14.357,6.961a14.824,14.824,0,0,1-7.777-1.816q-2.692-2.119-2.991-3.027,0-.605,2.692-3.632a10.33,10.33,0,0,0,2.991-7.567,12.636,12.636,0,0,0-2.991-8.777,9.082,9.082,0,0,0-7.478-3.329q-5.085,0-13.161,5.145a94.032,94.032,0,0,0-14.955,12.409v73.85q0,5.145.3,9.988a13.112,13.112,0,0,0,3.589,7.869q3.29,2.724,11.665,2.724a14.213,14.213,0,0,1,4.487.605q2.094.3,2.393,4.843a8.551,8.551,0,0,1-1.2,4.237,4.011,4.011,0,0,1-3.589,1.816q-8.674-.605-16.152-.908H1032.2Q1025.023,677.6,1016.349,678.2ZM1179,680.926q-18.245,0-29.312-10.593a34.4,34.4,0,0,1-10.768-25.424q0-15.436,7.777-24.213a48.358,48.358,0,0,1,20.937-13.015,136.509,136.509,0,0,1,28.415-5.751q15.554-1.513,30.21-2.421V575.6q0-14.225-7.178-22.095-6.879-8.172-23.629-8.172a26.469,26.469,0,0,0-15.853,5.448q-7.178,5.448-7.178,15.739a13.634,13.634,0,0,0,2.393,8.172,23.939,23.939,0,0,0,4.786,5.145q2.393,1.816,2.393,2.421,0,1.211-3.589,4.54-3.29,3.027-9.272,3.027-9.272,0-14.357-6.961a25.566,25.566,0,0,1-5.085-15.436q0-11.5,6.879-18.16a42.964,42.964,0,0,1,18.245-9.685,84.666,84.666,0,0,1,22.433-3.027,101.148,101.148,0,0,1,26.022,3.329,40.117,40.117,0,0,1,20.937,12.712q8.375,9.383,8.375,28.148v70.521a43.036,43.036,0,0,0,1.5,7.264,17.364,17.364,0,0,0,4.486,7.567q3.589,3.027,9.571,3.027a5.326,5.326,0,0,1,3.29.908q1.2.605,1.2,3.935,0,2.724-2.991,4.237a22.992,22.992,0,0,1-6.879,2.119,43.939,43.939,0,0,1-6.58.605,32.548,32.548,0,0,1-19.741-6.356,26.173,26.173,0,0,1-10.169-18.16,43.088,43.088,0,0,1-19.741,18.463A63.813,63.813,0,0,1,1179,680.926Zm9.571-16.344a34.734,34.734,0,0,0,18.544-5.145,39.436,39.436,0,0,0,19.143-33.9V608.286q-30.808,2.119-43.968,9.988T1169.134,644Q1169.134,664.582,1188.575,664.582ZM1288.8,740.248a4.33,4.33,0,0,1-3.589-2.119,7.014,7.014,0,0,1-1.2-3.935q.3-4.54,2.094-5.145a33.725,33.725,0,0,1,4.786-.3q8.076,0,11.067-3.027a11.167,11.167,0,0,0,3.888-7.567,81.428,81.428,0,0,0,.6-9.988V576.808a76.782,76.782,0,0,0-.6-9.988,10.661,10.661,0,0,0-3.29-7.567q-2.991-3.027-11.366-3.027a20.67,20.67,0,0,1-5.085-.605q-2.094-.908-2.094-5.448t4.786-5.448a170.994,170.994,0,0,0,20.937-4.237,103.564,103.564,0,0,0,11.067-3.632,26.814,26.814,0,0,1,6.88-1.816,4.942,4.942,0,0,1,3.888.908q1.795,1.211,1.795,4.843v14.528h.9A75.846,75.846,0,0,1,1354.307,542a52.952,52.952,0,0,1,22.433-5.448q18.245,0,32.3,9.08t22.134,25.424q8.076,16.042,8.076,37.531,0,21.792-9.87,38.136a71.733,71.733,0,0,1-25.424,25.424,66.494,66.494,0,0,1-33.2,8.777q-13.46,0-21.835-3.027a70.464,70.464,0,0,1-14.058-6.356h-1.2v36.622a81.428,81.428,0,0,0,.6,9.988,11.166,11.166,0,0,0,3.888,7.567q3.29,3.027,11.067,3.027a27.66,27.66,0,0,1,4.486.3q2.094.605,2.393,5.145a7.013,7.013,0,0,1-1.2,3.935,3.874,3.874,0,0,1-3.589,2.119q-8.674-.605-16.151-.908h-30.509Q1297.477,739.643,1288.8,740.248Zm79.562-69.613q11.665,0,19.442-5.751a43.073,43.073,0,0,0,12.263-15.133,69.1,69.1,0,0,0,6.58-19.976,107.87,107.87,0,0,0,2.094-20.279,82.991,82.991,0,0,0-4.487-27.24,47.394,47.394,0,0,0-13.759-21.792q-9.272-8.777-24.527-8.777-11.366,0-18.843,4.843a64.033,64.033,0,0,0-13.46,10.9V648.54q3.29,7.869,11.964,15.133Q1354.606,670.635,1368.365,670.635Zm92.772,7.567a4.011,4.011,0,0,1-3.589-1.816,8.55,8.55,0,0,1-1.2-4.237q.3-4.54,2.094-4.843a17.256,17.256,0,0,1,4.786-.605q8.375,0,11.366-2.724a11.193,11.193,0,0,0,3.589-7.869,81.43,81.43,0,0,0,.6-9.988v-147.7a76.78,76.78,0,0,0-.6-9.988,10.661,10.661,0,0,0-3.29-7.567q-2.991-3.027-11.366-3.027a20.674,20.674,0,0,1-5.085-.605q-2.093-.908-2.094-5.448t4.786-5.448a171,171,0,0,0,20.937-4.237q7.477-2.119,11.366-3.632a16.628,16.628,0,0,1,6.879-1.816,5.986,5.986,0,0,1,3.888,1.211q1.795.908,1.795,4.54v97.458h.6q5.982-5.751,12.263-10.9a50.773,50.773,0,0,1,14.656-8.777q8.674-3.632,21.236-3.632,20.339,0,32.3,12.409t11.964,32.688v64.468q0,5.145.3,9.988a13.112,13.112,0,0,0,3.589,7.869q3.29,2.724,11.366,2.724a15.39,15.39,0,0,1,4.786.605q1.795.3,2.094,4.843a8.551,8.551,0,0,1-1.2,4.237,3.334,3.334,0,0,1-3.29,1.816q-8.674-.605-16.152-.908h-30.509q-7.178.3-15.853.908a4.012,4.012,0,0,1-3.589-1.816,8.551,8.551,0,0,1-1.2-4.237q.3-4.54,2.094-4.843a15.389,15.389,0,0,1,4.786-.605q8.375,0,11.366-2.724a11.193,11.193,0,0,0,3.589-7.869q.3-4.843.3-9.988V581.954q0-15.133-8.973-21.792a31.077,31.077,0,0,0-19.442-6.961,39.228,39.228,0,0,0-17.946,3.935,43.083,43.083,0,0,0-12.562,8.475,35.137,35.137,0,0,0-6.58,8.475v72.034q0,5.145.3,9.988a13.112,13.112,0,0,0,3.589,7.869q3.29,2.724,11.366,2.724a15.389,15.389,0,0,1,4.786.605q1.795.3,2.094,4.843a8.551,8.551,0,0,1-1.2,4.237,3.334,3.334,0,0,1-3.29,1.816q-8.674-.605-16.152-.908H1476.99Q1469.811,677.6,1461.137,678.2Zm187.341,65.073a35.953,35.953,0,0,1-16.451-3.935,32.239,32.239,0,0,1-11.964-10.593,23.628,23.628,0,0,1-4.486-13.923q.3-8.172,3.589-12.712a17.675,17.675,0,0,1,6.879-6.053,27.238,27.238,0,0,1,6.58-1.816q2.692-.3,2.094-.3,5.683,0,8.674,2.119,2.991,2.421,2.991,3.935,0,.605-2.393,2.724-2.094,2.421-2.393,8.172a16.63,16.63,0,0,0,3.29,10.593q3.589,5.145,11.067,5.145,8.375,0,15.254-6.356a62.145,62.145,0,0,0,12.263-15.133,189.471,189.471,0,0,0,9.272-17.555,22.225,22.225,0,0,0-.3-13.923q-7.178-16.344-14.058-34.807t-13.46-35.715q-6.281-17.252-12.562-30.267-4.786-11.2-9.272-15.739-4.487-4.843-13.46-6.053a27.778,27.778,0,0,1-5.384-1.211q-1.2-.605-1.5-4.54-.3-5.145,2.692-5.448a69.463,69.463,0,0,1,7.777-.908q18.544-.908,29.013,5.448t17.049,21.489q4.187,9.383,9.272,23.305t10.768,28.148q5.683,14.225,11.067,25.727h.9l29.312-79.3q2.991-8.777.3-10.9t-11.665-2.119a27.675,27.675,0,0,1-4.487-.3q-1.794-.605-2.094-5.145a10.147,10.147,0,0,1,.9-3.935,3.653,3.653,0,0,1,3.29-2.119q8.674.3,14.955.605t14.058.3h8.674q3.29-.3,6.879-.3,3.589-.3,9.272-.605a3.279,3.279,0,0,1,3.29,2.119,8.09,8.09,0,0,1,1.2,3.935q-.3,4.54-2.393,5.145a25.462,25.462,0,0,1-4.187.3q-9.87,0-15.853,3.632-5.683,3.632-9.87,14.225l-3.29,7.869q-2.991,7.87-8.076,20.581t-10.768,26.937q-5.683,13.923-10.768,26.635t-8.375,20.884q-3.29,8.172-3.589,8.777-3.888,9.383-9.571,20.279a107.9,107.9,0,0,1-12.861,20.581,64.127,64.127,0,0,1-16.451,15.739A35.685,35.685,0,0,1,1648.478,743.275ZM1799.452,678.2a4.51,4.51,0,0,1-3.589-1.816,8.55,8.55,0,0,1-1.2-4.237q.6-4.54,2.393-4.843a15.389,15.389,0,0,1,4.786-.605q8.375,0,11.366-2.724a11.807,11.807,0,0,0,3.29-7.869,81.43,81.43,0,0,0,.6-9.988v-69.31a76.782,76.782,0,0,0-.6-9.988,10.661,10.661,0,0,0-3.29-7.567q-2.991-3.027-11.366-3.027a20.671,20.671,0,0,1-5.085-.605q-2.094-.908-2.094-5.448t4.786-5.448a170.991,170.991,0,0,0,20.937-4.237q7.478-2.119,11.366-3.632a26.812,26.812,0,0,1,6.879-1.816,4.942,4.942,0,0,1,3.888.908q1.795,1.211,1.795,4.843V646.119q0,5.145.3,9.988a13.112,13.112,0,0,0,3.589,7.869q3.29,2.724,11.665,2.724a14.214,14.214,0,0,1,4.487.605q2.094.3,2.393,4.843a8.55,8.55,0,0,1-1.2,4.237,4.011,4.011,0,0,1-3.589,1.816q-8.674-.605-16.151-.908H1815.3Q1808.126,677.6,1799.452,678.2Zm29.611-176.757a20.171,20.171,0,0,1-14.058-5.145,17.741,17.741,0,0,1-5.683-13.317q0-6.961,6.879-12.409a24.4,24.4,0,0,1,15.553-5.448,15.586,15.586,0,0,1,12.263,5.448q4.786,5.145,4.786,13.317a16.15,16.15,0,0,1-5.683,12.409A20.171,20.171,0,0,1,1829.064,501.445Z" transform="translate(151.404 150.102)" fill="#7e844a"/>
    </g>
  </g>
</svg>
