<svg width="1080" height="1080" viewBox="0 0 1080 1080" fill="none" xmlns="http://www.w3.org/2000/svg">
<path d="M121.5 566.45C120.5 566.45 119.8 566.1 119.4 565.4C119 564.7 118.8 563.95 118.8 563.15C118.9 561.45 119.3 560.5 120 560.3C120.7 560.1 121.55 560 122.55 560C125.75 560 128 559.45 129.3 558.35C130.6 557.15 131.4 555.7 131.7 554C132.1 552.2 132.3 550.35 132.3 548.45V529.7C132.3 529 131.75 527.4 130.65 524.9C129.65 522.3 128.3 519.3 126.6 515.9C125 512.5 123.3 509 121.5 505.4C119.7 501.8 118 498.55 116.4 495.65C114.9 492.65 113.7 490.35 112.8 488.75C110.7 484.95 108.4 482.25 105.9 480.65C103.4 478.95 100.55 477.75 97.35 477.05C95.95 476.75 94.95 476.5 94.35 476.3C93.85 476.1 93.6 475.2 93.6 473.6C93.6 471.9 94.2 471 95.4 470.9C96.6 470.7 98 470.6 99.6 470.6C106.7 470.6 112.4 471.7 116.7 473.9C121.1 476.1 125 480.2 128.4 486.2C131.3 491.6 133.9 496.85 136.2 501.95C138.6 507.05 141.25 512.25 144.15 517.55H144.6L161.25 484.7C162.95 481.3 163.15 479.25 161.85 478.55C160.55 477.75 158.15 477.35 154.65 477.35C153.65 477.35 152.8 477.25 152.1 477.05C151.4 476.85 151 475.9 150.9 474.2C150.9 473.4 151.1 472.65 151.5 471.95C151.9 471.25 152.55 470.9 153.45 470.9C156.65 471 159.4 471.1 161.7 471.2C164.1 471.3 166.8 471.35 169.8 471.35C172.8 471.35 175.25 471.3 177.15 471.2C179.15 471.1 181.75 471 184.95 470.9C185.95 470.9 186.65 471.25 187.05 471.95C187.45 472.65 187.65 473.4 187.65 474.2C187.55 475.9 187.15 476.85 186.45 477.05C185.85 477.25 185 477.35 183.9 477.35C180.1 477.35 177 478.2 174.6 479.9C172.2 481.5 170.05 484.05 168.15 487.55L151.2 519.5C150.3 521.4 149.55 523 148.95 524.3C148.35 525.6 147.9 526.95 147.6 528.35C147.3 529.75 147.15 531.6 147.15 533.9V548.45C147.25 550.35 147.45 552.2 147.75 554C148.05 555.7 148.85 557.15 150.15 558.35C151.55 559.45 153.8 560 156.9 560C158 560 158.85 560.1 159.45 560.3C160.15 560.5 160.55 561.45 160.65 563.15C160.65 563.95 160.45 564.7 160.05 565.4C159.65 566.1 159 566.45 158.1 566.45C154.9 566.25 151.85 566.1 148.95 566C146.05 566 143.1 566 140.1 566C134.2 566 128 566.15 121.5 566.45ZM211.324 567.8C204.524 567.8 199.124 565.75 195.124 561.65C191.124 557.55 189.124 552.15 189.124 545.45V517.7C189.124 515.9 189.024 514.25 188.824 512.75C188.724 511.15 188.174 509.9 187.174 509C186.174 508 184.274 507.5 181.474 507.5C180.574 507.5 179.724 507.4 178.924 507.2C178.224 506.9 177.874 506 177.874 504.5C177.874 503 178.674 502.1 180.274 501.8C184.874 501.1 188.374 500.4 190.774 499.7C193.274 499 195.174 498.4 196.474 497.9C197.774 497.4 198.924 497.1 199.924 497C200.724 496.9 201.374 497.05 201.874 497.45C202.474 497.85 202.774 498.65 202.774 499.85V545.3C202.774 548.6 203.474 551.3 204.874 553.4C206.374 555.5 208.224 557.05 210.424 558.05C212.624 559.05 214.874 559.55 217.174 559.55C220.674 559.55 223.724 558.95 226.324 557.75C228.924 556.45 231.024 555 232.624 553.4C234.224 551.7 235.274 550.3 235.774 549.2V517.7C235.774 515.9 235.674 514.25 235.474 512.75C235.374 511.15 234.824 509.9 233.824 509C232.824 508 230.924 507.5 228.124 507.5C227.224 507.5 226.374 507.4 225.574 507.2C224.874 506.9 224.524 506 224.524 504.5C224.524 503 225.324 502.1 226.924 501.8C231.524 501.1 235.024 500.4 237.424 499.7C239.924 499 241.824 498.4 243.124 497.9C244.424 497.4 245.574 497.1 246.574 497C247.374 496.9 248.024 497.05 248.524 497.45C249.124 497.85 249.424 498.65 249.424 499.85V551.75C249.424 557.65 253.374 560.6 261.274 560.6C262.374 560.6 263.074 560.9 263.374 561.5C263.674 562.1 263.824 562.75 263.824 563.45C263.824 564.85 262.974 565.7 261.274 566L237.124 567.65C236.424 567.65 236.024 567.35 235.924 566.75C235.824 566.15 235.774 565.45 235.774 564.65V556.25H235.474C233.574 558.05 231.524 559.85 229.324 561.65C227.224 563.45 224.724 564.9 221.824 566C219.024 567.2 215.524 567.8 211.324 567.8ZM324.928 566.45C323.928 566.45 323.228 566.1 322.828 565.4C322.428 564.7 322.228 563.95 322.228 563.15C322.328 561.45 322.728 560.5 323.428 560.3C324.128 560.1 324.978 560 325.978 560C329.178 560 331.428 559.45 332.728 558.35C334.028 557.15 334.828 555.7 335.128 554C335.528 552.2 335.728 550.35 335.728 548.45V476.9H325.378C321.978 477 319.328 477.75 317.428 479.15C315.528 480.45 314.128 482.55 313.228 485.45C312.328 488.25 311.528 491.9 310.828 496.4C310.728 497.3 310.078 498 308.878 498.5C307.778 498.9 306.678 499.1 305.578 499.1C304.878 499.1 304.078 498.85 303.178 498.35C302.378 497.85 301.978 497.1 301.978 496.1L302.428 474.95C302.428 473.55 302.828 472.6 303.628 472.1C304.428 471.6 305.378 471.35 306.478 471.35H379.828C380.928 471.35 381.828 471.6 382.528 472.1C383.328 472.6 383.728 473.55 383.728 474.95L384.328 496.1C384.328 497.1 383.878 497.85 382.978 498.35C382.178 498.85 381.378 499.1 380.578 499.1C379.578 499.1 378.528 498.9 377.428 498.5C376.328 498 375.678 497.3 375.478 496.4C374.778 491.9 373.928 488.25 372.928 485.45C372.028 482.55 370.628 480.45 368.728 479.15C366.928 477.75 364.278 477 360.778 476.9H350.578V548.45C350.678 550.35 350.878 552.2 351.178 554C351.478 555.7 352.278 557.15 353.578 558.35C354.978 559.45 357.228 560 360.328 560C361.328 560 362.178 560.1 362.878 560.3C363.578 560.5 363.978 561.45 364.078 563.15C364.078 563.95 363.878 564.7 363.478 565.4C363.078 566.1 362.378 566.45 361.378 566.45C358.178 566.25 355.128 566.1 352.228 566C349.428 566 346.578 566 343.678 566C337.678 566 331.428 566.15 324.928 566.45ZM392.112 566.45C391.312 566.45 390.712 566.15 390.312 565.55C389.912 564.85 389.712 564.15 389.712 563.45C389.812 561.95 390.162 561.15 390.762 561.05C391.462 560.85 392.262 560.75 393.162 560.75C395.962 560.75 397.862 560.3 398.862 559.4C399.962 558.4 400.562 557.1 400.662 555.5C400.862 553.9 400.962 552.25 400.962 550.55V477.35C400.962 475.55 400.862 473.9 400.662 472.4C400.562 470.8 400.012 469.55 399.012 468.65C398.012 467.65 396.112 467.15 393.312 467.15C392.412 467.15 391.562 467.05 390.762 466.85C390.062 466.55 389.712 465.65 389.712 464.15C389.712 462.65 390.512 461.75 392.112 461.45C396.712 460.75 400.212 460.05 402.612 459.35C405.112 458.65 407.012 458.05 408.312 457.55C409.612 456.95 410.762 456.65 411.762 456.65C412.562 456.65 413.212 456.85 413.712 457.25C414.312 457.55 414.612 458.3 414.612 459.5V507.8H414.912C416.912 505.9 418.962 504.1 421.062 502.4C423.162 500.6 425.612 499.15 428.412 498.05C431.312 496.85 434.862 496.25 439.062 496.25C445.862 496.25 451.262 498.3 455.262 502.4C459.262 506.5 461.262 511.9 461.262 518.6V550.55C461.262 552.25 461.312 553.9 461.412 555.5C461.612 557.1 462.212 558.4 463.212 559.4C464.312 560.3 466.212 560.75 468.912 560.75C469.912 560.75 470.712 560.85 471.312 561.05C471.912 561.15 472.262 561.95 472.362 563.45C472.362 564.15 472.162 564.85 471.762 565.55C471.462 566.15 470.912 566.45 470.112 566.45C467.212 566.25 464.512 566.1 462.012 566C459.512 566 456.962 566 454.362 566C451.662 566 449.112 566 446.712 566C444.312 566.1 441.662 566.25 438.762 566.45C437.962 566.45 437.362 566.15 436.962 565.55C436.562 564.85 436.362 564.15 436.362 563.45C436.462 561.95 436.812 561.15 437.412 561.05C438.012 560.85 438.812 560.75 439.812 560.75C442.612 560.75 444.512 560.3 445.512 559.4C446.612 558.4 447.212 557.1 447.312 555.5C447.412 553.9 447.462 552.25 447.462 550.55V518.75C447.462 513.75 445.962 510.15 442.962 507.95C439.962 505.65 436.712 504.5 433.212 504.5C429.812 504.5 426.812 505.15 424.212 506.45C421.612 507.65 419.512 509.05 417.912 510.65C416.312 512.25 415.212 513.65 414.612 514.85V550.55C414.612 552.25 414.662 553.9 414.762 555.5C414.962 557.1 415.562 558.4 416.562 559.4C417.662 560.3 419.562 560.75 422.262 560.75C423.262 560.75 424.062 560.85 424.662 561.05C425.262 561.15 425.612 561.95 425.712 563.45C425.712 564.15 425.512 564.85 425.112 565.55C424.812 566.15 424.262 566.45 423.462 566.45C420.562 566.25 417.862 566.1 415.362 566C412.862 566 410.312 566 407.712 566C405.012 566 402.462 566 400.062 566C397.662 566.1 395.012 566.25 392.112 566.45ZM499.792 567.8C493.692 567.8 488.792 566.05 485.092 562.55C481.492 559.05 479.692 554.85 479.692 549.95C479.692 544.85 480.992 540.85 483.592 537.95C486.292 535.05 489.792 532.9 494.092 531.5C498.492 530.1 503.242 529.15 508.342 528.65C513.542 528.15 518.592 527.75 523.492 527.45V515.6C523.492 510.9 522.292 507.25 519.892 504.65C517.592 501.95 513.642 500.6 508.042 500.6C505.242 500.6 502.592 501.5 500.092 503.3C497.692 505.1 496.492 507.7 496.492 511.1C496.492 512.7 496.892 514.05 497.692 515.15C498.492 516.25 499.292 517.1 500.092 517.7C500.892 518.3 501.292 518.7 501.292 518.9C501.292 519.3 500.692 520.05 499.492 521.15C498.392 522.15 496.842 522.65 494.842 522.65C491.742 522.65 489.342 521.5 487.642 519.2C485.942 516.9 485.092 514.35 485.092 511.55C485.092 507.75 486.242 504.75 488.542 502.55C490.942 500.35 493.992 498.75 497.692 497.75C501.392 496.75 505.142 496.25 508.942 496.25C513.442 496.25 517.792 496.8 521.992 497.9C526.292 499 529.792 501.1 532.492 504.2C535.292 507.3 536.692 511.95 536.692 518.15V553.1C536.792 554.1 537.042 555.3 537.442 556.7C537.842 558.1 538.592 559.35 539.692 560.45C540.892 561.45 542.492 561.95 544.492 561.95C545.192 561.95 545.742 562.1 546.142 562.4C546.542 562.6 546.742 563.25 546.742 564.35C546.742 565.25 546.242 565.95 545.242 566.45C544.242 566.95 543.092 567.3 541.792 567.5C540.492 567.7 539.392 567.8 538.492 567.8C534.792 567.8 531.492 566.75 528.592 564.65C525.692 562.45 523.992 559.45 523.492 555.65C521.292 559.65 517.992 562.7 513.592 564.8C509.292 566.8 504.692 567.8 499.792 567.8ZM504.592 559.7C507.992 559.7 511.092 558.85 513.892 557.15C516.792 555.45 519.092 553.15 520.792 550.25C522.592 547.25 523.492 543.95 523.492 540.35V531.8C513.192 532.5 505.842 534.15 501.442 536.75C497.042 539.35 494.842 543.6 494.842 549.5C494.842 556.3 498.092 559.7 504.592 559.7ZM556.356 566.45C555.656 566.45 555.056 566.15 554.556 565.55C554.156 564.85 553.956 564.15 553.956 563.45C554.156 561.95 554.556 561.15 555.156 561.05C555.756 560.85 556.556 560.75 557.556 560.75C560.356 560.75 562.256 560.3 563.256 559.4C564.256 558.4 564.806 557.1 564.906 555.5C565.106 553.9 565.206 552.25 565.206 550.55V516.2C565.206 514.4 565.106 512.75 564.906 511.25C564.806 509.65 564.256 508.4 563.256 507.5C562.256 506.5 560.356 506 557.556 506C556.656 506 555.806 505.9 555.006 505.7C554.306 505.4 553.956 504.5 553.956 503C553.956 501.5 554.756 500.6 556.356 500.3C560.956 499.6 564.456 498.9 566.856 498.2C569.356 497.5 571.206 496.9 572.406 496.4C573.706 495.9 574.856 495.6 575.856 495.5C576.656 495.4 577.306 495.55 577.806 495.95C578.406 496.35 578.706 497.15 578.706 498.35V507.65H579.156C582.556 504.35 586.056 501.65 589.656 499.55C593.256 497.35 596.556 496.25 599.556 496.25C603.056 496.25 605.706 497.55 607.506 500.15C609.406 502.75 610.356 505.5 610.356 508.4C610.356 510.9 609.556 513.35 607.956 515.75C606.356 518.05 603.956 519.2 600.756 519.2C599.156 519.2 597.856 518.9 596.856 518.3C595.956 517.6 595.456 517.1 595.356 516.8C595.356 516.6 595.806 516 596.706 515C597.706 514 598.206 512.75 598.206 511.25C598.206 509.45 597.706 508 596.706 506.9C595.806 505.8 594.556 505.25 592.956 505.25C591.256 505.25 589.056 506.1 586.356 507.8C583.756 509.5 581.256 511.55 578.856 513.95V550.55C578.856 552.25 578.906 553.9 579.006 555.5C579.206 557.1 579.806 558.4 580.806 559.4C581.906 560.3 583.856 560.75 586.656 560.75C587.556 560.75 588.306 560.85 588.906 561.05C589.606 561.15 590.006 561.95 590.106 563.45C590.106 564.15 589.906 564.85 589.506 565.55C589.106 566.15 588.506 566.45 587.706 566.45C584.806 566.25 582.106 566.1 579.606 566C577.206 566 574.656 566 571.956 566C569.256 566 566.706 566 564.306 566C561.906 566.1 559.256 566.25 556.356 566.45ZM637.927 567.8C631.827 567.8 626.927 566.05 623.227 562.55C619.627 559.05 617.827 554.85 617.827 549.95C617.827 544.85 619.127 540.85 621.727 537.95C624.427 535.05 627.927 532.9 632.227 531.5C636.627 530.1 641.377 529.15 646.477 528.65C651.677 528.15 656.727 527.75 661.627 527.45V515.6C661.627 510.9 660.427 507.25 658.027 504.65C655.727 501.95 651.777 500.6 646.177 500.6C643.377 500.6 640.727 501.5 638.227 503.3C635.827 505.1 634.627 507.7 634.627 511.1C634.627 512.7 635.027 514.05 635.827 515.15C636.627 516.25 637.427 517.1 638.227 517.7C639.027 518.3 639.427 518.7 639.427 518.9C639.427 519.3 638.827 520.05 637.627 521.15C636.527 522.15 634.977 522.65 632.977 522.65C629.877 522.65 627.477 521.5 625.777 519.2C624.077 516.9 623.227 514.35 623.227 511.55C623.227 507.75 624.377 504.75 626.677 502.55C629.077 500.35 632.127 498.75 635.827 497.75C639.527 496.75 643.277 496.25 647.077 496.25C651.577 496.25 655.927 496.8 660.127 497.9C664.427 499 667.927 501.1 670.627 504.2C673.427 507.3 674.827 511.95 674.827 518.15V553.1C674.927 554.1 675.177 555.3 675.577 556.7C675.977 558.1 676.727 559.35 677.827 560.45C679.027 561.45 680.627 561.95 682.627 561.95C683.327 561.95 683.877 562.1 684.277 562.4C684.677 562.6 684.877 563.25 684.877 564.35C684.877 565.25 684.377 565.95 683.377 566.45C682.377 566.95 681.227 567.3 679.927 567.5C678.627 567.7 677.527 567.8 676.627 567.8C672.927 567.8 669.627 566.75 666.727 564.65C663.827 562.45 662.127 559.45 661.627 555.65C659.427 559.65 656.127 562.7 651.727 564.8C647.427 566.8 642.827 567.8 637.927 567.8ZM642.727 559.7C646.127 559.7 649.227 558.85 652.027 557.15C654.927 555.45 657.227 553.15 658.927 550.25C660.727 547.25 661.627 543.95 661.627 540.35V531.8C651.327 532.5 643.977 534.15 639.577 536.75C635.177 539.35 632.977 543.6 632.977 549.5C632.977 556.3 636.227 559.7 642.727 559.7ZM692.991 597.2C692.291 597.2 691.691 596.85 691.191 596.15C690.791 595.55 690.591 594.9 690.591 594.2C690.691 592.7 691.041 591.85 691.641 591.65C692.341 591.55 693.141 591.5 694.041 591.5C696.741 591.5 698.591 591 699.591 590C700.691 589.1 701.341 587.85 701.541 586.25C701.741 584.65 701.841 583 701.841 581.3V516.2C701.841 514.4 701.741 512.75 701.541 511.25C701.441 509.65 700.891 508.4 699.891 507.5C698.891 506.5 696.991 506 694.191 506C693.291 506 692.441 505.9 691.641 505.7C690.941 505.4 690.591 504.5 690.591 503C690.591 501.5 691.391 500.6 692.991 500.3C697.591 499.6 701.091 498.9 703.491 498.2C705.991 497.5 707.841 496.9 709.041 496.4C710.341 495.9 711.491 495.6 712.491 495.5C713.291 495.4 713.941 495.55 714.441 495.95C715.041 496.35 715.341 497.15 715.341 498.35V505.55H715.791C718.591 502.95 721.941 500.75 725.841 498.95C729.741 497.15 733.491 496.25 737.091 496.25C743.191 496.25 748.591 497.75 753.291 500.75C757.991 503.75 761.691 507.95 764.391 513.35C767.091 518.65 768.441 524.85 768.441 531.95C768.441 539.15 766.791 545.45 763.491 550.85C760.191 556.25 755.941 560.45 750.741 563.45C745.541 566.35 739.991 567.8 734.091 567.8C729.591 567.8 725.941 567.3 723.141 566.3C720.441 565.4 718.091 564.35 716.091 563.15H715.491V581.3C715.491 583 715.591 584.65 715.791 586.25C715.991 587.85 716.641 589.1 717.741 590C718.841 591 720.691 591.5 723.291 591.5C724.191 591.5 724.941 591.55 725.541 591.65C726.241 591.85 726.641 592.7 726.741 594.2C726.741 594.9 726.541 595.55 726.141 596.15C725.741 596.85 725.141 597.2 724.341 597.2C721.441 597 718.741 596.85 716.241 596.75C713.841 596.75 711.291 596.75 708.591 596.75C705.891 596.75 703.341 596.75 700.941 596.75C698.541 596.85 695.891 597 692.991 597.2ZM732.891 562.7C736.791 562.7 740.041 561.75 742.641 559.85C745.241 557.85 747.291 555.35 748.791 552.35C750.391 549.25 751.491 545.95 752.091 542.45C752.791 538.85 753.141 535.5 753.141 532.4C753.141 527.7 752.391 523.2 750.891 518.9C749.491 514.5 747.191 510.9 743.991 508.1C740.891 505.2 736.791 503.75 731.691 503.75C727.891 503.75 724.741 504.55 722.241 506.15C719.741 507.65 717.491 509.45 715.491 511.55V551.75C716.591 554.35 718.591 556.85 721.491 559.25C724.491 561.55 728.291 562.7 732.891 562.7ZM779.416 566.45C778.616 566.45 778.016 566.15 777.616 565.55C777.216 564.85 777.016 564.15 777.016 563.45C777.116 561.95 777.466 561.15 778.066 561.05C778.766 560.85 779.566 560.75 780.466 560.75C783.266 560.75 785.166 560.3 786.166 559.4C787.266 558.4 787.866 557.1 787.966 555.5C788.166 553.9 788.266 552.25 788.266 550.55V477.35C788.266 475.55 788.166 473.9 787.966 472.4C787.866 470.8 787.316 469.55 786.316 468.65C785.316 467.65 783.416 467.15 780.616 467.15C779.716 467.15 778.866 467.05 778.066 466.85C777.366 466.55 777.016 465.65 777.016 464.15C777.016 462.65 777.816 461.75 779.416 461.45C784.016 460.75 787.516 460.05 789.916 459.35C792.416 458.65 794.316 458.05 795.616 457.55C796.916 456.95 798.066 456.65 799.066 456.65C799.866 456.65 800.516 456.85 801.016 457.25C801.616 457.55 801.916 458.3 801.916 459.5V507.8H802.216C804.216 505.9 806.266 504.1 808.366 502.4C810.466 500.6 812.916 499.15 815.716 498.05C818.616 496.85 822.166 496.25 826.366 496.25C833.166 496.25 838.566 498.3 842.566 502.4C846.566 506.5 848.566 511.9 848.566 518.6V550.55C848.566 552.25 848.616 553.9 848.716 555.5C848.916 557.1 849.516 558.4 850.516 559.4C851.616 560.3 853.516 560.75 856.216 560.75C857.216 560.75 858.016 560.85 858.616 561.05C859.216 561.15 859.566 561.95 859.666 563.45C859.666 564.15 859.466 564.85 859.066 565.55C858.766 566.15 858.216 566.45 857.416 566.45C854.516 566.25 851.816 566.1 849.316 566C846.816 566 844.266 566 841.666 566C838.966 566 836.416 566 834.016 566C831.616 566.1 828.966 566.25 826.066 566.45C825.266 566.45 824.666 566.15 824.266 565.55C823.866 564.85 823.666 564.15 823.666 563.45C823.766 561.95 824.116 561.15 824.716 561.05C825.316 560.85 826.116 560.75 827.116 560.75C829.916 560.75 831.816 560.3 832.816 559.4C833.916 558.4 834.516 557.1 834.616 555.5C834.716 553.9 834.766 552.25 834.766 550.55V518.75C834.766 513.75 833.266 510.15 830.266 507.95C827.266 505.65 824.016 504.5 820.516 504.5C817.116 504.5 814.116 505.15 811.516 506.45C808.916 507.65 806.816 509.05 805.216 510.65C803.616 512.25 802.516 513.65 801.916 514.85V550.55C801.916 552.25 801.966 553.9 802.066 555.5C802.266 557.1 802.866 558.4 803.866 559.4C804.966 560.3 806.866 560.75 809.566 560.75C810.566 560.75 811.366 560.85 811.966 561.05C812.566 561.15 812.916 561.95 813.016 563.45C813.016 564.15 812.816 564.85 812.416 565.55C812.116 566.15 811.566 566.45 810.766 566.45C807.866 566.25 805.166 566.1 802.666 566C800.166 566 797.616 566 795.016 566C792.316 566 789.766 566 787.366 566C784.966 566.1 782.316 566.25 779.416 566.45ZM873.367 598.7C870.467 598.7 867.717 598.05 865.117 596.75C862.617 595.45 860.617 593.7 859.117 591.5C857.617 589.4 856.867 587.1 856.867 584.6C856.967 581.9 857.567 579.8 858.667 578.3C859.667 576.9 860.817 575.9 862.117 575.3C863.417 574.8 864.517 574.5 865.417 574.4C866.317 574.3 866.667 574.25 866.467 574.25C868.367 574.25 869.817 574.6 870.817 575.3C871.817 576.1 872.317 576.75 872.317 577.25C872.317 577.45 871.917 577.9 871.117 578.6C870.417 579.4 870.017 580.75 869.917 582.65C869.817 584.45 870.367 586.2 871.567 587.9C872.767 589.6 874.617 590.45 877.117 590.45C879.917 590.45 882.467 589.4 884.767 587.3C887.067 585.3 889.117 582.8 890.917 579.8C892.717 576.8 894.267 573.9 895.567 571.1C896.267 568.9 896.217 566.6 895.417 564.2C893.017 558.8 890.667 553.05 888.367 546.95C886.067 540.85 883.817 534.95 881.617 529.25C879.517 523.55 877.417 518.55 875.317 514.25C873.717 510.55 872.167 507.95 870.667 506.45C869.167 504.85 866.917 503.85 863.917 503.45C862.617 503.25 861.717 503.05 861.217 502.85C860.817 502.65 860.567 501.9 860.467 500.6C860.367 498.9 860.817 498 861.817 497.9C862.917 497.7 864.217 497.55 865.717 497.45C871.917 497.15 876.767 498.05 880.267 500.15C883.767 502.25 886.617 505.8 888.817 510.8C890.217 513.9 891.767 517.75 893.467 522.35C895.167 526.95 896.967 531.6 898.867 536.3C900.767 541 902.617 545.25 904.417 549.05H904.867L919.567 509.75C920.567 506.85 920.617 505.05 919.717 504.35C918.817 503.65 916.867 503.3 913.867 503.3C912.967 503.3 912.217 503.25 911.617 503.15C911.017 502.95 910.667 502.1 910.567 500.6C910.567 500 910.717 499.35 911.017 498.65C911.417 497.95 911.967 497.6 912.667 497.6C915.567 497.7 918.067 497.8 920.167 497.9C922.267 498 924.617 498.05 927.217 498.05C929.017 498.05 930.467 498.05 931.567 498.05C932.667 497.95 933.817 497.9 935.017 497.9C936.217 497.8 937.767 497.7 939.667 497.6C940.467 497.6 941.017 497.95 941.317 498.65C941.717 499.35 941.917 500 941.917 500.6C941.817 502.1 941.417 502.95 940.717 503.15C940.117 503.25 939.417 503.3 938.617 503.3C935.317 503.3 932.667 503.9 930.667 505.1C928.767 506.3 927.117 508.65 925.717 512.15C925.717 512.15 925.167 513.45 924.067 516.05C923.067 518.65 921.717 522.05 920.017 526.25C918.317 530.45 916.517 534.9 914.617 539.6C912.717 544.2 910.917 548.6 909.217 552.8C907.517 557 906.117 560.45 905.017 563.15C903.917 565.85 903.317 567.3 903.217 567.5C901.917 570.6 900.317 573.95 898.417 577.55C896.617 581.25 894.467 584.65 891.967 587.75C889.567 590.95 886.817 593.55 883.717 595.55C880.617 597.65 877.167 598.7 873.367 598.7ZM949.08 566.45C948.38 566.45 947.78 566.15 947.28 565.55C946.88 564.85 946.68 564.15 946.68 563.45C946.88 561.95 947.28 561.15 947.88 561.05C948.48 560.85 949.28 560.75 950.28 560.75C953.08 560.75 954.98 560.3 955.98 559.4C956.98 558.4 957.53 557.1 957.63 555.5C957.83 553.9 957.93 552.25 957.93 550.55V516.2C957.93 514.4 957.83 512.75 957.63 511.25C957.53 509.65 956.98 508.4 955.98 507.5C954.98 506.5 953.08 506 950.28 506C949.38 506 948.53 505.9 947.73 505.7C947.03 505.4 946.68 504.5 946.68 503C946.68 501.5 947.48 500.6 949.08 500.3C953.68 499.6 957.18 498.9 959.58 498.2C962.08 497.5 963.98 496.9 965.28 496.4C966.58 495.9 967.73 495.6 968.73 495.5C969.53 495.4 970.18 495.55 970.68 495.95C971.28 496.35 971.58 497.15 971.58 498.35V550.55C971.58 552.25 971.63 553.9 971.73 555.5C971.93 557.1 972.53 558.4 973.53 559.4C974.63 560.3 976.58 560.75 979.38 560.75C980.28 560.75 981.03 560.85 981.63 561.05C982.33 561.15 982.73 561.95 982.83 563.45C982.83 564.15 982.63 564.85 982.23 565.55C981.83 566.15 981.23 566.45 980.43 566.45C977.53 566.25 974.83 566.1 972.33 566C969.93 566 967.38 566 964.68 566C961.98 566 959.43 566 957.03 566C954.63 566.1 951.98 566.25 949.08 566.45ZM963.93 478.85C961.13 478.85 958.78 478 956.88 476.3C954.98 474.5 954.03 472.3 954.03 469.7C954.03 467.4 955.18 465.35 957.48 463.55C959.78 461.75 962.38 460.85 965.28 460.85C967.78 460.85 969.83 461.75 971.43 463.55C973.03 465.25 973.83 467.45 973.83 470.15C973.83 472.55 972.88 474.6 970.98 476.3C969.08 478 966.73 478.85 963.93 478.85Z" fill="#7E844A"/>
</svg>
