<svg id="Layer_1" data-name="Layer 1" xmlns="http://www.w3.org/2000/svg" viewBox="0 0 1090.6 458.67"><defs><style>.cls-1{fill:#8a733e;}.cls-2{fill:none;stroke:#8a733e;stroke-miterlimit:10;stroke-width:1.3px;}</style></defs><path class="cls-1" d="M96.41,280.79v1.31h-35v-1.31l7.09-12.16-9.84-23.88h-32l-9.41,23.88,8.1,12v1.45H0v-1.45l9.7-12L38.36,197l-6.51-15.93,18.53-6.8L88.3,268.63ZM56.31,239l-14-34L29,239Z"/><path class="cls-1" d="M119.28,280.79l8.11-12V189.6L119,177v-1.3H154.6V177l-8.39,12.89V276.6H163c10.42,0,17.66-6.37,19.68-17.52l15.93,11.73c-2.75,5.35-9.56,11.29-34.17,11.29H119.28Z"/><path class="cls-1" d="M307.61,274.86c-6.23,5.21-12.88,7.24-39.23,7.24H222.49v-1.45l8.25-11.87V189.16l-10.57-12V175.7h73.69l5.21,23.3h-2.75L276.2,180.91H249.56v39.37h18.82L280,213.05h1.74v23.59h-1.6l-11.72-10.57H249.56V276.6h13.75c15.93,0,24.18-4.78,29.68-17.09Z"/><path class="cls-1" d="M419.51,280.36v1.74H380.42v-1.74l7.82-11.73L367.1,234.76,345,268.63l8.69,11.73v1.74H327.29v-1.74l9-11.73,26.49-40.82-24.32-39.08-8.69-11.29V175.7h38.37v1.74l-6.66,11.29,14.47,23.45,15.49-23.45-6.22-11.29V175.7h23.16v1.74l-8.54,11.29L380,218.55l31,50.08Z"/><path class="cls-1" d="M524,180.91v39.52h18.09l11.58-6.8h1.74v22h-1.59l-11.73-9.41H524v42.41l9.55,12v1.45H496.22v-1.45l9-12V189.16l-9.55-12V175.7h72.66l5.22,23.3h-2.61l-20.27-18.09Z"/><path class="cls-1" d="M595.24,280.65l9-12V189l-5.64-11.87V175.7h30.11v1.45L623,189v79.61l9,12v1.45H595.24Z"/><path class="cls-1" d="M673.55,278.62l-9.12,3.48h-2V254H667c2.89,15.06,14.47,24.61,30,24.61,14.62,0,23.45-6.8,23.45-17.95,0-30.54-57.18-20.12-57.18-58.91,0-21.28,19-28.09,34-28.09,17.81,0,29.1,5.79,34,17.81l-15.92,10.71h-2.18a24.38,24.38,0,0,0,.87-7.24c0-10.42-6.22-16.07-17.66-16.07s-17.66,5.94-17.66,14.91c0,30.4,57.33,19,57.33,59.64,0,18.39-16.07,30.69-39.09,30.69C686.58,284.12,678.33,281.37,673.55,278.62Z"/><path class="cls-1" d="M860.87,280.65v1.45H825.26v-1.45l8.1-12.16V230.13H790.52v38.36l8.1,12.16v1.45H763v-1.45l8.69-12.16V188.73l-7.1-11.58V175.7h33.15v1.45l-7.23,11.58v35.61h42.84V188.73l-7.23-11.58V175.7h33v1.45l-7,11.58v79.76Z"/><path class="cls-1" d="M975.66,274.86c-6.23,5.21-12.88,7.24-39.23,7.24H890.54v-1.45l8.25-11.87V189.16l-10.56-12V175.7h73.68l5.21,23.3h-2.75l-20.12-18.09H917.61v39.37h18.82L948,213.05h1.74v23.59h-1.59l-11.73-10.57H917.61V276.6h13.75c15.93,0,24.18-4.78,29.68-17.09Z"/><path class="cls-1" d="M1090.6,286.73h-2.9l-21.42-8.25L1033.71,228h-4.78v40.67l8.68,12v1.45h-36.47v-1.45l9-12V189.16L1000.7,177v-1.3h33.15c12.59,0,45,.58,45,26.2,0,24.61-27.94,26.06-38.36,26.06h-.72l17.08,5.79Zm-61.67-64h7c17.22,0,25.33-6.95,25.33-22.3,0-13.32-9.55-19.54-27.36-19.54h-4.92Z"/><path class="cls-1" d="M359.81,335.19,348,331.94l3.91-11.69,11.85,3.35Zm-10.14-4.14,9.31,2.56,3.12-9.13-9.34-2.64Z"/><path class="cls-1" d="M374.73,381.55l-7.06-8.21.94-.81,3.88-.27,15.38-13.21,1.38-3.12.89-.76,5.93,6.91-.89.76-3.29.9L376.52,377l-.85,3.79Zm-5-7.8,4.89,5.69.71-3.2,15.93-13.68,2.84-.77-4-4.63-1.19,2.68L373,373.53Z"/><path class="cls-1" d="M402.67,405.5c-2,0-4.47-1.32-7.61-4.09l-9.26-8.17.78-.89,3.64-1,13.32-15.09.52-3.88.79-.89,7.89,7-.78.89-3.84,1.06-14.31,16.22,2.78,2.45c1.8,1.59,3.93,1.58,6-.05l.82-.65,1.42,6.57-.51.2A4.31,4.31,0,0,1,402.67,405.5Zm-14.78-12.15,8,7.09c4,3.56,6.14,3.95,7.39,3.7l-.75-3.47a5.5,5.5,0,0,1-6.83-.57L392,396.79,407.4,379.3l3.26-.9-5.44-4.8-.45,3.28-13.84,15.68Z"/><path class="cls-1" d="M432.36,426.19c-1.89,0-4.26-.93-7.33-2.86l-10.47-6.56.63-1,3.43-1.52,10.68-17.06-.11-3.92.63-1,8.92,5.59-.62,1-3.62,1.68L423,418.86l3.14,2c2,1.28,4.14.92,5.91-1l.7-.77,2.47,6.24-.48.29A4.57,4.57,0,0,1,432.36,426.19Zm-15.72-9.64,9.08,5.68c4.57,2.86,6.7,2.9,7.89,2.45l-1.31-3.3a5.51,5.51,0,0,1-6.83.54l-4.24-2.65,12.37-19.76,3.07-1.42-6.15-3.86.09,3.31-11.1,17.73Z"/><path class="cls-1" d="M462.48,441.57a11.09,11.09,0,0,1-4.18-.88c-6.81-2.78-9-6.93-6.63-12.68l6-14.75-.45-3.46.45-1.11,9,3.67-.45,1.11-2.82,2.13-5.9,14.46a7,7,0,0,0-.35,5.21,5.21,5.21,0,0,0,3,2.87c3,1.23,5.72,0,7.05-3.31l6.17-15.13-.86-3.63.46-1.14,7.18,2.92-.47,1.15-3.19,2-6.08,14.88C468.91,439.55,466,441.57,462.48,441.57Zm-9.6-13.07c-2.08,5.08-.25,8.47,5.91,11,4.62,1.88,8.61.3,10.42-4.12l6.23-15.28,2.69-1.66L474,416.75l.73,3.06-6.33,15.51c-1.58,3.89-5.1,5.51-8.74,4a6.48,6.48,0,0,1-3.72-3.59,8.31,8.31,0,0,1,.36-6.18l6-14.79,2.4-1.81-6.09-2.49.38,3Z"/><path class="cls-1" d="M498.08,452.41a15.06,15.06,0,0,1-3.33-.38,13.37,13.37,0,0,1-5.69-2.65l-2.32.35-1.26-.28,1.84-8.38,2.34.51,0,.54a6.92,6.92,0,0,0,5.7,7.25,6.63,6.63,0,0,0,4.21-.21,3.44,3.44,0,0,0,1.95-2.53c.71-3.21-1.89-5.05-4.91-7.18-3.52-2.48-7.51-5.3-6.27-10.92a7.14,7.14,0,0,1,4.51-5.41,11.61,11.61,0,0,1,6.45-.29c4.77,1.05,7.5,3.38,8.11,6.92l.09.53-5.3,2.09L502.6,432l.4-.76a5.53,5.53,0,0,0,.56-1.62c.5-2.27-.53-3.71-3.08-4.28a4.46,4.46,0,0,0-3.09.24,2.93,2.93,0,0,0-1.43,2.06c-.7,3.14,1.86,4.93,4.82,7,3.59,2.51,7.67,5.36,6.35,11.3a7.79,7.79,0,0,1-4.35,5.47A10.9,10.9,0,0,1,498.08,452.41Zm-8.6-4.4.22.21a11.87,11.87,0,0,0,5.33,2.54,11.14,11.14,0,0,0,7.19-.51,6.48,6.48,0,0,0,3.65-4.58c1.12-5.09-2.41-7.56-5.83-9.95-3.07-2.14-6.23-4.35-5.35-8.34a4.24,4.24,0,0,1,2.07-2.92,5.7,5.7,0,0,1,4-.36c3.25.71,4.73,2.84,4.07,5.82a7.31,7.31,0,0,1-.23.88l3.4-1.34c-.69-2.72-3-4.48-7-5.37a10.39,10.39,0,0,0-5.7.25,5.8,5.8,0,0,0-3.71,4.47c-1,4.78,2.25,7.11,5.75,9.58,3.11,2.19,6.33,4.47,5.43,8.52a4.74,4.74,0,0,1-2.67,3.43,7.92,7.92,0,0,1-5,.3,8.22,8.22,0,0,1-6.72-8h0l-1.26,5.75Z"/><path class="cls-1" d="M536.38,456.91l-10.66-.64.07-1.19,2.43-3,1.31-21.85-2.59-.15-5.46,5.16-1.56-.1,2.14-8,21.43,1.29,1.17,8.21-1.56-.09-4.81-5.78-2.59-.16-1.31,21.85,2.06,3.28Zm-8.92-1.84,7.33.44-1.72-2.74,1.41-23.55,4.45.27,4.1,4.93-.67-4.78L523,428.48l-1.24,4.66,4.66-4.4,4.45.26-1.41,23.56Z"/><path class="cls-1" d="M559.5,456.82l-.14-1.24,1.95-3.36-2.29-20-2.79-2.85-.14-1.2,9.19-1.06c8.12-.93,12.52,1.08,13.09,6a6.54,6.54,0,0,1-3.61,6.83,13.91,13.91,0,0,1-3,1.17l1.59.34,11.14,13.75-2,.23-6.09-1.58-9.79-11.93-.23,0,1.1,9.62,2.6,2.84.14,1.23ZM558,429.23l2.31,2.37,2.4,20.9L561,455.33l7.39-.84-2.19-2.4-1.28-11.17-.49-.1.47-.06h0l2.23-.26h0l1.4-.16a15.09,15.09,0,0,0,5.59-1.58,5.19,5.19,0,0,0,3-5.54c-.48-4.11-4.29-5.69-11.65-4.85Zm19.16,23.43,4.68,1.21-9.16-11.29-4.6-1Zm-12.21-12-1.38-12.07,1.91-.22c6.36-.73,8.05,2.21,8.35,4.8.49,4.3-1.62,6.66-6.44,7.21Zm.06-10.92,1.09,9.48,1.14-.13c4.12-.47,5.7-2.2,5.29-5.77-.34-2.95-2.59-4.15-6.9-3.66Z"/><path class="cls-1" d="M597.89,451.15l-.36-1.2,1.56-3.83,1.74-19.56-3.06-3.79,5.13-3.85,16.81,21,3,2.49.34,1.14-9.94,3-.34-1.12.82-3.4-3.74-4.61-7.1,2.13-.49,5.85,2.79,2.29.36,1.17ZM599.63,423l2.54,3.15-1.84,20.37-1.18,2.9,4.35-1.31L600.92,446l.62-7.41,8.79-2.64,4.7,5.78-.76,3.14,6.85-2.05-2.38-2-16.06-20.1Zm1.94,15.37,1-12,7.66,9.4Zm2-8.67-.56,6.88,5-1.49Z"/><path class="cls-1" d="M638.75,436.86l-.52-1.08.66-3.82-9.48-19.72-2.34,1.13-2.26,7.16-1.41.68-2-8,19.36-9.31,5,6.61-1.41.68-7-2.71L635,409.57l9.48,19.72,3.4,1.86.52,1.08ZM630,410.51l10.23,21.27-.56,3.18,6.62-3.18-2.84-1.55L633.25,409l4-1.93,6,2.31-2.92-3.84-17.44,8.38,1.18,4.68,1.93-6.12Z"/><path class="cls-1" d="M670.88,416.22a14.33,14.33,0,0,1-11.66-6.17h0a14.62,14.62,0,0,1-3-11.39,15.58,15.58,0,0,1,6.36-9.74,16.48,16.48,0,0,1,11.52-3.44,14.45,14.45,0,0,1,10.1,6.12A14.68,14.68,0,0,1,687.07,403a15.7,15.7,0,0,1-6.32,9.75A16.61,16.61,0,0,1,670.88,416.22Zm-10.61-6.94c4.76,6.47,12.87,7.46,19.71,2.42l.1-.07c-5.1,3.2-12.44.73-17.38-6-3.9-5.29-4.45-10.1-1.69-13.57a13.48,13.48,0,0,0-3.46,6.79,13.32,13.32,0,0,0,2.72,10.39Zm8.05-19.4a7.71,7.71,0,0,0-4.65,1.47c-5.59,4.12-2.35,10.25.08,13.54,4.68,6.35,11.6,8.63,16.11,5.31,5.72-4.21,1.67-11-.34-13.72h0C676.4,392.26,672.12,389.88,668.32,389.88Zm12.24,5.83c3.85,5.21,4.54,10.08,2.07,13.53a13.68,13.68,0,0,0,3.16-6.48,14.11,14.11,0,0,0-11.78-16,15.17,15.17,0,0,0-10.57,3.15c5-3.12,12.36-.68,17.12,5.78Z"/><path class="cls-1" d="M706,390.82l-.92-.83-.73-3.82-14.88-13.61-4-.32-.89-.82,6.23-6.82c5.52-6,10.16-7.41,13.81-4.08a6.54,6.54,0,0,1,1.76,7.52,13,13,0,0,1-1.49,2.85l1.43-.79,17.43,3.06-1.5,1.57-5.51,2.75-15.23-2.58-.16.18,7.15,6.53,3.82.44.91.83ZM686.72,371l3.3.27,15.54,14.2.61,3.21,5-5.49-3.22-.37-8.3-7.58-.44.24.32-.35h0l1.51-1.66h0l1-1a15.08,15.08,0,0,0,3.18-4.86,5.19,5.19,0,0,0-1.42-6.12c-3-2.78-7-1.48-12,4Zm15.72,2.71,14.12,2.39,4.33-2.16-14.32-2.51Zm-2.93,1.38-9-8.19,1.3-1.42a9.92,9.92,0,0,1,4.81-3.26,5,5,0,0,1,4.63,1.4,6.08,6.08,0,0,1,2.37,4.64c0,1.59-.85,3.23-2.49,5Zm-7.13-8.27,7,6.44.77-.85a6.75,6.75,0,0,0,2.15-4.18,4.91,4.91,0,0,0-1.94-3.65,3.71,3.71,0,0,0-3.47-1.09,8.71,8.71,0,0,0-4.14,2.87Z"/><path class="cls-1" d="M729.29,335.49l-3.91-11.68,11.81-3.25,4,11.59Zm-2.24-10.79,3.08,9.21,9.35-2.64-3.13-9.13Z"/><path class="cls-1" d="M350.61,152.65a16.09,16.09,0,0,1-6.73-1.53,14.52,14.52,0,0,1-7.3-20c2.49-5.35,7.43-8.73,12.56-8.64h.47l2.57,8.29-1.47-.9a9.48,9.48,0,0,0-7.55-1.06,7,7,0,0,0-4.4,3.72c-2.36,5.07,1.73,9.78,6.53,12,6.87,3.2,13.16,1.76,15.65-3.59,2.15-4.63,0-7.79-2.88-9.3l-5.71,5.24-1.39-.65L355.72,126l12.88,6-.68,1.47-3,.54a13.16,13.16,0,0,1-1,9.28c-2.17,4.64-5.47,7.7-9.56,8.84A13.92,13.92,0,0,1,350.61,152.65Zm-13.61-19a13.08,13.08,0,0,0,7.43,16.33,14.18,14.18,0,0,0,9.59.95c3.71-1,6.73-3.85,8.73-8.14,1.47-3.17,1.72-6.61.65-9l-.34-.77,3.36-.59-10.07-4.69-3,6.48,4.49-4.13.4.19c3.46,1.61,6.55,5.51,3.89,11.22-2.81,6.05-9.79,7.75-17.37,4.22C339.87,143.46,335.7,138.83,337,133.61Zm11.65-9.84c-4.37.12-8.54,3.06-10.77,7.63a8.3,8.3,0,0,1,4.91-3.83A10.72,10.72,0,0,1,350,128Z"/><path class="cls-1" d="M373.26,124.26l-1-.71L371,119.87,354.42,108.4l-4,.21-1-.69,5.26-7.6a23.34,23.34,0,0,1,4.91-5.44c2.82-2.07,5.66-2.23,8.22-.46a6.53,6.53,0,0,1,2.76,7.21,13.19,13.19,0,0,1-1.09,3l1.3-1,17.68.68-1.27,1.76-5.09,3.47-15.43-.5-.13.19,8,5.51,3.84-.08,1,.7Zm-18.47-17.18,17.31,12,1,3.11,4.23-6.12-3.24.07-9.25-6.4-.38.29.25-.38h0l1.27-1.84h0l.79-1.16a15.1,15.1,0,0,0,2.5-5.25,5.18,5.18,0,0,0-2.23-5.87c-2.12-1.46-4.31-1.32-6.71.43a22.32,22.32,0,0,0-4.61,5.14l-4.28,6.19Zm12.64.73,14.31.47,4-2.72L371.21,105Zm-2.72,1.77-10-6.91,1.09-1.58a10,10,0,0,1,4.33-3.88,5,5,0,0,1,4.78.76,6,6,0,0,1,3,4.28c.18,1.58-.4,3.32-1.78,5.32Zm-8.18-7.24,7.85,5.43.65-.94c1.19-1.73,1.7-3.18,1.56-4.43A4.9,4.9,0,0,0,364.18,99a3.72,3.72,0,0,0-3.59-.61,8.8,8.8,0,0,0-3.71,3.4Z"/><path class="cls-1" d="M390.77,99.69l-.91-.87-.53-4.1-8.12-17.89-4.53-1.78,2.57-5.88,25,10,3.85.69.86.82-7.18,7.49-.84-.81L400,84l-5.53-2.17-5.13,5.36,2.45,5.33,3.56.61.89.85ZM378.41,74.33l3.77,1.49,8.43,18.64.4,3.09,3.14-3.27-3.28-.57L387.76,87l6.34-6.62L401,83.05l.89,3.11L406.88,81l-3.06-.56-23.88-9.59Zm9.26,12.42-5.05-10.92,11.29,4.41Zm-2.52-8.53,2.9,6.26,3.58-3.73Z"/><path class="cls-1" d="M414.56,75.94l-.74-1-.09-3.85L401.54,55.05l-3.79-1L397,53l8.29-6.29c8.09-6.13,12.41-4,14.6-1.07h0c4.67,6.16-2.12,11.8-3.53,12.87a11.62,11.62,0,0,1-3.13,1.69l5.42,7.15,3.8,1,.75,1ZM399.12,53l3.19.87L415,70.66l.07,3.25,6-4.53-3.19-.87-6.86-9,1-.23a10.22,10.22,0,0,0,3.57-1.75c1.74-1.32,7.11-6,3.29-11-2.68-3.53-7-3.08-12.78,1.32ZM411,59.38l-7.34-9.68L405.86,48c4.05-3.07,7.44-2.88,10.06.58h0c3.63,4.78.48,8-1,9.14a8.15,8.15,0,0,1-3.54,1.6ZM405.43,50l6.07,8a7,7,0,0,0,2.59-1.28c1.84-1.39,3.47-3.79.8-7.31h0c-2.16-2.85-4.78-3-8.24-.33Z"/><path class="cls-1" d="M439.17,57.93l-.58-1.09.53-3.83-9.42-18-3-1.81-.56-1.07,8.76-4.59.56,1.07-.26,3.53,3.9,7.43,8.68-4.56-3.9-7.43-3.06-1.78-.56-1.08L449,20.18l.56,1.07-.2,3.5,9.42,18,3.46,1.74.57,1.09-9.32,4.9-.57-1.09.4-3.76-4.23-8.06-8.68,4.56,4.23,8L447.92,52l.57,1.08ZM428.11,32.59l2.57,1.53,9.79,18.65L440,56l6.44-3.38-2.83-1.54-5-9.56,11-5.76,5,9.55-.33,3.21,6.43-3.38-2.92-1.48L448,25l.17-3-5.93,3.11,2.59,1.51,4.68,8.91-11,5.77-4.68-8.92.23-3Z"/><path class="cls-1" d="M471.43,42.35,471,41.18l1.14-3.72-6.83-19.09L462.9,16l-.39-1.11,8.57-3.06.4,1.1-.34,3.39L478,35.38l3.24,2.15.42,1.17Zm-7.07-26.77,2.08,2.08,7.08,19.77-1,3.13L479.62,38l-2.73-1.81-7.08-19.78.3-2.92Z"/><path class="cls-1" d="M500.32,33.74c-8,0-12.79-5.63-14.14-12h0c-1.77-8.29,3.24-15.9,11.66-17.7,6-1.27,11.48.62,14.37,4.95l.25.38-5.15,7.1-.17-1.7a9.87,9.87,0,0,0-3.73-6.95A6.67,6.67,0,0,0,498,6.69c-5.34,1.14-7,7.23-5.8,12.66,1.62,7.59,6.41,11.7,12.2,10.47,5.36-1.15,6.32-5.08,6.49-6.72l0-.47,2.2-.47,1.79,8.35-1.48.32-2.21-1a13.62,13.62,0,0,1-6.86,3.51A19.44,19.44,0,0,1,500.32,33.74ZM487.45,21.51c1.32,6.21,6.47,12.69,16.62,10.52a12.39,12.39,0,0,0,6.53-3.47l.32-.33,2.39,1.11L512.1,23.7h0c-.33,2.12-1.72,6.16-7.45,7.39-6.46,1.38-12-3.23-13.74-11.47C489.73,14.17,491.17,8.11,496,6a13.28,13.28,0,0,0-8.51,15.53Zm12-16.28a8,8,0,0,1,4.73,1.58,10.9,10.9,0,0,1,4,6.3l2.7-3.72c-2.6-3.56-7.33-5.11-12.51-4.09A8.08,8.08,0,0,1,499.45,5.23Z"/><path class="cls-1" d="M555.78,29.62q-.46,0-.93,0a8.77,8.77,0,0,1-5.53-2l-.06,1.19-8.15-.4.06-1.23,2.29-3,1-20.18L542.21.78l.06-1.25,9.87.49c6.24.31,16.6,2.79,15.94,15.94h0c-.25,5-1.71,8.73-4.36,11A11.78,11.78,0,0,1,555.78,29.62Zm-7.56-5.92,1.1,1.87c1,1.62,2.95,2.59,5.59,2.72a10.93,10.93,0,0,0,8-2.3c2.37-2,3.68-5.44,3.92-10.1.31-6.3-2-13.94-14.71-14.57L543.9.91l1.88,2.68-1,21-1.94,2.55,5.23.26ZM555,28h-.47a6.93,6.93,0,0,1-6.11-4.21l-.07-.15,1.11-22.36,2.6.13c7.54.37,11.13,5.34,10.66,14.78h0C562.35,24.1,559.82,28,555,28Zm-5.33-4.64a5.64,5.64,0,0,0,4.93,3.33c2.69.14,6.34-.81,6.82-10.58C561.87,7.39,558.79,3,552,2.66l-1.3-.06Z"/><path class="cls-1" d="M594.92,34.68a37.33,37.33,0,0,1-7.27-1.09l-12.26-2.66.26-1.2,2.74-2.55,4.27-19.73-2-3.62.27-1.24,19.81,4.29,0,7.52L599,14l-4.11-5.68-5.86-1.28-1.89,8.71,4,.85,3.33-1.19,1.26.27-1.57,7.24-1.28-.27-2.39-3.32-3.89-.85L584.09,30l2.85.62c3.77.81,5.88.15,7.79-2.45l.58-.78L599,33.53l-.61.32A6.86,6.86,0,0,1,594.92,34.68ZM577.26,30l10.66,2.31c5.9,1.28,7.8,1.26,9.26.67l-2-3.27c-2.09,2.4-4.63,3-8.52,2.2L582.55,31l3-14.07,5.65,1.22,2,2.79.87-4-2.9,1-5.59-1.21,2.44-11.24,7.63,1.65,3.76,5.21,0-4.45-17.07-3.7,1.68,3-4.47,20.6Z"/><path class="cls-1" d="M619.73,43.29a14.15,14.15,0,0,1-5-1,13.24,13.24,0,0,1-5.23-3.46l-2.46,0-1.1-.42,3.07-8,2.23.85-.1.53a6.93,6.93,0,0,0,4.56,8,6.78,6.78,0,0,0,4.2.42,3.44,3.44,0,0,0,2.3-2.22c1.18-3.07-1.12-5.27-3.79-7.83-3.11-3-6.64-6.35-4.58-11.73a7.17,7.17,0,0,1,5.26-4.68,11.57,11.57,0,0,1,6.42.67c4.56,1.74,6.91,4.46,7,8V23l-5.56,1.28-1.5-.58.5-.68a5.83,5.83,0,0,0,.8-1.52,3.39,3.39,0,0,0,0-2.79,4.31,4.31,0,0,0-2.44-1.9c-2.33-.89-4.09-.31-4.82,1.6-1.15,3,1.12,5.15,3.74,7.63,3.18,3,6.78,6.43,4.6,12.12C626.56,41.45,623.5,43.29,619.73,43.29Zm-12.12-5.77h2.46l.19.24a11.8,11.8,0,0,0,4.89,3.31c5.3,2,9.91.65,11.47-3.43,1.87-4.87-1.26-7.84-4.29-10.71-2.71-2.56-5.51-5.22-4.05-9,1-2.6,3.48-3.5,6.5-2.34a5.55,5.55,0,0,1,3.14,2.53,4.59,4.59,0,0,1,0,3.83,6.39,6.39,0,0,1-.36.84l3.57-.82c-.28-2.8-2.3-4.88-6.14-6.35a10.4,10.4,0,0,0-5.67-.61A5.81,5.81,0,0,0,615,18.86c-1.76,4.57,1.16,7.36,4.26,10.32,2.75,2.64,5.6,5.36,4.11,9.24a4.74,4.74,0,0,1-3.15,3,7.92,7.92,0,0,1-5-.45A8.24,8.24,0,0,1,609.74,32h0Z"/><path class="cls-1" d="M642.49,54.75l-9.55-5.1.58-1.09L637,46.91,646.58,29l.16-3.41.55-1,8,4.28-.55,1-2.74,2-9.54,17.89.59,3.85ZM635,49.29l6.62,3.53-.5-3.24L651,31.05l2.37-1.75L648,26.43l-.13,2.94L638,47.9Z"/><path class="cls-1" d="M672.4,75,671.08,74l0-3.08a13.14,13.14,0,0,1-8.93-2.71c-8.69-6.31-8.2-15.18-3.85-21.17,5.12-7.06,14-8.47,21-3.35,4.78,3.46,7.17,9,6.09,14l-.1.46-8.63.94,1.17-1.27a9.47,9.47,0,0,0,2.47-7.21,7,7,0,0,0-2.81-5,7.12,7.12,0,0,0-6.84-.86,13.78,13.78,0,0,0-6.19,5,14.73,14.73,0,0,0-3.21,9.18,8.75,8.75,0,0,0,3.75,6.87,7.12,7.12,0,0,0,5.69,1.54,6.86,6.86,0,0,0,4-2.59l-4.06-6.6.9-1.25,9.14,6.63Zm.05-5.64-.05,3.42,6.52-9-5.78-4.2,3.19,5.2-.26.35a7.85,7.85,0,0,1-11.76,1.68A10.06,10.06,0,0,1,660,59a16,16,0,0,1,3.45-10,15.11,15.11,0,0,1,6.81-5.43,8.35,8.35,0,0,1,6.68.21c-6.19-3.46-13.2-1.9-17.57,4.11C655.73,52.91,654.45,61,663,67.2c2.83,2,6.15,3,8.67,2.35Zm6.4-24.4a8.28,8.28,0,0,1,2.82,5.55,10.7,10.7,0,0,1-1.82,7l4.43-.48C685,52.66,682.91,48,678.85,45Z"/><path class="cls-1" d="M694.57,97.3l-1.51-1.57,4.46-25.44L685.78,81.64l-.75,3.7-.89.86-5.31-5.49.87-.84,3.88-.52,14.43-14,.83-3.78.88-.85L704.81,66,701.27,86.4l8.91-8.62.67-3.73.89-.86L717,78.63l-.88.86-3.73.57Zm-.12-2,.15.15,17.19-16.62,3.14-.48-3-3.08-.56,3.15L695.58,93.72l4.24-6.58,3.59-20.69-3.51-3.62-.71,3.22-15,14.53-3.23.44,3,3.1.63-3.13,14.91-14.42Z"/><path class="cls-1" d="M717.19,123.55l-.67-.18c-2.25-.62-3.75-1.85-7.7-7.55l-7.14-10.31,1-.7h3.75L723,93.32l1-4,1.05-.73,11.54,16.67-5.1,5.53-1-1.46.89-7L728,97.41l-7.32,5.07,2.3,3.33,3.25,1.4.73,1.05-6.09,4.23-.75-1.08.52-4.06-2.27-3.27-9.69,6.72,1.66,2.39c2.19,3.17,4.19,4.13,7.36,3.54l1-.18Zm-13.51-17.44,6.21,9c3.44,5,4.84,6.25,6.31,6.82l.78-3.76c-3.18.33-5.47-.94-7.73-4.21l-2.4-3.46,11.83-8.2L722,107l-.43,3.41,3.4-2.36-2.84-1.22-3.25-4.69,9.46-6.56,4.44,6.42-.81,6.38,3-3.28L725,90.76l-.83,3.35-17.34,12Z"/><path class="cls-1" d="M728.66,154.71l-.9-2-.49-6.14,8.09-13.15-.1-.22-8.73,4.19-1.84,3.37-1.11.54-4.65-9.7,1.12-.54,3.81.75,18.19-8.71,1.79-3.56,1.09-.52,4,8.34c3.53,7.37,3.06,12.19-1.39,14.32-3.6,1.72-7,.43-9.71-3.63l.19,1.62Zm-.06-7.79.38,4.81,7.69-12.33-.57-4.68Zm8.24-13.4.61,1.27c1.83,3.83,5,7.93,9.52,5.75,3.73-1.79,4-5.91.78-12.59l-3.26-6.79-1.48,3-19,9.09-3.21-.63,3.21,6.71,1.55-2.85,10.14-4.86-.06-.5.21.43h0Zm5.8,4.75a4.87,4.87,0,0,1-1.93-.4c-1.47-.63-2.69-2-3.73-4.18l-1.06-2.21,11-5.25.83,1.74a10,10,0,0,1,1.22,5.68,5,5,0,0,1-3,3.77A7.67,7.67,0,0,1,742.64,138.27Zm-5-6.18.5,1a6.72,6.72,0,0,0,3.07,3.55,4.87,4.87,0,0,0,4.11-.43,3.74,3.74,0,0,0,2.31-2.81,8.73,8.73,0,0,0-1.11-4.91l-.27-.56Z"/><polygon class="cls-2" points="536.86 84.81 520.02 113.94 536.86 143.19 553.69 113.94 536.86 84.81"/><polygon class="cls-2" points="563.28 115.54 546.44 144.86 580.36 144.82 596.76 115.26 563.28 115.54"/><polygon class="cls-2" points="476.72 115.26 493.13 144.82 527.05 144.86 510.21 115.54 476.72 115.26"/><polygon class="cls-2" points="560.81 80.08 553.68 92.41 560.81 104.8 567.94 92.41 560.81 80.08"/><polygon class="cls-2" points="577.86 93.09 570.73 105.5 585.1 105.49 592.04 92.97 577.86 93.09"/><polygon class="cls-2" points="599.17 133.13 592.04 145.55 606.4 145.53 613.35 133.02 599.17 133.13"/><polygon class="cls-2" points="512.9 80.08 520.02 92.41 512.9 104.8 505.77 92.41 512.9 80.08"/><polygon class="cls-2" points="495.85 93.09 502.97 105.5 488.61 105.49 481.67 92.97 495.85 93.09"/><polygon class="cls-2" points="474.54 133.13 481.67 145.55 467.31 145.53 460.36 133.02 474.54 133.13"/><polygon class="cls-2" points="577.86 93.09 570.73 105.5 585.1 105.49 592.04 92.97 577.86 93.09"/><polygon class="cls-2" points="599.17 133.13 592.04 145.55 606.4 145.53 613.35 133.02 599.17 133.13"/><polygon class="cls-2" points="536.82 372.92 553.66 343.8 536.82 314.54 519.99 343.8 536.82 372.92"/><polygon class="cls-2" points="510.41 342.19 527.24 312.87 493.32 312.91 476.92 342.47 510.41 342.19"/><polygon class="cls-2" points="596.96 342.47 580.56 312.91 546.64 312.87 563.47 342.19 596.96 342.47"/><polygon class="cls-2" points="512.87 377.65 520 365.32 512.87 352.93 505.75 365.32 512.87 377.65"/><polygon class="cls-2" points="495.82 364.64 502.95 352.23 488.59 352.25 481.64 364.76 495.82 364.64"/><polygon class="cls-2" points="474.51 324.6 481.64 312.18 467.28 312.2 460.34 324.72 474.51 324.6"/><polygon class="cls-2" points="560.78 377.65 553.66 365.32 560.78 352.93 567.91 365.32 560.78 377.65"/><polygon class="cls-2" points="577.84 364.64 570.71 352.23 585.07 352.25 592.01 364.76 577.84 364.64"/><polygon class="cls-2" points="599.14 324.6 592.01 312.18 606.38 312.2 613.32 324.72 599.14 324.6"/><polygon class="cls-2" points="495.82 364.64 502.95 352.23 488.59 352.25 481.64 364.76 495.82 364.64"/><polygon class="cls-2" points="474.51 324.6 481.64 312.18 467.28 312.2 460.34 324.72 474.51 324.6"/></svg>