<?xml version="1.0" encoding="utf-8"?>
<!-- Generator: Adobe Illustrator 25.1.0, SVG Export Plug-In . SVG Version: 6.00 Build 0)  -->
<svg version="1.1" id="Capa_1" xmlns="http://www.w3.org/2000/svg" xmlns:xlink="http://www.w3.org/1999/xlink" x="0px" y="0px"
	 viewBox="0 0 186.9 186.9" style="enable-background:new 0 0 186.9 186.9;" xml:space="preserve">
<style type="text/css">
	.st0{fill:#8A733E;}
</style>
<path class="st0" d="M93.4,0C41.8,0,0,41.8,0,93.4s41.8,93.4,93.4,93.4s93.4-41.8,93.4-93.4c0,0,0,0,0,0C186.8,41.8,145,0.1,93.4,0z
	 M154.3,44.1c10.8,13.3,17,29.8,17.5,47c-17.3-3.7-35.2-3.9-52.6-0.5c-2.8-6.6-5.7-12.8-8.7-18.8C127.5,64.5,142.2,55.2,154.3,44.1z
	 M143.8,33.4c-12,11-25.9,19.1-40.2,25C95.7,43.9,86.9,30,77.1,16.7C100.7,11.7,125.3,17.8,143.8,33.4z M61.9,21.6
	C72.1,35,81.2,49.1,89.3,63.8C59.7,73.4,31,75,17.2,75.2C22.9,51.3,39.5,31.5,61.9,21.6z M15.1,90.2h0.4c16-0.1,31.9-1.5,47.6-4.4
	c11.3-2,22.4-4.9,33.3-8.6c2.7,5.4,5.4,11.1,8,17.1c-13.1,4.2-25.4,10.4-36.7,18.2c-12.8,8.8-24.3,19.5-34.1,31.5
	C21.6,129.9,15,112,15,93.4C15,92.3,15,91.3,15.1,90.2z M44.4,154.6c9.2-11.5,20.1-21.6,32.2-30c10.3-7.1,21.5-12.6,33.4-16.4
	c7.1,18.3,12.4,37.3,15.8,56.6C99,177,67.4,173.1,44.4,154.6L44.4,154.6z M139.6,156.7c-3.4-17.8-8.3-35.2-14.7-52.1
	c15.3-2.5,30.8-2,45.9,1.6C167.4,126.4,156.2,144.6,139.6,156.7z"/>
</svg>
