<svg id="Layer_1" data-name="Layer 1" xmlns="http://www.w3.org/2000/svg" viewBox="0 0 485.71 62.04"><defs><style>.cls-1{isolation:isolate;}.cls-2{fill:#8a733e;}</style></defs><g id="ABOUT_ME" data-name="ABOUT ME" class="cls-1"><g class="cls-1"><path class="cls-2" d="M54.28,60.92H33.92V59.57l3.86-6.63L32.57,40.28h-17l-5,12.64L15,59.47v1.45H0V59.45l5.42-6.72L21.16,13.38,17.44,4.29,28.62.18,49.75,52.75l4.53,6.8Zm-19.36-1H53.28v-.07l-4.44-6.68L28.06,1.46l-9.3,3.41,3.48,8.51L6.25,53.3,1,59.8v.12H14v-.14L9.46,53l5.42-13.76H33.24L38.9,53ZM32.37,37.08H15.77l8.08-20.64Zm-15.14-1H30.87l-7-17Z"/><path class="cls-2" d="M93.54,62c-5.12,0-9.25-1.42-11.82-4v2.91H65.92V59.46l4.8-6.64V9.15l-5-6.56V1.12H86c19.19,0,23.22,7.71,23.22,14.18,0,8-6.07,11.37-11.22,12.83,11.22,1.42,16.9,7.05,16.9,16.77C114.92,55.31,106.53,62,93.54,62ZM80.72,55.15l.9,1.21c2.24,3,6.48,4.68,11.92,4.68,12.38,0,20.38-6.33,20.38-16.14,0-10.13-6.28-15.38-19.21-16.06l0-1c6.19-1,13.58-4,13.58-12.55C108.24,4.41,96.16,2.12,86,2.12H66.76v.13l5,6.56V53.14l-4.8,6.64v.14h13.8Zm11,3.37c-4.81,0-8.65-2.05-10.52-5.63l-.06-.1V30h6.5c3.68,0,15.7,1.07,15.7,14.82C103.32,53.4,99,58.52,91.7,58.52Zm-9.58-6c1.72,3.17,5.2,5,9.58,5,6.65,0,10.62-4.75,10.62-12.7C102.32,32,91.07,31,87.62,31h-5.5ZM85.3,28.12H81.12V4h5.06c9.22.33,13.7,4.08,13.7,11.46C99.88,23.51,94.57,28.12,85.3,28.12Zm-3.18-1H85.3c8.76,0,13.58-4.14,13.58-11.66,0-6.83-4-10.15-12.72-10.46h-4Z"/><path class="cls-2" d="M160.34,62c-19.23,0-32.66-12.74-32.66-31S140.72,0,159.38,0c19.33,0,32.82,12.77,32.82,31.06C192.2,49,178.8,62,160.34,62Zm-1-61c-18.07,0-30.7,12.36-30.7,30.06s13,30,31.66,30c17.88,0,30.86-12.61,30.86-30C191.2,13.08,178.41,1,159.38,1ZM162,59.32c-13,0-22.82-13.49-22.82-31.38,0-16,6.89-25.22,18.9-25.22,12.66,0,22.58,13.5,22.58,30.74C180.68,49.65,173.71,59.32,162,59.32ZM158.1,3.72c-6.68,0-17.9,3.15-17.9,24.22,0,17.32,9.38,30.38,21.82,30.38,5.31,0,17.66-2.42,17.66-24.86C179.68,16.78,170.2,3.72,158.1,3.72Z"/><path class="cls-2" d="M232.34,62c-15.3,0-22.42-6-22.42-18.82V9l-3.68-6.48V1.12h18.92V2.56L221.32,9V42.58c0,7.11,3.32,14.7,12.62,14.7,7.37,0,12.14-5.14,12.14-13.1V9.06l-4.64-6.48V1.12H256.2V2.58l-4.72,6.48V43.62C251.48,54.81,244,62,232.34,62ZM207.24,2.29l3.68,6.48V43.22c0,12.33,6.61,17.82,21.42,17.82,11.19,0,18.14-6.67,18.14-17.42V8.74l4.72-6.48V2.12H242.44v.14l4.64,6.48V44.18c0,8.57-5.16,14.1-13.14,14.1-6.58,0-13.62-4.12-13.62-15.7V8.76l3.84-6.48V2.12H207.24Z"/><path class="cls-2" d="M303.8,60.92h-21V59.54l4.8-6.72V5h-6.8l-11,11.68H268l3.16-15.56h44.34l3.16,15.56h-1.87L305.8,5H299V52.82l4.8,6.72Zm-20-1h19v-.06L298,53.14V4h8.24l11,11.68h.21L314.65,2.12H272l-2.76,13.56h.21L280.36,4h8.24V53.14Z"/><path class="cls-2" d="M390.32,61.48h-4.19l-12.7-40.55-5.6,31.93,4.93,6.6v1.46H358.32V59.46l5-6.68,7.08-41.19-3.1-8.72L378.12.22,391.17,42l8.49-31.54-1.59-7.65L409.37.22,420,52.79l4.27,6.69v1.44H404.8V59.49l3.73-6.59-6.82-32.6Zm-3.45-1h2.69L401.3,18.05l1,0,7.32,35-3.79,6.69v.17h17.48v-.15l-4.23-6.69L408.59,1.42,399.25,3.6l1.44,6.92,0,.11-9.44,35-1-.13V42.42l-12.8-41-8.85,2.16,2.82,7.92,0,.13-7.14,41.55-4.93,6.61v.13h12.44v-.13l-5-6.68,6-34.38,1-.06Z"/><path class="cls-2" d="M463.3,60.92H437.44V59.47L442,52.9V9.25l-5.84-6.64V1.12h41.62L480.88,15h-2.33L467.43,5h-14V25.76h9.75l6.4-4h1.61v14h-1.57L463.11,30H453.4V56.88h7.1c8.64,0,13-2.48,15.94-9.14l.31-.68,9,9.4-.41.35C481.67,59.84,477.8,60.92,463.3,60.92Zm-24.86-1H463.3c13.62,0,17.62-.94,20.94-3.55L477,48.82c-3.13,6.51-7.84,9.06-16.54,9.06h-8.1V29h11.09L470,34.8h.19v-12h-.32l-6.4,4h-11V4h15.41l11.12,10h.7L477,2.12H437.16v.11L443,8.87V53.22l-4.56,6.56Z"/></g></g></svg>