<svg xmlns="http://www.w3.org/2000/svg" viewBox="0 0 100 90"><defs><style>.cls-1{fill:#fff5df;}</style></defs><g id="Layer_1" data-name="Layer 1"><polygon class="cls-1" points="24.34 59.15 22.34 59.15 22.34 0.04 60.16 0.04 77.66 17.15 77.66 29.57 75.66 29.57 75.66 17.99 59.34 2.04 24.34 2.04 24.34 59.15"/><polygon class="cls-1" points="77.66 81.58 59.23 81.58 59.23 79.58 75.66 79.58 75.66 47.15 77.66 47.15 77.66 81.58"/><path class="cls-1" d="M77.66,18.57H58.75V0h1.41l17.5,17.11Zm-16.91-2H74.21L60.75,3.42Z"/><polygon class="cls-1" points="11.36 43.75 0.04 43.75 0.04 9.32 2.04 9.32 2.04 41.75 9.36 41.75 9.36 9.32 11.36 9.32 11.36 43.75"/><path class="cls-1" d="M11.36,10.45H0V9.16L5.7,0l5.66,9.19Zm-8.54-2H8.57L5.7,3.78Z"/><path class="cls-1" d="M11.36,48.25H0v-6.5H11.36ZM2,46.25H9.36v-2.5H2Z"/><path class="cls-1" d="M11.36,54.15H0v-8H11.36ZM2,52.15H9.36v-4H2Z"/><rect class="cls-1" x="4.7" y="9.44" width="2" height="33.31"/><path class="cls-1" d="M60.23,89.91H.11V58.15H60.23Zm-58.12-2H58.23V60.15H2.11Z"/><polygon class="cls-1" points="30.17 82.32 0.51 59.95 1.71 58.36 30.17 79.81 58.62 58.36 59.83 59.95 30.17 82.32"/><path class="cls-1" d="M100,48.15H67.21V28.57H100Zm-30.78-2H98V30.57H69.21Z"/><rect class="cls-1" x="28.75" y="22.57" width="42.23" height="2"/><rect class="cls-1" x="28.75" y="28.57" width="42.23" height="2"/><rect class="cls-1" x="28.75" y="34.57" width="39.46" height="2"/><rect class="cls-1" x="28.75" y="40.15" width="39.46" height="2"/><rect class="cls-1" x="28.75" y="46.15" width="42.23" height="2"/><rect class="cls-1" x="28.75" y="46.15" width="42.23" height="2"/><rect class="cls-1" x="28.75" y="52.15" width="42.23" height="2"/><rect class="cls-1" x="28.75" y="58.15" width="42.23" height="2"/><rect class="cls-1" x="59.23" y="64.15" width="11.75" height="2"/><rect class="cls-1" x="59.23" y="70.15" width="11.75" height="2"/><path class="cls-1" d="M36.61,17.18H27.75V8.33h8.86Zm-6.86-2h4.86V10.33H29.75Z"/><path class="cls-1" d="M88,42.79H79.17V33.93H88Zm-6.86-2H86V35.93H81.17Z"/></g></svg>