<svg xmlns="http://www.w3.org/2000/svg" viewBox="0 0 2325.25 1524.32"><defs><style>.cls-1,.cls-2{fill:#8a733e;}.cls-2{stroke:#8a733e;stroke-miterlimit:10;stroke-width:2px;}</style></defs><g id="Layer_1" data-name="Layer 1"><path class="cls-1" d="M205.55,875.29v2.78H130.86v-2.78L146,849.37l-21-50.93H56.79L36.73,849.37,54,875v3.09H0V875l20.68-25.61L81.79,696.59l-13.89-34,39.51-14.5,80.86,201.23ZM120.06,786.1,90.12,713.57,61.73,786.1Z"/><path class="cls-1" d="M254.31,875.29l17.29-25.61V680.85L253.7,654v-2.78h75.92V654l-17.9,27.47V866.34h35.8c22.23,0,37.66-13.58,42-37.34l33.95,25c-5.87,11.42-20.37,24.07-72.84,24.07h-96.3Z"/><path class="cls-1" d="M655.85,862.64c-13.27,11.11-27.47,15.43-83.64,15.43H474.37V875L492,849.68V679.93l-22.53-25.62v-3.09h157.1l11.11,49.69h-5.87l-42.9-38.58H532.08v83.95h40.13l24.69-15.43h3.7v50.31h-3.39l-25-22.53H532.08V866.34h29.33c34,0,51.54-10.18,63.27-36.42Z"/><path class="cls-1" d="M894.42,874.37v3.7H811.09v-3.7l16.67-25-45.07-72.22-47.22,72.22,18.52,25v3.7H697.82v-3.7l19.13-25,56.49-87L721.58,679l-18.51-24.07v-3.71h81.78v3.71L770.66,679l30.86,50,33-50-13.28-24.07v-3.71h49.39v3.71L852.45,679l-42.29,63.58,66.05,106.79Z"/><path class="cls-1" d="M1117.25,662.33v84.26h38.58l24.69-14.51h3.71V779h-3.4l-25-20.06h-38.58v90.43L1137.62,875v3.09H1058V875l19.14-25.61V679.93l-20.37-25.62v-3.09H1211.7l11.11,49.69h-5.56L1174,662.33Z"/><path class="cls-1" d="M1269.1,875l19.13-25.61V679.62l-12-25.31v-3.09h64.19v3.09l-12,25.31V849.37L1347.49,875v3.09H1269.1Z"/><path class="cls-1" d="M1436.07,870.66l-19.45,7.41h-4.32V818.2h9.88c6.17,32.09,30.86,52.46,63.89,52.46,31.17,0,50-14.5,50-38.27,0-65.12-121.91-42.9-121.91-125.61,0-45.37,40.43-59.88,72.53-59.88,38,0,62,12.35,72.53,38l-34,22.84h-4.63a52.63,52.63,0,0,0,1.85-15.43c0-22.22-13.27-34.26-37.66-34.26s-37.65,12.66-37.65,31.79c0,64.82,122.22,40.43,122.22,127.16,0,39.2-34.26,65.43-83.33,65.43C1463.85,882.39,1446.25,876.53,1436.07,870.66Z"/><path class="cls-1" d="M1835.45,875v3.09h-75.93V875l17.28-25.92V767.27h-91.35v81.79L1702.73,875v3.09h-75.92V875l18.51-25.92V679l-15.12-24.69v-3.09h70.68v3.09L1685.45,679v75.92h91.35V679l-15.43-24.69v-3.09h70.37v3.09L1816.93,679V849.06Z"/><path class="cls-1" d="M2080.19,862.64c-13.27,11.11-27.47,15.43-83.64,15.43h-97.84V875l17.59-25.3V679.93l-22.53-25.62v-3.09h157.1L2062,700.91h-5.86l-42.9-38.58h-56.79v83.95h40.12l24.69-15.43h3.7v50.31h-3.39l-25-22.53h-40.12V866.34h29.32c34,0,51.54-10.18,63.27-36.42Z"/><path class="cls-1" d="M2325.25,888h-6.18l-45.68-17.6L2204,762.64h-10.18v86.73L2212.28,875v3.09h-77.77V875l19.13-25.61V679.93L2133.58,654v-2.78h70.68c26.85,0,96,1.24,96,55.86,0,52.47-59.57,55.56-81.79,55.56h-1.55L2253.33,775ZM2193.77,751.53h14.81c36.73,0,54-14.82,54-47.53,0-28.4-20.37-41.67-58.33-41.67h-10.49Z"/><path class="cls-2" d="M548,1086.66l-29.78-9.27L529.19,1048l29.9,9.51Zm-27.17-10.56,26,8.09,9.64-25.43-26.07-8.29Z"/><path class="cls-2" d="M620,1293.16l-23.47-25.32,1.91-1.78,13.2-1.4,51.24-47.51,4.3-10.8,1.84-1.71,19.47,21-1.84,1.7-11.1,3.48-51.23,47.51-2.4,13.05ZM599.38,1268l20.71,22.33,2.38-13,.24-.23,51.82-48,11.13-3.52-16.75-18.06,0,0-4.3,10.8-.17.15-51.89,48.12Z"/><path class="cls-2" d="M714.57,1368.84c-5.15,0-12.9-2.64-25.21-12.73l-31.67-26,1.56-1.9,12.28-3.67,44-53.7,1.32-13.32,1.56-1.9,25.91,21.24-1.56,1.89-13,4.11L682,1341.2l10.71,8.79c6.76,5.54,14.79,5.2,22-.93l1.22-1,4.92,19.33-.78.34A13.57,13.57,0,0,1,714.57,1368.84Zm-54-38.91,30,24.63c16,13.08,23.55,13.15,27.88,11.6l-3.72-14.59c-7.7,5.85-16.14,5.86-23.34,0l-12.26-10,49.46-60.32,12.8-4.05-22.66-18.58-1.31,13.14-.19.24-44.6,54.4Z"/><path class="cls-2" d="M813.78,1432.88c-5.13,0-12.67-2.05-24.21-8.75l-35.42-20.56,1.23-2.13,11.54-5.59,34.87-60-.83-13.37,1.23-2.12,29,16.82-1.23,2.12-12.15,6.13-37.87,65.21,12,7c7.56,4.39,15.42,2.77,21.58-4.44l1-1.22,8,18.29-.72.46A14,14,0,0,1,813.78,1432.88Zm-56.81-30,33.6,19.51c17.84,10.36,25.36,9.21,29.38,7l-6-13.81c-6.67,7-15,8.37-23.05,3.7l-13.71-8,39.17-67.46,12-6L803,1323.09l.82,13.19-.15.26-35.33,60.84Z"/><path class="cls-2" d="M912.49,1479.72a37,37,0,0,1-12.89-2.48c-11.23-4.19-18.6-9.35-22.51-15.78-4.23-6.92-4.45-15.18-.69-25.25L895.52,1385l-1.89-11.77.89-2.39,28.75,10.73-.9,2.4-9.38,7.56-18.76,50.26c-4,10.57-3.24,23.69,10.58,28.85,11,4.09,20.87-.91,25.28-12.73l19.64-52.61L946.4,1393l.91-2.43,22.51,8.4-.91,2.44-10.71,7.08-19.32,51.76C934.18,1472.8,924.42,1479.72,912.49,1479.72Zm-35.15-43.16.93.35c-3.53,9.46-3.36,17.15.52,23.51,3.68,6,10.72,10.91,21.51,14.95,16.67,6.21,30.73.14,36.7-15.86l19.55-52.37,10.66-7.05-18.7-7,3.32,12.27L932,1458.59c-4.83,13-15.77,18.42-27.85,13.91-10-3.72-18.29-13.93-11.76-31.43l19-50.77,9.38-7.57-25-9.34v0l1.89,11.78-.09.25-19.22,51.47Z"/><path class="cls-2" d="M1029.27,1511.8a52.33,52.33,0,0,1-9.91-1c-10.59-2-17-6.49-19.55-8.62l-8.22,1.44-2.92-.57,5.08-26.35,5.82,1.12v.83c0,13.16,8.07,22.9,21.09,25.41,12.13,2.34,20.44-1.72,22.21-10.87,2.28-11.82-7.55-18.37-17.95-25.3-11.91-8-25.42-17-21.84-35.46,1.66-8.6,6.55-14.81,14.16-18,8.08-3.34,16.79-2.39,21.26-1.53,16.07,3.1,25,10.28,27.36,22l.16.8-16.66,7.08-3.47-.68.58-1.17a20.8,20.8,0,0,0,1.88-5.89c.81-4.22.22-7.7-1.76-10.35s-5.4-4.49-10.09-5.4-8.49-.45-11.39,1.24a11.28,11.28,0,0,0-5.28,8c-2.24,11.59,7,17.66,17.62,24.69,12.17,8,26,17.12,22.17,36.73a25.11,25.11,0,0,1-13.73,18.18A36.3,36.3,0,0,1,1029.27,1511.8Zm-28.87-11.74.35.31c4.5,3.88,11.59,7.05,19,8.48,9.62,1.86,18.36,1,25.24-2.53a23.2,23.2,0,0,0,12.68-16.78c3.53-18.3-9.1-26.63-21.31-34.68-10.79-7.12-21-13.84-18.49-26.74a13.27,13.27,0,0,1,6.24-9.31c3.32-1.93,7.74-2.44,12.77-1.47,5.2,1,9,3.08,11.32,6.17s3,7.13,2.12,11.92a24.74,24.74,0,0,1-1.5,5.21l.33.07,14.58-6.2c-2.41-10.32-10.8-16.73-25.6-19.59-4.25-.82-12.52-1.73-20.12,1.41-7,2.92-11.41,8.46-13,16.49-3.32,17.2,9,25.44,21,33.41,11,7.32,21.33,14.23,18.8,27.35-2,10.22-11.38,15-24.55,12.46-13.53-2.62-22.37-13-22.7-26.56l-2.24-.43L991,1501.48l.6.12Z"/><path class="cls-2" d="M1155.26,1523.22l-34-1.22.09-2.47,8.07-10.47,2.72-76.24-10.6-.38-18.2,18.06-3.32-.12,6-25.1,71.25,2.54,4.24,25.48-3.32-.12-16.87-19.31-10.59-.38-2.73,76.23,7.29,11Zm-31.81-3.14,29.76,1.06-7.18-10.85V1510l2.81-78.55,13.46.48,16.87,19.31-3.56-21.45-68-2.43-5.09,21.14h0l18.2-18.06,13.46.48-2.82,78.88Z"/><path class="cls-2" d="M1230.63,1521.27l-.35-2.58,6.43-11.61-9.41-69-9.71-9.53-.33-2.47,30-4.1c10-1.37,40.45-5.52,43.72,18.43,1.32,9.7-2.45,17.22-11.21,22.34a49.53,49.53,0,0,1-15.23,5.4l10.51,2,37.3,44.06-4.52.62-20.27-4.79-.21-.24-34.24-40-2.65.37,4.68,34.34,9,9.49.36,2.58Zm-11-93.49,9.53,9.36,0,.34,9.55,70-6.4,11.55,29.92-4.09-9-9.45-5-37,5.71-.78h0l5.42-.74c8-1.09,14.5-3.1,19.41-6,8-4.67,11.44-11.51,10.24-20.34-3-22-32-18-41.47-16.72Zm69,80.51,19.26,4.55.55-.08L1274,1472l-19.64-3.8Zm-40.81-42.36-5.27-38.65,5.31-.72c16.56-2.27,25.8,2.69,27.44,14.71,1.91,14-4.57,21.53-20.4,23.69Zm-3-36.94,4.74,34.69,5.1-.7c14.67-2,20.43-8.61,18.68-21.44-1.49-10.86-9.73-15.11-25.19-13Z"/><path class="cls-2" d="M1355.37,1500.34l-.8-2.51,5-12.93,4.74-67.55-10.19-12.14,15.35-12,58,69.92,10.27,8.18.75,2.34-31.41,10.07-.74-2.3,2.64-11.94-14-16.57-25.67,8.23-1.39,21.46,9.9,7.79.79,2.46Zm1.6-94.82,9.38,11.16-4.87,68.8-4.76,12.33,19.36-6.21-10.22-8,1.55-23.87,28.23-9.06,15.5,18.35-2.71,12.25,27.44-8.81-9.88-7.89L1369.16,1396Zm10.69,50.8,2.27-36.2,23.59,27.9Zm4-31.11-1.78,28.31,20.22-6.49Z"/><path class="cls-2" d="M1488.85,1451l-1.11-2.21,2.06-13.06-34.11-68.23-9.48,4.74-7.33,24.57-3,1.48-6.71-24.93,63.77-31.88,15.92,20.33-3,1.49-24.05-8.88-9.49,4.74,34.11,68.23,11.69,6.19,1.1,2.21Zm-32.26-86.19,35.29,70.6-2,12.85,26.63-13.31-11.5-6.09-35.29-70.59,12-6,24,8.88h0L1492.4,1344l-60.85,30.41,5.65,21h0l7.33-24.57Z"/><path class="cls-2" d="M1593.07,1381.09c-14.86,0-28.9-7-38.89-20.63h0c-17.39-23.7-12.64-52.64,11.53-70.39,12-8.82,25.69-12.87,38.5-11.4,13.25,1.52,24.85,8.59,33.55,20.45,17.07,23.26,12.1,52.88-11.82,70.43C1615.39,1377.29,1604,1381.09,1593.07,1381.09Zm-37.28-21.82c16.65,22.69,45,26.25,69,8.66,23-16.86,27.77-45.31,11.39-67.63-8.36-11.39-19.48-18.19-32.17-19.64-12.29-1.41-25.47,2.5-37.08,11C1543.67,1308.74,1539.1,1336.53,1555.79,1359.27Zm51.67,11a38.49,38.49,0,0,1-12-2c-10.8-3.58-21.22-11.65-29.34-22.71-15.25-20.78-15-39.27.55-50.72,16.43-12.06,42.14-4,58.53,18.32h0c7,9.6,11.06,19.15,11.63,27.61.65,9.77-3.14,17.75-11.26,23.71A30.12,30.12,0,0,1,1607.46,1370.26Zm-23.14-79.07a27.5,27.5,0,0,0-16.5,5.22c-8.56,6.29-20,20.87-.12,47.93,7.88,10.73,18,18.54,28.36,22s20.5,2.22,28.29-3.5c7.54-5.53,11.06-12.92,10.45-22-.54-8.09-4.43-17.28-11.24-26.56C1612.71,1299.52,1597.69,1291.19,1584.32,1291.19Z"/><path class="cls-2" d="M1705.8,1298.49l-1.94-1.75-2.61-13-51.83-46.51-13.56-1-1.86-1.66,20.26-22.57c3.06-3.41,10.23-11.41,18.64-16.08,10.08-5.58,19-5,26.62,1.84,7.28,6.54,9.27,14.71,5.9,24.28a49.42,49.42,0,0,1-8.11,14l9.32-5.25,57,9.45-3,3.4-18.55,9.47-52.29-8.37-1.79,2,25.8,23.15,13,1.38,1.94,1.74Zm-68.87-64.17,13.32,1,.25.23,52.58,47.17,2.59,13,20.17-22.48-13-1.38-27.76-24.91,3.85-4.3h0l3.66-4.07c5.37-6,9.05-11.75,10.94-17.11,3.07-8.74,1.27-16.19-5.36-22.13-6.88-6.18-15.06-6.71-24.31-1.58-8.12,4.51-15.13,12.33-18.12,15.66Zm52.64,8.35,52.09,8.34,17.64-9,.37-.41-52.67-8.74Zm-6.43,2.45-29-26,3.58-4c11.17-12.45,21.41-14.65,30.44-6.55,10.52,9.44,10.45,19.38-.21,31.27Zm-26.2-26.2,26,23.38,3.44-3.83c9.89-11,10-19.79.36-28.44-8.15-7.32-17.19-5.23-27.62,6.39Z"/><path class="cls-2" d="M1802,1084.23,1790.52,1055l29.61-9.79,11.56,29Zm-8.82-28,10,25.46,25.92-8.74L1819,1047.72Z"/><path class="cls-2" d="M509.62,531.39A53.8,53.8,0,0,1,488.53,527c-13.19-5.66-23-15.43-27.75-27.53-4.61-11.87-4.12-25.5,1.39-38.35,7.74-18.06,23.76-29.85,40.83-30h.72l8.3,24.11-2.31-1.32a33.51,33.51,0,0,0-26.84-2.89,25,25,0,0,0-15.36,13.83c-3.5,8.16-2.67,16.64,2.4,24.52,4.59,7.14,12.32,13.3,21.76,17.34,12.22,5.24,23.89,6.55,33.75,3.82a31.13,31.13,0,0,0,20.85-18.35c3.3-7.7,3.59-15,.84-21.09-2.35-5.2-7-9.54-13-12.28l-18.93,18.49L512.22,476l14.21-33.15,42.33,18.14-1.46,3.39-11.07,2.33c3.73,8.69,3.09,20.86-1.75,32.15-6.74,15.74-17.43,26.29-30.91,30.5A46.94,46.94,0,0,1,509.62,531.39Zm-7.32-98.34c-16,.51-31,11.74-38.29,28.81-5.3,12.38-5.79,25.46-1.36,36.85,4.56,11.76,13.79,20.89,26.67,26.41,11,4.7,23.24,5.53,33.65,2.28,12.91-4,23.17-14.19,29.67-29.37,4.84-11.29,5.32-23.41,1.26-31.65l-.56-1.16,12.54-2.63.25-.6-38.65-16.57L515,474.6l18.68-18.25.62.26c6.82,2.92,12,7.74,14.65,13.56,3,6.62,2.7,14.47-.82,22.71A33,33,0,0,1,526,512.36c-10.31,2.86-22.44,1.51-35.08-3.9-9.8-4.2-17.85-10.63-22.65-18.1-5.44-8.46-6.33-17.59-2.56-26.39A27,27,0,0,1,482.23,449a35.45,35.45,0,0,1,26.21,1.87Z"/><path class="cls-2" d="M585.13,431.77l-2.19-1.43-4.56-12.46-58.31-38.06-13.55,1.09-2.09-1.37L521,354.15c5.52-8.46,22.31-34.18,42.56-21,8.2,5.35,11.4,13.12,9.54,23.1a49.26,49.26,0,0,1-5.9,15l8.42-6.61,57.73.66-2.49,3.83L614,381.38l-53-.3-1.46,2.24,29,18.95,13.1-.62,2.18,1.42Zm-64.53-54L580,416.57l4.54,12.4,16.51-25.29L588,404.3l-31.24-20.4,6.15-9.41c4.39-6.74,7.15-13,8.2-18.58,1.71-9.1-1.21-16.19-8.66-21.05-18.57-12.13-34.55,12.34-39.8,20.38l-15.4,23.6Zm40,1.31,52.76.3,16-11.58.31-.47-53.39-.61Zm-6,3.4-32.66-21.33,2.93-4.48c9.14-14,18.93-17.74,29.09-11.11,6,3.9,9.23,8.31,10,13.47s-1,10.79-5.41,17.46Zm-29.89-21.91L554,379.71l2.82-4.31c4.08-6.25,5.74-11.51,5.1-16.09s-3.61-8.51-9.08-12.07c-9.18-6-17.78-2.55-26.32,10.52Z"/><path class="cls-2" d="M642.93,346.34,641,344.56l-2.07-13.71-29.35-61-14.88-5.49,7.41-18,85,32,13,2,1.81,1.66-22.29,24.32-1.79-1.64L674.21,293l-20.37-7.45L635.63,305.4l9.42,19.33,12.47,1.86,1.9,1.75Zm-45.6-83.16L611,268.23l.17.37,29.66,61.65,2,13.22,13.74-15-12.87-1.93-10.48-21.49,20-21.86,22.56,8.26,3.71,12L699,282.19l-12.49-2-83.31-31.34ZM631.79,302l-16-32.57L650.14,282Zm-12-29L632.3,298.5l14.35-15.66Z"/><path class="cls-2" d="M722.61,263.61,721,261.56l-.54-13.1-43.1-54.7-13-3.28-1.62-2.06,26.93-21.22c8.49-6.69,16-10.84,22.86-12.71,10.36-2.8,18.84-.14,25.19,7.92h0c6.49,8.25,7.21,17.66,2.09,27.24-4,7.55-10.54,13.13-13.15,15.18a38.39,38.39,0,0,1-11.82,6.35l20.27,25.73,13,3.27,1.63,2.06Zm-57.05-74.88L678.5,192l43.92,55.75.54,13,23.92-18.84-12.94-3.26-22.56-28.63,1.48-.38a35.82,35.82,0,0,0,12.55-6.41c2.5-2,8.74-7.34,12.61-14.56,4.79-8.94,4.16-17.37-1.89-25h0c-5.81-7.37-13.58-9.8-23.1-7.23-6.63,1.79-13.87,5.83-22.14,12.35Zm44,19-24.46-31,6.62-5.22c6.62-5.21,12.49-7.65,17.95-7.46s10.36,3.08,14.71,8.6c5,6.37,6.74,12.59,5.13,18.47-1.41,5.12-5.08,8.85-7.91,11.08a26.76,26.76,0,0,1-11.45,5.45ZM687.89,177l22.46,28.51a25.29,25.29,0,0,0,10-4.94c2.59-2,5.94-5.44,7.21-10,1.44-5.24-.17-10.86-4.77-16.7h0c-4-5.11-8.34-7.67-13.21-7.84s-10.5,2.19-16.64,7Z"/><path class="cls-2" d="M805.77,200.72l-1.24-2.29,1.62-13.12-33.37-61.48-10.4-6-1.23-2.25,27.53-14.94,1.23,2.25-.74,12.06,14.41,26.56,31.56-17.13L820.72,97.81l-10.51-6L809,89.61,836.4,74.72,837.62,77l-.52,11.94,33.38,61.48,11.89,5.79,1.24,2.28-29.44,16-1.24-2.27,1.17-12.88-15.56-28.67L807,147.76l15.57,28.67,11.43,6,1.24,2.28Zm-41.9-84.34,10.4,6,.13.25,33.82,62.29L806.6,198l25.89-14.05-11.41-6-16.81-31,35.07-19,16.81,31L855,171.73l25.89-14.06L869,151.91l-.15-.28-33.8-62.26.52-11.93h0l-23.89,13,10.51,5.94,15.64,28.82-35.07,19-15.64-28.82.73-12Z"/><path class="cls-2" d="M915.33,146.2l-.91-2.45L918.18,131,893.93,65.49l-8.33-8.11L884.73,55l26.86-9.94.87,2.35-1,11.58,24.25,65.54,11.13,7.21.91,2.45Zm-28-89.94,8.33,8.12.08.21L920.28,131l-3.74,12.66,28.56-10.57L934,125.87,909.39,59.29l1-11.58,0-.05L887.3,56.21Z"/><path class="cls-2" d="M1012.38,116.29c-10.88,0-20.58-3.15-28.54-9.35-9-7-15.65-18-18.35-30.18h0c-3.06-13.82-.61-27.47,6.89-38.44a51.16,51.16,0,0,1,31.53-20.79c19.88-4.4,38.24,1.74,47.91,16l.39.57-15,21.09-.28-2.62c-1.08-10.08-6.09-19.23-13.4-24.48A23.89,23.89,0,0,0,1003.91,24c-19,4.2-24.64,25.72-20.42,44.81,2.88,13,8.52,23.3,16.34,29.81a30.48,30.48,0,0,0,27,6.53c19.05-4.21,22.38-18.3,22.93-24.16l.07-.73,5.44-1.2,5.77,26.09-3.43.75-8-3.64c-6.32,6.34-13.75,10.29-23.31,12.4A64.37,64.37,0,0,1,1012.38,116.29Zm-44.94-40c2.6,11.75,9,22.33,17.63,29,10.73,8.35,24.84,10.9,40.82,7.37,9.41-2.08,16.66-6,22.8-12.35l.49-.51,8.66,4,.82-.18-4.91-22.19-2.07.46c-.79,6.67-4.82,20.88-24.41,25.21a32.46,32.46,0,0,1-28.73-7c-8.15-6.81-14-17.5-17-30.92-4.44-20.06,1.67-42.71,21.93-47.19a25.89,25.89,0,0,1,21.18,4.4c7.14,5.14,12.22,13.75,13.87,23.38l11.25-15.76c-9.3-13.18-26.64-18.78-45.43-14.62a49.21,49.21,0,0,0-30.31,20c-7.19,10.5-9.53,23.6-6.59,36.88Z"/><path class="cls-2" d="M1201.92,101.49c-1,0-2.07,0-3.09-.08C1190,101,1183,98,1178.84,93l-.28,5.65-25.41-1.25.13-2.59,7.82-10.25,3.43-69.69-7.67-10.9.13-2.62,32.46,1.6c20.82,1,55.42,9.29,53.26,53.12h0C1240.88,93.12,1220.19,101.49,1201.92,101.49Zm-24.77-14.85,1.69,2.87c3.5,5.92,10.63,9.43,20.09,9.9,32.69,1.61,40.76-22.75,41.78-43.48.93-18.72-5-32.56-17.52-41.15-10.68-7.31-24.3-9.4-33.83-9.87l-30.42-1.5,7.62,10.83v.34l-3.49,70.66-7.79,10.22,21.39,1.06Zm22.1,9.24-1.43,0c-8.83-.44-15.68-5.17-19.82-13.68l-.11-.23,3.69-74.8,7.65.38c12.59.62,21.94,5.15,27.79,13.47,5.71,8.13,8.22,20.13,7.46,35.68h0c-.69,14-3.28,24-7.9,30.47C1212.46,93,1206.63,95.88,1199.25,95.88Zm-19.34-14.36c3.81,7.67,10,11.93,18,12.33,7.44.36,13-2.21,17-7.87,4.33-6.1,6.87-16,7.53-29.41.74-15.09-1.65-26.67-7.1-34.43s-14.31-12-26.25-12.62l-5.65-.28Z"/><path class="cls-2" d="M1335.66,119.11c-5.36,0-12.8-1.15-24.69-3.79l-40.62-9,.56-2.53,9.39-8.68L1295.36,27l-6.83-12.39.57-2.6,65.41,14.46,0,23.18-4-.88-13.92-19.47L1315,24.54l-7.09,32.06,15,3.32,11.39-4,2.76.61-4.94,22.33-2.73-.6-8.11-11.37-14.9-3.3-9.22,41.69,10.9,2.41c13.42,3,21,.61,27.88-8.7l.89-1.2,11,18.23-.95.5A22.47,22.47,0,0,1,1335.66,119.11Zm-62.9-14.28,38.64,8.54c21,4.65,27.63,4.62,33.63,1.8l-8.38-13.86c-7.16,9-15.43,11.3-29,8.29l-12.86-2.84,10.09-45.59,17.6,3.89,8.14,11.38L1334.68,58l-.24-.06-11.39,4-17.51-3.87,8-36,24.36,5.38L1351.78,47l.78.17,0-19.08-61.8-13.66,6.77,12.28-.08.37-15.28,69.08Z"/><path class="cls-2" d="M1420.3,149.11a47.14,47.14,0,0,1-17.11-3.49c-10-3.94-15.52-9.49-17.65-12l-8.35-.09-2.77-1.08,9.8-25,5.52,2.16-.15.81c-2.41,12.94,3.76,24,16.11,28.84,11.51,4.51,20.41,2,23.81-6.64,4.4-11.21-4.07-19.44-13-28.16-10.27-10-21.9-21.29-15-38.84,3.2-8.16,9.15-13.37,17.2-15.08,8.55-1.81,16.95.72,21.19,2.38,15.23,6,22.72,14.67,22.89,26.57l0,.82-17.67,3.92-3.29-1.3.78-1.05a20.9,20.9,0,0,0,2.92-5.44c3.16-8,.12-14.15-8.78-17.65-4.32-1.69-8.27-2-11.42-.86a11.29,11.29,0,0,0-6.65,6.87c-4.31,11,3.63,18.63,12.83,27.48,10.5,10.11,22.4,21.57,15.11,40.16a25.15,25.15,0,0,1-16.82,15.38A33.34,33.34,0,0,1,1420.3,149.11Zm-42.72-17.61,8.92.08.3.38c3.71,4.63,10.11,9,17.12,11.8,9.13,3.58,17.87,4.31,25.28,2.11a23.21,23.21,0,0,0,15.53-14.19c6.8-17.35-4.1-27.84-14.64-38-9.31-9-18.1-17.42-13.3-29.65a13.23,13.23,0,0,1,7.83-8c3.62-1.3,8.06-1,12.83.88,10,3.92,13.5,11.1,9.92,20.24a25.07,25.07,0,0,1-2.43,4.85l.31.12,15.47-3.43c-.49-10.59-7.57-18.42-21.6-23.93-4-1.58-12-4-20-2.28-7.46,1.58-12.76,6.24-15.75,13.85-6.4,16.31,4.25,26.67,14.55,36.68,9.46,9.19,18.39,17.87,13.51,30.32-3.81,9.69-13.93,12.67-26.42,7.77-12.83-5-19.62-16.85-17.48-30.25l-2.12-.83L1377,131.27Z"/><path class="cls-2" d="M1496.69,188.48l-30.3-16.56,1.26-2.3,12.06-5.51,33.53-61.31.66-11.61,1.2-2.2,25.13,13.74-1.21,2.2-9.42,6.81-33.52,61.31,1.86,13.14Zm-27.55-17.34,26.72,14.61L1494,172.68l.16-.29,33.9-62,9.45-6.87L1515.89,91.7l0,0-.66,11.61-34.06,62.29Z"/><path class="cls-2" d="M1598,258.81l-3-2.22.34-11.3c-9.33,1.58-21-1.9-30.85-9.26-13.71-10.25-21.45-23.12-22.38-37.21-.75-11.52,3-23.42,10.52-33.5,8.59-11.5,20.41-18.78,33.27-20.51,12.62-1.69,25.75,2,36.95,10.36,15.74,11.76,23.43,30.11,19.61,46.74l-.16.7L1616.93,205l1.83-1.94a33.48,33.48,0,0,0,9.11-25.41A24.91,24.91,0,0,0,1618,159.5c-11.17-8.36-30.45-7.65-46.37,13.65s-15.39,44,1.31,56.48c15,11.22,28,5.38,35.3-4l-13.54-22.74,1.92-2.57,28.89,21.59Zm-.93-3.19.52.39,25.18-33.68-25.43-19,13.36,22.45-.4.54c-4.44,5.94-10.35,9.87-16.63,11.05-7.13,1.36-14.7-.77-21.87-6.13-17.66-13.2-18.34-37-1.71-59.28,6.39-8.54,14.53-14.85,22.91-17.77,9.51-3.3,18.59-2,26.26,3.71a27,27,0,0,1,10.63,19.61,35.42,35.42,0,0,1-8,25l18.79-1.78c3.27-15.67-4.14-32.87-19-44-10.79-8.05-23.39-11.6-35.5-10-12.5,1.67-23.54,8.49-31.93,19.72-7.15,9.56-10.83,21.29-10.12,32.17.89,13.49,8.35,25.85,21.58,35.74,9.83,7.35,21.51,10.67,30.47,8.66l1.25-.28Z"/><path class="cls-2" d="M1672.58,336.38l-3.82-4.1,17.51-89.62-43.83,40.79L1639.63,296l-1.9,1.77-16.1-17.31,1.81-1.69,13.29-1.52,50.73-47.2,3.09-12.84,1.89-1.76,15.77,17-14,72.37,34-31.64,2.55-12.69,1.9-1.77,15.93,17.12-1.9,1.77-12.75,1.72Zm-1.66-4.72,1.77,1.9L1733,277.41l12.7-1.71-13.17-14.15L1730,274.18l-.24.22-46.67,43.43,9.14-13.59,13.78-71.19-13.7-14.74-3.09,12.83-.22.2-51.43,47.85-13.07,1.49L1637.82,295l2.8-12.55,48.8-45.39Z"/><path class="cls-2" d="M1746.72,427.86l-1-.31c-7.31-2.19-12.19-6.43-25-25.86L1697.83,367l2.17-1.43,12.78.32L1771,327.48l3.73-13.65,2.22-1.46,36.84,55.94L1797.72,385l-2.24-3.4,3.58-23.67-12.2-18.52-27.42,18.06,8.45,12.83,11,5,1.55,2.36-19.1,12.58-1.53-2.33,2.1-13.8-8.4-12.75-35.65,23.48,6.14,9.33c7.56,11.47,14.63,15,26.06,13.17l1.47-.24Zm-46.1-60.32,21.76,33c11.83,18,16.61,22.56,22.87,24.72l3.65-15.78c-11.4,1.45-18.94-2.65-26.59-14.26l-7.24-11,39-25.68,9.92,15.06-2.1,13.8v0l15.76-10.38-.13-.21-11-5-9.86-15,30.76-20.26,13.72,20.83-3.58,23.67.44.67,13.26-13.71-34.81-52.86-3.7,13.53-.32.2-59.08,38.92Z"/><path class="cls-2" d="M1784.07,534.19l-1.86-4.17-1.08-20.8,29-44.33-1.09-2.45-31.65,14.12-6.58,11.34-2.38,1.06-14-31.3,2.39-1.06,12.94,2.92,63.59-28.36,6.44-12,2.27-1,12.36,27.69c4.11,9.23,16.62,37.29-5.46,47.14a22.78,22.78,0,0,1-9.35,2.13c-9.39,0-17.89-6.75-24.68-19.75l1,10.66Zm.12-4.65.22.51,29.46-44.53L1812,465.6l-28.86,44.17Zm27.67-65.6,2.73,6.13c11.09,24.86,24.37,25.19,33.56,21.09,20.25-9,8.35-35.72,4.44-44.49l-11.48-25.74-6.32,11.78L1770,461.62l-12.87-2.91,12.3,27.58,6.55-11.3L1810,459.8l1.85,4.14Zm21.73,16.74a15.41,15.41,0,0,1-6.54-1.41c-4.66-2.15-8.5-6.73-11.74-14l-2.91-6.53L1848,442.84l2.18,4.89c6.81,15.28,4.64,25.53-6.44,30.47A25.11,25.11,0,0,1,1833.59,480.68ZM1815,459.74l2.09,4.7c3,6.82,6.56,11.08,10.76,13S1837,479,1843,476.37c10-4.46,11.78-13.56,5.42-27.82l-1.37-3.07Z"/><text/><path class="cls-2" d="M1162.66,521.94l-57.44-99.82.29-.5,57.15-98.87,57.43,99.37-.28.5Zm-55.13-99.82,55.13,95.81,55.12-95.81-55.12-95.37Z"/><path class="cls-2" d="M1193,526.51l57.43-100,114.25-.94-56,100.85Zm58.6-98.05-55.14,96,111.08-.12,53.72-96.82Z"/><path class="cls-2" d="M1131.58,526.51l-115.72-.13-56-100.85,114.24.94.29.5ZM1017,524.38l111.09.12-55.14-96-109.67-.9Z"/><path class="cls-2" d="M1242.73,393.57l-25-43.41,25-43.22,25,43.22Zm-22.67-43.41,22.67,39.4,22.67-39.4-22.67-39.23Z"/><path class="cls-2" d="M1274.18,394.93l25-43.5,49.69-.41-24.33,43.85Zm26.14-41.51-22.69,39.5,45.7-.05,22.1-39.82Z"/><path class="cls-2" d="M1345.4,528.8l25-43.5,49.69-.41-24.34,43.86Zm26.14-41.51-22.68,39.51,45.69,0,22.1-39.83Z"/><path class="cls-2" d="M1082.55,393.57l-25-43.41,25-43.22,25,43.22Zm-22.67-43.41,22.67,39.4,22.67-39.4-22.67-39.23Z"/><path class="cls-2" d="M1051.1,394.93l-50.32-.06L976.44,351l49.69.41ZM1002,392.87l45.7.05L1025,353.42l-45.11-.37Z"/><path class="cls-2" d="M979.88,528.8l-50.33,0-24.33-43.86,49.68.41Zm-49.15-2,45.69,0-22.68-39.51-45.11-.37Z"/><path class="cls-2" d="M1274.18,394.93l25-43.5,49.69-.41-24.33,43.85Zm26.14-41.51-22.69,39.5,45.7-.05,22.1-39.82Z"/><path class="cls-2" d="M1345.4,528.8l25-43.5,49.69-.41-24.34,43.86Zm26.14-41.51-22.68,39.51,45.69,0,22.1-39.83Z"/><path class="cls-2" d="M1162.63,1199.47l-57.44-99.37.29-.5,57.15-99.32,57.43,99.82-.29.5Zm-55.13-99.37,55.13,95.38,55.12-95.38-55.12-95.81Z"/><path class="cls-2" d="M960.65,1096.69l56-100.84,115.72-.14-57.43,100Zm57.13-98.85-53.72,96.82,109.67-.9,55.13-96Z"/><path class="cls-2" d="M1365.37,1096.69l-114.24-.94-.29-.5-57.14-99.54,115.72.14Zm-113.08-2.93,109.67.9-53.72-96.82-111.08-.12Z"/><path class="cls-2" d="M1082.55,1215.29l-25-43.22,25-43.42,25,43.42Zm-22.67-43.23,22.67,39.23,22.67-39.23-22.67-39.4Z"/><path class="cls-2" d="M976.44,1171.21l24.34-43.86,50.32-.06-25,43.51Zm25.51-41.86-22.1,39.83,45.11-.37,22.69-39.51Z"/><path class="cls-2" d="M905.22,1037.33l24.33-43.85,50.33-.06-25,43.5Zm25.51-41.85-22.1,39.82,45.11-.37,22.68-39.51Z"/><path class="cls-2" d="M1242.73,1215.29l-25-43.22,25-43.42,25,43.42Zm-22.67-43.23,22.67,39.23,22.67-39.23-22.67-39.4Z"/><path class="cls-2" d="M1348.84,1171.21l-49.69-.41-25-43.51,50.33.06Zm-48.52-2.4,45.11.37-22.1-39.83-45.7,0Z"/><path class="cls-2" d="M1420.07,1037.33l-49.69-.41-25-43.5,50.33.06Zm-48.53-2.4,45.11.37-22.1-39.82-45.69-.06Z"/><path class="cls-2" d="M976.44,1171.21l24.34-43.86,50.32-.06-25,43.51Zm25.51-41.86-22.1,39.83,45.11-.37,22.69-39.51Z"/><path class="cls-2" d="M905.22,1037.33l24.33-43.85,50.33-.06-25,43.5Zm25.51-41.85-22.1,39.82,45.11-.37,22.68-39.51Z"/></g></svg>