<svg xmlns="http://www.w3.org/2000/svg" viewBox="0 0 350.09 350"><defs><style>.cls-1{fill:#8a733e;}</style></defs><g id="Layer_1" data-name="Layer 1"><path class="cls-1" d="M142.74,6.56l-2.12-2.75,0-.32,8.09-.86,0,.33-1.14,3.09,7.13,15.78L156.75,9l-3-6.57,0-.33,7.21-.76,0,.33-.59,3.47,6.13,15.67,3.72-17.15L168,.93l0-.33,5.69-.6,0,.33L172,3.48l-5.67,24.76-1.59.16L158,11.66l-2.89,17.76-1.53.16Z"/><path class="cls-1" d="M206.44,28.51c-1.72,1.1-3.45,1.38-10,.52L185,27.51l0-.36,2.46-2.69,2.62-19.88-2.25-3.35.05-.36,18.4,2.42.54,6-.69-.09L201.69,4,195,3.14,193.74,13l4.7.62,3.13-1.43.44.06-.78,5.89-.4-.05-2.58-3-4.7-.62L191.89,27l3.43.45c4,.53,6.2-.39,8-3.28Z"/><path class="cls-1" d="M214.87,32.22l2.91-2.2,6.47-18.86-1-3.69.11-.31,8.48,2.91-.11.31-3,2.39-7.08,20.65,4,1.38c2.48.85,4.72-.08,6.12-2.57l2.83,4.1c-1.09,1.05-3.2,1.91-9.06-.1l-10.76-3.7Z"/><path class="cls-1" d="M246.21,29.85c4.24-7.24,12.58-8.65,19.09-4.83,4.88,2.85,7.48,7.63,6.77,12.32l-6.3,1.3c3.16-4.24,3-10.16-1.44-12.76-4.75-2.78-10.25.26-13.32,5.51-4,6.76-3.13,13.29,2.12,16.36,4.69,2.75,8.2.79,9.8-.64l.94.55-3.55,6.07-.54-.31-1-2.4a12.66,12.66,0,0,1-7.31-1.87C242.35,43.81,243.06,35.23,246.21,29.85Z"/><path class="cls-1" d="M277.49,49.72c5.92-6.09,14.07-5.74,19.9-.07,6.11,6,6.74,14.19.85,20.25s-14.23,5.54-19.93,0C272.27,64,271.64,55.74,277.49,49.72ZM293.71,67c5.31-5.46,6.55-12.85,2.4-16.9-4.4-4.27-9.63-2.13-13.87,2.23-5.49,5.65-6.78,13-2.52,17.18S289.31,71.55,293.71,67Z"/><path class="cls-1" d="M313.27,81.06l-14.69,5.83-1.39,3.51-.31.19-3.21-5.22.31-.19,3.76.34,17.78-7.13L318,75.26l3.28,3.24-13,14.94-1.24.77,15.85-4.7,2.47-2.33,3.39,3.43-17.72,16.55-1.56,3.23-.31.19-4.42-7.17.31-.19,3.48-.13L320.32,92l-19.44,5.62-.82-1.33Z"/><path class="cls-1" d="M320.92,138.47c-1.74-1.07-2.75-2.5-4.86-8.79l-3.66-11,.34-.12,3.5,1,19-6.36,2-3.49.35-.11,5.88,17.6-5.15,3.11-.22-.66,2.72-6.25-2.13-6.36-9.4,3.14,1.5,4.49,2.65,2.19.14.42L328,129.23l-.12-.38,1.59-3.64-1.51-4.5-12.07,4L317,128c1.27,3.8,3.07,5.39,6.45,5.73Z"/><path class="cls-1" d="M323.52,169.63l3.08,2.16,22.08-.17,0-3.42-5.36-5v-.47l6.64,1.3.15,19.83-6.62,1.4v-.48l5.29-5,0-3.43-22.09.17-3,2.21h-.33l-.07-9.11Z"/><path class="cls-1" d="M336,195.23c8.3,1.79,12.33,8.89,10.61,16.83-1.8,8.34-8.45,13.24-16.72,11.46s-12.24-9.13-10.56-16.9C321.15,198.39,327.84,193.46,336,195.23ZM330,218.16c7.45,1.61,14.37-1.26,15.59-6.93,1.3-6-3.29-9.29-9.24-10.57-7.69-1.66-14.65,1.16-15.9,7S323.8,216.83,330,218.16Z"/><path class="cls-1" d="M319.63,259.42l-11.54-10.81-3.77.24-.3-.2,3.35-5.13.3.2,1.3,3.55,14,13,3.91.94-1.54,4.35-19.06-5.4-1.22-.8,11,12.33,3.16,1.24-1.66,4.53-22.53-9-3.59,0-.31-.2,4.61-7.05.31.2,1.59,3.09,15.09,5.9L299.4,255.26l.85-1.32Z"/><path class="cls-1" d="M284.09,276.05l.58,3.7,6.57,6.48,15.46,4.06.23.23L300.55,297l-.23-.23-.74-3.5-9.27-2.5,2.43,9.42,3.53.67.24.23-4.13,4.18-.23-.23-3.75-14.93-7.06-7-3.61-.64-.26-.26,6.36-6.43Z"/><path class="cls-1" d="M253.48,301.45l-.37,3.63,9.42,17.58,3.36,1.8.16.28L258.14,329l-.15-.29.33-3.86L248,305.59l-3.73,2c-2.31,1.24-3.16,3.52-2.29,6.23l-4.92-.71c0-1.51.77-3.64,6.24-6.57l10-5.37Z"/><path class="cls-1" d="M227.65,314l-1.16,3.6,6.45,19,2.31,2.37.12.35-7.18,2.44-.12-.34.39-3.29-6.46-19-3.11-2.13-.12-.35,8.77-3Z"/><path class="cls-1" d="M203.51,320.7l-1.68,3.37,3.47,21.81,3.38-.53,4.1-6.05.47-.07L213,346l-19.59,3.12L191,342.77l.47-.07,5.76,4.47,3.39-.54-3.47-21.82-2.65-2.68-.05-.32,9-1.43Z"/><path class="cls-1" d="M173.58,323.33l-2.32,3-.95,22.06,3.42.15,5.22-5.1.47,0L177.79,350,158,349.15l-1.06-6.69.47,0,4.76,5.53,3.42.15,1-22.07-2.05-3.15,0-.33,9.1.39Z"/><path class="cls-1" d="M149.18,321.23l-2.7,2.45-4.75,19.37,1.3,3.59L143,347l-8.71-2.14.08-.32,2.82-2.64,5.2-21.22-4.11-1c-2.55-.62-4.7.5-5.86,3.11l-3.2-3.82c1-1.15,3-2.19,9-.72l11,2.71Z"/><path class="cls-1" d="M101.74,305.79c2-.52,3.71-.27,9.71,2.56l10.46,4.93-.16.33-3.15,1.82-8.55,18.14,1.12,3.87-.15.33-16.79-7.91L95.54,324l.63.3,2.64,6.28,6.07,2.86,4.23-9-4.29-2-3.42.41-.39-.19,2.53-5.37.36.17,1.54,3.67,4.29,2,5.42-11.51L112,310.15c-3.63-1.71-6-1.51-8.6.71Z"/><path class="cls-1" d="M53.14,289.92c4.7-5,10.71.1,12,1.33a10.29,10.29,0,0,1,2.4,3.35l6.74-7.18.37-3.8.25-.26,6.75,6.33-.25.27-3.66.71-13.7,14.59-.37,3.8-.25.27-6.91-6.49C53.43,300,48.78,294.57,53.14,289.92Zm3.44,3.32c-2.62,2.79-2.33,5.67,1.05,8.84l1.54,1.45,7.39-7.87a7.53,7.53,0,0,0-2-2.88C63.09,291.36,60,289.58,56.58,293.24Z"/><path class="cls-1" d="M49.28,250.58l.42.6,1.44,5.59-5.58,14.07.69,1,8.34-5.95,1.19-3.54.3-.21,5.34,7.48-.3.21-3.77-.08L41.06,281.36l-1.12,3.71-.27.19-4.85-6.8c-1.84-2.58-6.47-9.31-1.22-13.06,5-3.6,9.43,1.91,11,4.05l.11.15-1.32-4.35Zm-4.09,22-1-1.43c-2.52-3.53-5.13-4.17-8.28-1.93-2.73,1.95-2.6,4.82,0,8.47l.72,1Z"/><path class="cls-1" d="M44.05,243.53l-3.7-.73-18.07,8.7-2.08,2.57-.33.16-3.29-6.83.33-.16h3.31l18.07-8.7L40,235.18l.33-.15,4,8.34Z"/><path class="cls-1" d="M14.64,227.87,32,223.05l2.36-2.82.35-.09,1.65,5.93-.32.09-3.55-1.36L13.3,230.14,10.84,233l-.35.1-1.65-5.94,12.93-16.35,2-1.08-15.1,4.2-2.31,2.88-.35.1L4.35,211l.35-.1,3.45,1.24,22.79-6.34.32,1.12Z"/><path class="cls-1" d="M28.1,189.07l-3.19-2-22,1.37.21,3.42,5.62,4.66,0,.47L2,196.07.78,176.27l6.54-1.76,0,.48-5,5.31.21,3.42,22.05-1.37L27.53,180l.33,0,.57,9.09Z"/><path class="cls-1" d="M29.88,145.25l.29,2.44-.12.5-6.87-1.71.29-1.13a7.35,7.35,0,0,0,7.83-5.83c.89-3.57-.23-6.14-2.95-6.82-7.47-1.86-8.4,12.75-17.88,10.39-5.2-1.3-5.71-6.35-4.8-10,1.09-4.35,3.19-6.76,6.43-7.23l1.65,4.55-.14.53a5.87,5.87,0,0,0-1.71-.66c-2.55-.63-4.31.55-5,3.34s.37,4.68,2.56,5.23c7.43,1.85,8.13-12.86,18.07-10.38,4.49,1.12,6.52,5.79,5.12,11.42A12.23,12.23,0,0,1,29.88,145.25Z"/><path class="cls-1" d="M47.91,99.2l.33.16-3.94,8-.33-.16-1.85-3.18-8.68-4.25-4.75,9.69,8.68,4.25,3.65-.49.32.17-3.94,8-.33-.16L35.28,118l-18-8.84-3.41.32-.33-.16,3.68-7.5.32.17,1.82,2.91,8.05,4,4.75-9.69-8.05-4-3.42.36-.33-.16L24,88l.32.16L26.16,91l18,8.84Z"/><path class="cls-1" d="M42.41,83.44C35.88,78,35.6,69.86,40.8,63.61c5.45-6.56,13.62-7.83,20.12-2.42S67.54,75,62.46,81.06C57.08,87.53,48.86,88.8,42.41,83.44Zm16-17.51c-5.86-4.88-13.32-5.54-17-1.08-3.92,4.71-1.38,9.76,3.3,13.65,6,5,13.52,5.74,17.32,1.18S63.25,70,58.41,65.93Z"/><path class="cls-1" d="M81.64,36.27c4.2,5.42-1.78,10.56-3.2,11.65a10.51,10.51,0,0,1-3.69,1.85l6,7.78,3.7,1,.22.29-7.32,5.67-.22-.29L77,60.45,64.78,44.62l-3.7-1-.23-.29,7.5-5.8C71.7,35,77.74,31.22,81.64,36.27Zm-3.82,2.86c-2.34-3-5.23-3.18-8.9-.35l-1.67,1.3,6.61,8.53A7.3,7.3,0,0,0,77,47.14C78.65,45.87,80.9,43.11,77.82,39.13Z"/><path class="cls-1" d="M107.74,27.16l3-7.53L118.05,23l-2.93,7.5Z"/></g></svg>