<svg xmlns="http://www.w3.org/2000/svg" viewBox="0 0 350.09 350"><defs><style>.cls-1{fill:#8a733e;}</style></defs><g id="Layer_1" data-name="Layer 1"><path class="cls-1" d="M39.12,86c-6.49-5-6.82-13.29-2.3-19.14,3.38-4.38,8.35-6.31,12.81-5l.47,6.27c-3.71-3.59-9.49-4.17-12.56-.19-3.29,4.27-1,10,3.68,13.62,6.07,4.69,12.51,4.7,16.15,0,3.25-4.21,1.79-7.86.6-9.59l.66-.85,5.45,4.21-.37.48-2.46.67a12.39,12.39,0,0,1-2.73,6.86C52.19,91.48,44,89.72,39.12,86Z"/><path class="cls-1" d="M87.56,53.8l.2.25-6.58,5.58L81,59.39,80.37,56l-5.66-2.92-6,5.09,2,6,3.44,1,.23.27-4.76,4-.23-.27-.1-3.81-6-18-3.77-1.95,2.4-4.23,22.17,11.7ZM73.35,52.33l-8.06-4.16,2.92,8.52Z"/><path class="cls-1" d="M96.22,48.5l.35-3.67L85.74,26.12l-2.9,1.68-1.62,7-.4.23-2.11-6.28L95.5,19l4.4,5-.4.23-6.84-2.06-2.9,1.68,10.83,18.71L103.94,44l.16.28-7.72,4.47Z"/><path class="cls-1" d="M134.23,12.8l.33,15.46,2.75,2.48.06.35-5.88,1.16-.07-.35,1.6-3.33-.47-18.75-2-3.38,4.1-1.9,9.26,17,.28,1.4,1.1-16.15L144,3.78l4.3-1.94,9.14,21.9,2.42,2.54.07.35-8.08,1.6-.07-.35,1.07-3.23-6.2-14.6L145.16,29.8l-1.51.3Z"/><path class="cls-1" d="M167.9,13c.38-8.3,6.57-13.34,14.52-13,8.34.38,14.15,6,13.78,14.27s-6.82,13.29-14.59,12.94C173.38,26.89,167.53,21.24,167.9,13ZM191,15.16c.34-7.44-3.56-13.66-9.22-13.91-6-.28-8.43,4.68-8.7,10.64-.35,7.69,3.51,13.94,9.32,14.2S190.74,21.33,191,15.16Z"/><path class="cls-1" d="M214.4,13.71,207.91,26.8l1.21,3.27-.09.33-5.44-1.6.1-.33,2.79-2.09,7.81-15.9-.2-3.71,4.26.2.29,18.32-.38,1.29,8-13,.25-3.13,4.45.26L229,33l.92,3.18-.09.33-7.47-2.2.09-.33,2.31-2.23L226,16.84,216.1,32.73l-1.39-.41Z"/><path class="cls-1" d="M254.12,32.19l6.72-1.88,1.5,6.78L255.66,39Z"/><path class="cls-1" d="M297.34,70.23c-7.08,7-13,5.31-17.15,1.12-1.91-1.93-2.76-4.1-2.36-6.06l-1.49,1.48-4.6-4.63.25-.25,3.53-.64,13.91-13.84.46-3.68.26-.25,6.19,6.22C300.21,53.59,306,61.65,297.34,70.23Zm-3.87-3.29c6-6,6.84-11.43,2-16.34l-1.31-1.31L279.58,63.75A6,6,0,0,0,281,70C284,73,287.9,72.48,293.47,66.94Z"/><path class="cls-1" d="M294.33,86.42l3.69.13,16.1-11.22,1.61-2.82.29-.2,4.24,6.09-.29.2-3.19.53-16.1,11.22-1.17,3.51-.29.2L294,86.63Z"/><path class="cls-1" d="M306.59,104.74l-1.75-1.66-.22-.45,6.24-3,.49,1a7.2,7.2,0,0,0-2.25,9.29c1.56,3.25,4,4.48,6.49,3.29,6.78-3.27-1.65-14.85,7-19,4.73-2.28,8.27,1.2,9.88,4.54,1.91,4,1.83,7.08-.31,9.46L328,105.84l-.23-.48a6,6,0,0,0,1.7-.58c2.32-1.12,2.9-3.1,1.68-5.64S328,95.85,326,96.81c-6.75,3.26,1.92,14.76-7.11,19.11-4.08,2-8.53-.28-11-5.39A12,12,0,0,1,306.59,104.74Z"/><path class="cls-1" d="M337,125.79l-17.07,4.38-2.36,2.71-.35.09-1.49-5.84.31-.08,3.45,1.4,18.87-4.85,2.46-2.73.35-.09,1.5,5.84-13,15.75-1.95,1,14.86-3.81,2.31-2.77.35-.09,1.48,5.77-.35.09L343,141.3l-22.42,5.75-.29-1.1Z"/><path class="cls-1" d="M325.31,179.19c-1.35-1.47-1.93-3.09-2.23-9.57l-.52-11.3.35,0,3,1.9,19.6-.91,2.84-2.74.36,0,.84,18.14-5.68,1.55,0-.67,4.22-5.16-.3-6.56-9.7.45.22,4.63,1.91,2.77,0,.43-5.81.27V172l2.46-3-.21-4.64-12.44.58.16,3.39c.18,3.92,1.45,5.89,4.54,7.11Z"/><path class="cls-1" d="M322.62,192.27l2.62,2.59,8.93,1.3,14.54-5.78.32.05-1.28,8.79-.32-.05-2.62-2.33-8.75,3.41,7.38,6,3.18-1.52.32.05-.83,5.68-.32,0-11.62-9.59-9.6-1.4L321.35,201,321,201l1.28-8.76Z"/><path class="cls-1" d="M317.39,249.33l-4.23,8.49-11-5.46.27-.55,3.32-.5c-1-2.42-.7-5.88.86-9,4.64-9.33,12.95-9.37,18.41-6.66,7.35,3.66,9.64,11.37,6.16,18.37-2.39,4.82-6.89,7.77-11.56,7.55L318,255.63c4.18,2.72,10.11,1.93,12.31-2.48,2.46-5-1.17-9.9-6.18-12.4-6.93-3.45-13.17-2-15.79,3.3-2.32,4.66-.27,8.23,3.15,9.93l5.55-4.84Z"/><path class="cls-1" d="M284.8,278c0-2,.61-3.59,4.69-8.64l7.1-8.8.27.22,1,3.42,15.27,12.32,3.94-.16.28.22L306,290.72l-5.28-2.61.43-.52,6.58-1.06,4.12-5.11-7.55-6.09-2.91,3.61-.4,3.34-.27.33L296.14,279l.25-.31,3.84-.61,2.91-3.61-9.69-7.82-2.13,2.64c-2.46,3.05-2.82,5.38-1.31,8.34Z"/><path class="cls-1" d="M262.07,298c.36-2,1.3-3.4,6.3-7.55l8.7-7.23.22.28.31,3.55,12.53,15.09,3.9.61.23.28-14,11.6-4.66-3.6.52-.43,6.67.26,5.05-4.19-6.2-7.47-3.57,3L277,305.32l-.32.28L273,301.12l.3-.25,3.89.16,3.56-3-7.95-9.58-2.61,2.17c-3,2.5-3.83,4.71-2.93,7.91Z"/><path class="cls-1" d="M234.81,310.23l.68-.37L241,309l12.67,7.26.38-1.08-4.39-8.16-3.11-1.5-.16-.3,7.42-4,.16.3-.46,3.42,8.79,16.32,2.91,1.57.16.29L258.26,327l-.16-.3.35-3.33L255,317l-3.57,10.23,2.58,1.67.16.29-6.29,3.39-.16-.3,1.69-4,3.7-10.41-2.67,1.44Z"/><path class="cls-1" d="M221.29,332.46l-4,7.12-6.85-4.32,3.9-7.1Z"/><path class="cls-1" d="M162.34,342.83c.07-6.71,7.78-7,9.52-7a10.28,10.28,0,0,1,3.95.83l.11-9.63-2.26-3v-.36l9.06.1v.36l-2.17,2.94-.2,19.58,2.25,3V350l-9.27-.1C169.18,349.86,162.27,349.07,162.34,342.83ZM167,343c0,3.74,2.08,5.62,6.61,5.67l2.07,0,.11-10.56a7.17,7.17,0,0,0-3.31-.78C170.46,337.28,167.06,338,167,343Z"/><path class="cls-1" d="M154.36,322.91l-2.54,2.51L148,344.56l1.42,3.45-.06.32-8.61-1.71.07-.32,2.64-2.71,4.16-21-4.06-.8c-2.52-.5-4.57.69-5.6,3.29l-3.28-3.6c.92-1.16,2.85-2.27,8.8-1.09l10.91,2.16Z"/><path class="cls-1" d="M107.28,308.47l.12-.3,8,3.27-.12.3-2.76,2.11,0,6.36,7.29,3,4.38-4.57-.73-3.5.14-.33,5.77,2.37-.13.33-3.33,1.83L112.69,333v4.24l-4.86-.18L108,312Zm5.24,13.28,0,9.07,6.22-6.52Z"/><path class="cls-1" d="M85.62,319.58,95.52,305l0-3.59.2-.29,5,3.38-.18.27L97,306,86.05,322.12l0,3.68-.2.3-5-3.39-.69-20.39.79-2.05L72.31,313l.1,3.6-.21.3-4.92-3.35.2-.29L70.83,312l13-19.15,1,.64Z"/><path class="cls-1" d="M71,282.11l-3.64.56-15.5,15.08,2.34,2.4,7.14-.13.33.33-5.58,3.59L42.57,290l3.74-5.48.32.33L46.31,292l2.33,2.4,15.5-15.08.66-3.62.23-.23,6.22,6.4Z"/><path class="cls-1" d="M46,250.75l-3.54-.44-17.39,8.85-1.83,3.26-.29.14-4-7.82.29-.15,3.77.41,19-9.69-1.88-3.69c-1.16-2.29-3.37-3.17-6-2.37l.79-4.81c1.49,0,3.55.84,6.3,6.24l5,9.92Z"/><path class="cls-1" d="M28.28,204.83l.31-.09L31,213l-.31.09-3.36-.85-5,3.95,2.17,7.58,6.3.61,2.3-2.74.34-.09,1.72,6-.35.09-3.5-1.48-18.92-1.94L9,226.88,6.15,223,26,207.58Zm-7.2,12.34L14,222.8l9,.85Z"/><path class="cls-1" d="M13.2,173.72c10-.67,13.28,4.51,13.67,10.43.18,2.7-.6,4.9-2.2,6.11l2.1-.14.43,6.52-.36,0-3.09-1.83-19.58,1.3L1.4,198.6l-.35,0-.58-8.76C.1,184.38,1.06,174.52,13.2,173.72Zm.76,5c-8.51.57-12.67,4.13-12.21,11l.12,1.85,20.47-1.36a6,6,0,0,0,3-5.67C25.09,180.44,21.79,178.22,14,178.74Z"/><path class="cls-1" d="M26.37,160.69l-2.66-2.53-9-1.14-14.43,6L0,163l1.12-8.81.32,0,2.66,2.28L12.79,153,5.3,147.08l-3.15,1.58-.32,0,.73-5.69.32,0,11.79,9.37,9.63,1.23,3.19-1.65.35.05-1.11,8.78Z"/><path class="cls-1" d="M19.54,121.54l-3.49-7.36,7.49-3.06,3.52,7.29Z"/></g></svg>