<svg xmlns="http://www.w3.org/2000/svg" viewBox="0 0 100 90"><defs><style>.cls-1,.cls-2{fill:none;stroke:#998651;stroke-width:1.5px;}.cls-1{stroke-miterlimit:10;}.cls-2{stroke-linejoin:round;}</style></defs><g id="Layer_1" data-name="Layer 1"><polyline class="cls-1" points="76.65 47.18 76.65 80.61 59.21 80.61"/><polyline class="cls-1" points="23.32 59.18 23.32 1.07 59.73 1.07 76.65 17.59 76.65 29.59"/><polygon class="cls-2" points="59.73 17.59 76.65 17.59 59.73 1.07 59.73 17.59"/><polyline class="cls-1" points="10.34 9.35 10.34 42.77 1.02 42.77 1.02 9.35"/><polygon class="cls-2" points="10.34 9.47 1.02 9.47 5.68 1.9 10.34 9.47"/><rect class="cls-1" x="1.02" y="42.77" width="9.32" height="4.5"/><rect class="cls-1" x="1.02" y="47.18" width="9.32" height="6"/><line class="cls-1" x1="5.68" y1="42.77" x2="5.68" y2="9.47"/><rect class="cls-1" x="1.09" y="59.18" width="58.12" height="29.75"/><polyline class="cls-1" points="1.09 59.18 30.15 81.09 59.21 59.18"/><rect class="cls-1" x="68.19" y="29.59" width="30.79" height="17.58"/><line class="cls-1" x1="28.73" y1="23.59" x2="70.96" y2="23.59"/><line class="cls-1" x1="28.73" y1="29.59" x2="70.96" y2="29.59"/><line class="cls-1" x1="28.73" y1="35.59" x2="68.19" y2="35.59"/><line class="cls-1" x1="28.73" y1="41.18" x2="68.19" y2="41.18"/><line class="cls-1" x1="28.73" y1="47.18" x2="70.96" y2="47.18"/><line class="cls-1" x1="28.73" y1="47.18" x2="70.96" y2="47.18"/><line class="cls-1" x1="28.73" y1="53.18" x2="70.96" y2="53.18"/><line class="cls-1" x1="28.73" y1="59.18" x2="70.96" y2="59.18"/><line class="cls-1" x1="59.21" y1="65.18" x2="70.96" y2="65.18"/><line class="cls-1" x1="59.21" y1="71.18" x2="70.96" y2="71.18"/><rect class="cls-1" x="28.73" y="9.35" width="6.86" height="6.86"/><rect class="cls-1" x="80.16" y="34.96" width="6.86" height="6.86"/></g></svg>