<svg xmlns="http://www.w3.org/2000/svg" viewBox="0 0 104.94 96.59"><defs><style>.cls-1{fill:#8a733e;}</style></defs><g id="Layer_1" data-name="Layer 1"><path class="cls-1" d="M52.32,45.66l-12-21.07L52.54,3.74l12,21ZM42.07,24.6l10.27,18L62.78,24.71l-10.26-18Z"/><path class="cls-1" d="M81.76,46.14,57.41,46l12.19-21,24-.07ZM60,44.55l20.87.09L91.07,26.49l-20.61.07Z"/><path class="cls-1" d="M47.07,46.05,22.73,45.9,11.07,24.63l24,.32ZM23.62,44.41l20.87.13L34.22,26.44l-20.6-.28Z"/><path class="cls-1" d="M67.84,19.48,62.28,9.69,67.94,0l5.57,9.75ZM64,9.7l3.85,6.77,3.92-6.73L67.93,3Z"/><path class="cls-1" d="M16.73,46.15,5.42,46.08,0,36.2l11.16.15ZM6.32,44.58l7.83.05-3.86-6.8-7.73-.1Z"/><path class="cls-1" d="M84.14,19.84l-11.31,0,5.66-9.74,11.17,0Zm-8.71-1.53,7.83,0,3.83-6.81-7.74,0Z"/><path class="cls-1" d="M99.42,46.14l-11.31,0,5.66-9.75,11.17,0Zm-8.71-1.53,7.83,0,3.83-6.82-7.73,0Z"/><path class="cls-1" d="M37,19.48,31.35,9.75,36.91,0l5.67,9.69ZM33.08,9.74,37,16.47,40.85,9.7,36.93,3Z"/><path class="cls-1" d="M20.72,19.84,15.2,10l11.17,0L32,19.8Zm-2.95-8.31,3.83,6.81,7.83,0L25.5,11.55Z"/><path class="cls-1" d="M52.4,92.85l-12-21,12.2-20.94L64.59,72Zm-10.25-21,10.27,18L62.86,72l-10.26-18Z"/><path class="cls-1" d="M11.3,71.6,23.18,50.45l24.35.09-12.19,21ZM24.06,52,13.87,70.09,34.47,70,44.93,52Z"/><path class="cls-1" d="M93.87,72l-24-.32-12-21.11,24.35.16ZM70.72,70.15l20.6.28-10-18.25-20.87-.13Z"/><path class="cls-1" d="M37,96.59l-5.56-9.75,5.66-9.73,5.57,9.79Zm-3.83-9.74L37,93.59l3.92-6.7-3.85-6.77Z"/><path class="cls-1" d="M104.93,60.39l-11.17-.15-5.56-9.8,11.31.07ZM94.64,58.75l7.74.11L98.62,52l-7.83,0Z"/><path class="cls-1" d="M15.28,86.57l5.52-9.83,11.31.05-5.66,9.74Zm6.39-8.32-3.82,6.81,7.73,0,3.93-6.75Z"/><path class="cls-1" d="M0,60.27l5.52-9.82,11.31,0-5.66,9.75ZM6.39,52,2.57,58.76l7.73,0L14.23,52Z"/><path class="cls-1" d="M68,96.59,62.36,86.9l5.56-9.79,5.67,9.73Zm-3.93-9.7L68,93.59l3.85-6.74-3.92-6.73Z"/><path class="cls-1" d="M89.73,86.57l-11.16,0-5.66-9.74,11.31-.05ZM79.43,85l7.74,0-3.83-6.81-7.83,0Z"/></g></svg>